<?xml version="1.0" encoding="utf-8"?>
<!-- Generator: Adobe Illustrator 26.0.0, SVG Export Plug-In . SVG Version: 6.00 Build 0)  -->
<svg version="1.1" id="Camada_1" xmlns="http://www.w3.org/2000/svg" xmlns:xlink="http://www.w3.org/1999/xlink" x="0px" y="0px"
	 viewBox="0 0 1227.42 1817.55" style="enable-background:new 0 0 1227.42 1817.55;" xml:space="preserve">
<style type="text/css">
	.st0{fill:#EDECEC;}
	.st1{fill:#0592B4;}
</style>
<polygon class="st0" points="1226.44,405.38 714.3,405.38 714.3,0.89 511.32,0.89 511.32,405.38 0.98,405.38 0.98,605.49 
	511.32,605.49 511.32,1817.55 714.3,1817.55 714.3,605.49 1226.44,605.49 "/>
<path class="st1" d="M1091.4,1056.27l-1.3-1.34l-2.18-0.93l-4.06-0.99l-4.53-1.29l-4.71-1.87l-3.65-1.23l-2.12-0.06l-5.65-1.52
	l-4.95-1.11l-4.18-1.4l-1.83-2.4l0.35-1.17l1.3-0.99l1.77-0.06l0.53,1.64l5.12-0.29l0.18-0.47l3.24,0.64l3.06,0.7l3.3-0.35
	l4.18,0.18l2.77,0.47l3.47,0.7l2.53,0.99l3.59,0.53l1.24-0.93l1.24-0.93l0.59-1.34l-0.35-1.81l-1.12-1.58l-1.65-1.11l-2.77-0.93
	l-6.89-1.81l-4.06-1.11l-5.24-1.29l-3.71-0.53l-4.12-0.58l-1.12-0.99l-3.18,0.18l-0.88,0.47l-2.3-0.53l-2.3-0.76l-4.47-0.76
	l-4.97-1.17l-4.74-1.43l-4.65-1.4l-2.65-1.64l-1.06-1.67l-0.09-2.31l0.38-1.64l1.21-2.02l3.18-3.27l4.33-4.65l3.5-4.06l2.12-3.68
	l1.12-3.07v-2.48l-0.71-2.13l-1.68-1.49l-2-0.12l-2.65,1.58l-1.82,2.16l-2.77,2.86l-3.59,4.32l-5.18,4.67l-4.36,3.27l-4.77,2.69
	l-3.36,4.73l-4.65,3.86l-8.01,6.72l-3.65,1.75l-3.89-0.06l-8.95-0.06l-14.66-0.53l-7.42-0.23l-9.24-0.47l-8.6-0.76l-7.83-1.75
	l-9.01-2.57l-10.07-2.57l-5-0.7l-1.3-3.8l-2.18-2.4l-3.24-0.64l-6.54-1.11l-4.18,0.35l-1.24-1.17l-3.18-0.23l-4.42,0.18l-2.12-0.12
	l-3.47-1.23l-4-0.88l-2.65,0.06l-4.47,0.06l-1.24,0.29l-0.18,1.4l-3.65-0.35l-3.36-1.99l-5.59-0.35l-3.59,0.35l-2-1.34l-7.42-1.99
	l-7.18-0.76l-4.3,0.06l-3-2.75l-4.89-3.39l-4.47-1.4l-5.42,0.47l-4.77,0.58l-0.94-0.35l-4.59-4.73l-7.07-6.43l-5.77-4.21l-7.89-4.79
	l-4.83-2.4l-5-0.35L766.7,974l-2.47,0.64l-2.06-1.69l-5.89-4.38l-5.42-3.04l-4.3-2.28l-1.88-2.45l-0.88-2.51l-0.94-1.99l-1.77-1.93
	l-0.94-0.29l-4.06-0.35l-3.77-0.35l-2-0.93l-4.06-2.86l-3.59-2.22l-1.12-0.06l-4.53-3.27l-4.3-1.52l-2.83-0.7l-4.53,0.29l-1.35-0.35
	l-2.36-0.12l-6.77,0.12l-1.77-2.45l-2.18-1.52l-3.94-0.58l-5.53,0.18l-2.18-0.76l-5-3.89l-3.74-2.78l-3.44-1.05l-4.39-0.76
	l-3.56-0.53l-4.56,0.56l-3.71,0.35l-0.44-0.88l-2.03-3.86l-1.59-3.16l0.26-6.49l0.35-4.56l-0.09-5.78l-0.62-7.63l0.35-1.93l0.44,0.7
	l2.21,0.44l3.71-0.79l3.09-2.02l1.77-2.54l1.06-2.54l0.35-2.63l0.09-3.24l0.53-2.98l0.62-3.07l0.71-3.59l-0.71-7.54l-0.97-2.37
	l-1.32-1.23l-2.56-0.09l1.24-5.78l1.15-4.38l-0.44-4.21l2.21-1.4l-1.24-3.77l-1.41-5.35l2.65-1.93l0.71-3.86v-5.78l-4.15,1.84
	l2.38-2.54l-0.62-3.16l-0.53-2.37l-2.12,1.58l-3.8,1.05l-2.38-0.7l-1.94-2.28l-3.18-3.89l-1.71-1.23l-0.41-0.93l-1.24-1.69
	l-0.35-0.93l-0.41-3.27l-2.06-2.98l-2.71-2.63l-1.71-0.82l-0.29-1.52l-1.41-2.1l-0.88,0.99l-0.35-1.81l-3.12-2.75l-0.24,1.64
	l-2.12-1.52l-2.24-2.05l-1.83,1.58l-2.77-0.88l-2.06-1.75l-2.47-0.88l-2.47-0.23l-1.41-2.34l-3.65,2.45l-6.06,1.29l-2.41,2.4
	l-2.41,1.11l-6.24,2.75l-5.95,3.74l-3.65,2.75l-1.06-0.23l-2.41,2.92l-3.59,8.12l-1.59,1.05l-4.47,5.14l-2.77,3.91l-2.59,9.23
	l-0.24,4.79l-0.12,11.57l0.41,5.49l1.65,5.78l1.71,3.62l-1.3-0.76h-2.12l-1.65,1.23l-1.88,3.27l0.12,6.19l0.84,5.61l0.77,2.21
	l0.11,2.94l-0.24,3.2l0.77,4.14l1.1,2.15l1.68,2.59l1.85,1.53l1.85,0.44l1.68-0.31l0.97-0.48l0.97-1.18l0.57,1.75l0.49,4.38
	l-0.18,5.74v9.55l-2.59,2.11l-2.54,2.01l-1.94,1.05l-1.32,1.75l-3.53,0.53l-3.89,2.1l-3.97,2.1l-5.39,0.44l-5.56,0.44l-2.47,0.79
	h-6.89l-3.18,0.96l-1.41,1.67c0,0-2.21,0.79-2.47,0.79s-3.09,0-3.09,0l-3.8,1.58h-3.53h-5.48l-6.27,1.31l-4.24,1.8l-1.19,1.23
	l-3.8,0.98l-2.87,0.77l-2.47-0.77l-4.06,0.29l-2.53,1.69l-1.88,4.38l-0.18,2.22l-0.53,1.23l-1.47,0.47l-3.94,0.58l-3.36,2.1
	l-3.81,2.05l-5.12,4.08l-2.74,3.77l-1.84,4.1l-3.83,0.67l-5.09,1.43l-3.03,0.73l-0.91,0.88l-0.29,1.61l0.41,2.22h-0.85l-2.41,0.47
	l-2.12,1.23l-2.91,2.4l-2.71,2.6l-1.15-0.58l-2.24-1.17l-3.62-1.69l-2.74-1.05h-2.8l-3.06,0.56l-2.47,1.43l-3.56,2.63l-2,2.4
	l-2.71,4.76l-2.24,0.06l-2.03-0.44l-2.8-0.44l-3.24-0.26l-3.12,0.03l-2.81,0.73l-5.7,1.93l-2.69,3.68l-2.47,0.26l-1.24-0.88h-1.55
	l-1.55-1.62l-0.75-0.92l-1.37-0.22l-2.43,0.44h-2.47l-3.8-0.09l-3.89,0.22l-2.43,0.44l-2.16,0.96h-3.18l-2.56,1.05l-3.09,1.23
	l-3-0.7l-2.47-0.09l-3.44,0.96l-3.18,0.18l-1.32,1.67l-0.53,3.77l-5.03,1.49l-18.72,5.35l-15.16,5.49l-14.01,3.16l-14.54,1.75
	l-16.25,1.69l-13.42,1.14l-8.57-0.09l-0.13-0.31l-0.71-1.1l-0.62-0.31l-0.75,0.09l-1.02,0.35l-0.66-0.26l-0.88-0.04l-0.93,0.26
	l-0.18,0.53l0.26,0.74l-0.4-0.48l-0.53-0.35l-0.71,0.09l-0.79,0.13l-0.13,0.79l-0.18,0.83l-0.13-0.35l-0.31-0.35l-0.26-0.31
	l-0.31-0.39l-0.97-0.04l-0.62,0.13l-0.57,0.7l-0.35-0.26l-0.53-0.35l-1.15,0.18l-0.66,0.57l-0.09,1.1l-1.68-0.26l-2.78-1.23
	l-4.46-2.41l-3.31-2.28l-5.25-3.24l-6.4-4.65l-4.46-2.85l-4.95-0.92l-3-1.4l-3.84-2.28l-5.87-3.37l-6.01-3.9l-3.05-3.46l-3.09-2.19
	l-1.5-0.83h-1.24l-1.24,0.83l-0.31,2.63l1.15,2.94l1.5,2.98l1.59,2.54l5.25,5.35l7.15,4.78l6.71,5.57l0.93,1.97l-0.49,1.67
	l-2.74,1.23l-4.55,2.37l-4.06,1.67l-3.97,0.53l-3.97,1.14l-4.86,2.45l-7.59,1.45l-5.43,0.96l-5.43,1.36l-5.92,2.32l-6.01,1.36
	l-3.44,1.11l-4.06,1.69l-2.56,1.62l-0.93,2.1l0.53,2.24l1.94,0.96l2.25,0.22l7.24-2.19l6.01-1.58l3.67-0.7l3.58,0.04l2.83-0.44
	l2.25-0.74l3.31-0.7l3.18-0.53l4.02-0.35l2.43,0.31l0.44,1.67l-2.38,1.53l-3.44,1.31l-4.72,1.31l-4.37,0.35l-4.95,0.88l-3,1.23
	l-4.19,1.97l-3.71,1.27l-3.27,0.96l-3.84,1.1l-4.9,1.27l-2.78,1.27l-1.15,2.28l0.22,2.89l1.72,1.45l2.21,0.48l3.75-0.66l4.19-1.62
	l3.49-1.45l5.43-0.83l6.98-1.01l4.2-1.22l3-1.06l2.87-0.92l4.64-1.14l3.36-1.01l1.94-0.04l1.02,0.79l0.49,1.23l-0.79,0.79
	l-3.14,0.76l-6.21,1.81l-5.71,1.58l-4.5,2.6l-6.27,2.66l-6.18,2.16l-2.65,1.11l-1.59,1.69l0.44,2.95l1.41,1.72l2.74,0.09l3.75-1.17
	l2.47-1.1l3.67-1.62l2.61-0.44l4.33-1.01l4.42-1.53l6.67-2.37l3.93-1.8l3.18-0.48l2.12,0.39l0.66,0.66l0.44,2.1l-0.4,1.58
	l-3.09,1.75l-4.81,2.72l-3.49,2.59l-3.36,2.32l-2.69,1.67l-4.55,2.67l-3.97,2.5l-1.02,1.53v1.75l1.41,1.53l1.99,0.26l2.91-0.44
	l4.28-1.97l2.78-1.8l3.44-1.8l5.61-2.63l3.22-2.15l2.3-1.71l2.43-0.96l4.68-2.67l3.27-0.79l4.5-0.79l4.9-0.92l6.14-0.88l7.64-1.14
	l7.11-2.02l5.21-2.32l4.86-2.8l2.03-1.96l0.32-0.61l0.24,0.64l0.47,0.5l0.56,0.64l0.88-0.06l0.53-0.15l0.18-0.38l0.56,0.5l0.65-0.03
	l0.65-0.44l0.26-0.41v-0.38l0.32,0.41l0.44,0.41l0.79-0.12l0.65-0.5l-0.79,2.1l1.06,2.8l2.47,1.05l3.09,0.09l2.56-1.14l1.85-1.49
	l0.71-1.67l-0.62-2.37l-1.41-1.4l-0.53-1.05l1.94,0.09l8.57,0.96l11.57,0.61l7.07-0.44l9.1,0.96l19.87,1.23l12.54,0.53l17.84-0.44
	l7.86-0.88l8.12-0.61l1.77,2.63l3,1.93l3.62,0.44l6.09-0.35l4.06-0.61l3.27-0.53l2.74,1.05l1.68-0.26l2.12-2.02h1.06l1.68,1.23
	l2.21,0.61l1.24-0.7l0.44-1.05l1.5,0.61l2.03,0.7l1.41-0.09l1.15-1.23l2.3-3.59l3.89,0.7l4.15,0.79l1.06,0.79l4.24,0.35l6.71-0.26
	l4.33-1.14l4.86-3.16l9.89-6.57l3.27-1.4l5.92-0.18l6.71-1.05l5.56-2.19l3.8-1.93l6.36-2.19l3.44-0.79l3.62,0.7l5.92-0.53l5.21-0.18
	l4.83-0.47l0.53,1.11l1.18,2.22l2.71,2.57l1.18,4.44l3.89,8.3l3.06,4.67l1.65,4.21l5.42,12.04l2.68,6.22l-0.26,2.72l1.24,5.78
	l1.41,8.59l2.91,9.12l1.06,9.82l0.18,9.55v12.8l1.91,12.88l0.82,5.84l1.3,5.32l2.12,5.03l0.53,4.5l0.24,5.84l1.47,11.34l0.18,4.09
	l-1.77,4.21l-2.59,6.54l-3.53,9.35l-2.71,7.25l-3.41,7.95l-2.12,14.61l-1.41,2.22l-1.71,2.16l-10.51,26.03l2.83,7.63l4.92,5.55
	l3.59,0.76l2,1.4l1.71,0.41l2.77,1.69l2,1.17l1.71,0.41l1.77,0.06l2.1,0.88l-0.04,5.61l-0.66,2.85l-0.97,10.47l-2.12,6.87
	l-0.01,5.89l-0.03,14.33l-0.65,12.08l-0.97,16.28l-1.13,7.83l0.89,19.67l0.14,11l1.08,9.13l2.94,7.96l-0.25,3.23l0.27,9.25
	l1.63,8.82l0.96,4.82l0.36,4.6l-0.04,7.56l-0.76,8.82l0.33,4.95l1.05,4.83l-0.75,2.93l-4.74,2.98l-7.55,3.74l-3.29,2.48l-0.83,3.89
	l1.52,5.65l2.54,3.31l2.56,1.33l1.44,2.57l0.35,4.11l-2.03,1.08l-2.79,4.71l-0.86,3.72l0.18,6.3l-2.24,6.16l-2.21,5.81l-1.86,2.85
	l-0.65,2.11l-0.26,5.12l-0.53,19.78l-0.17,12.73l0.11,7.26l-0.11,10.76l-0.1,2.54l-0.08,2.19l-0.6,5.49l-0.31,8.77l-0.86,12.42
	l0.1,14.95l0.5,8.56l-2.97,5.23l-1.41,1.04l-4.13,3.12l-4.54,5.02l-1.62,2.69l-2.52,2.8l0.68,4.97l-1.43,11.76l1.91,6.38l1.71,9.01
	l0.39,12.34l-2.66,4.64l-0.6,3.21l-1.38,3.06l-1.26,2.54l-1.99,2.93l-0.8,4.69l-0.05,2.98l0.76,0.88l-1.29,3.83l-2.17,4.41
	l-3.52,5.89l-2.19,0.13l-4.6,0.71l-3.78,1.59l-3.41,2.15l-3.85,3.23l-3.19,3.16l-2.59,3.73l-1.09,4.2l-0.42,3.13l-0.21,2.8
	l-0.67,1.88l0.42,6.1l0.96,8.33l2.4,1.06l2.65,1.25l5.05,1.17l6.06,0.72l7.43,1.35l10.85,0.55l4.51,0.07l0.59,2.68l4.52,1.13
	l13.44,0.3l16.95,0.66c0,0,15.99,0.5,16.02,0.15c0.03-0.35,10.73-0.95,10.73-0.95l1.84-0.89l0.32-1.82l-0.18-5.4l0.07-5.56
	l-0.17-7.13l-0.77-0.38l-1.23-1.29l-0.17-0.8l0.03-1.2l1.35-0.28l1.05-0.57l0.79-1.46l-0.01-3.75l-0.06-7.3l-0.24-6.17l-0.17-3.53
	l-0.94-2.8l-0.83-1.91l0.97-1.16l1.82-3.03l1.4-3.67l0.14-1.86l0.19-2.45l1.46-3.64l1.36-5.52l1.09-3.43l0.33-4.31l0.24-3.15
	l1.99-7.59l1.71-5.38l2.8-7.29l1.38-4.23l-0.41-8.59l1.8-3.5l3.32-7.95l2.04-11.33l1.41-3.06l0.47-6.18l1.02-5.67l0.19-4.09
	l1.83-7.01l0.68-5.81l0.13-4.8l0.12-1.63l0.2-2.56l2.59-10.71l0.54-10.16l-0.41-5.54l-0.45-4.96l-0.54-2.15l-0.45-6.48l1.24-2.37
	l2.53-4.97l1.65-5.03l0.94-3.09l0.13-3.27l-0.6-9.19l0.05-7.97l1.32-2.19l1.02-2.91l1.06-4.67l0.45-4.71l0.23-4.2l-0.23-6.26
	l0.37-4.81l0.25-3.32l0.29-3.76l0.98-4.76l2.23-4.84l3.79-4.37l3.46-6.66l0.27-3.61l1.85-10.29l2.43-7.08l1.56-6.56l0.62-8.16
	l3.18-23.2l4.7-22.97l7.72-33.23l1.84-4.02l0.24-3.2l1.2-4.95l1.97-6.53l1.88-6.89l2.29-6.1l1.91-5.72l1.04-2.79l1.71-0.75
	l1.57-1.23l1.02,0.6l0.83,1.47l4.83,10.6l3.66,13.34l3.54,10.8l4.19,14.61l3.15,9.89l2.49,12.66l2.9,10l3.06,12.54l1.61,9.53
	l3.86,14.77l1.45,7.46l-0.16,7.15l1.66,4.15l3.04,5.79l3.94,7.91l2.74,5.95l2.67,6.82l1.22,4.9l0.92,7.34c0,0-0.29,9.24-0.24,8.54
	c0.05-0.7,0.96,6.75,0.96,6.75l1.25,3.73l3.27,6.63l2.72,6.88l-2.1,8.16l0.34,4.83l1.16,9.58l0.98,7.34l1.72,10.74l0.67,11.36
	l0.51,13.46l0.83,9.32l0.21,11.21l1.33,12l1.44,13.7l0.44,4.31l0.55,6.72l0.46,10.23l0.87,6.39l1.49,6.09l2.12,8.6l1.4,3.39
	l1.73,5.99l2.29,10.31l1.3,9.24l0.54,6.84l-0.05,6.85l0.09,5.19l0.01,2.24l0.43,1.35l1.3,0.98l2.7,1.21l2.05,1.6l0.6,2.59l0.26,2.96
	l0.19,7.46l0.55,6.02l1.44,4.33l1.29,3.26l1.22,1.85l1.6,1.41l0.54,2.21l-0.05,3.75l-0.39,10.52l0.55,2.85l1.57,1.93l4.46,1.15
	l6.54,0.2l9.19,0.34l6.97-0.01l5.89-0.56l12-0.16c-0.18-0.01,7.29-1.09,7.29-1.09l2.65-0.74l0.91-1.1l0.23-1.51l1.12,0.08l5.57-0.29
	l3.23-0.52l3.28-1.16l0.15-1.16l0.16-10.65l-0.48-0.74l-1.03-0.49l-0.13-0.65l0.02-1.87l1.04-0.45l0.64-1.42l-0.36-2.25l-0.91-2.06
	l-1.38-2.8l-2.37-3.75l-4.31-4.6l-2.95-2.33l-2.37-2.93l-1-1.66l-0.46-2.55l-1.26-2.09l-1.59-2.35l-1.07-2.19l-0.12-1.59l1.4-2.83
	l1.19-3.19l0.87-4.39l-0.39-3.43l-0.79-2.87l1.09-1.15l-0.05-2.46l-0.82-7.09l-1.06-3.13l0.19-3.27l1.79-3.38l1.01-3.97l0.36-3.2
	l-0.23-8.57l0.09-13.65l0.25-7.19l0.08-8.84l0.82-6.91l0.13-7.2l-0.96-3.7l-0.63-4.85l-1.39-7.37l-2.91-10.59l-0.88-4.7l-0.87-5.69
	l-0.33-6.53l-0.88-3.93l-1.34-4.85l-0.81-7.27l0.24-11.7l-0.74-10.43l-1.03-8.22l-1.16-10.4l-1.01-5.29l-1.15-4.31l-1.07-6.88
	l-0.67-5.97l-0.38-4.36l-0.06-3.81l-0.78-7.62l-1.18-2.32l-2.79-2.9l-1.31-1.39l-0.19-2.94l-0.77-2.28l-1.01-2.24l0.57-2.07l1.4-1.3
	l1.4-1.36l0.43-4.07l-0.23-3.94l-0.64-3.21l-2.83-4.72l-0.4-1.79l0.82-0.7l0.27-1.27l-2.61-4.53l-2.07-3.79l-1.7-4.76l-0.11-3.93
	l-0.34-4.89l-0.29-5.53l-0.16-9.51l-0.44-5.42l-0.48-6.45l-0.93-5.26l-1.5-5.96l-1.28-4.1l-1.62-6.01l-0.93-4.64l-0.99-2.67
	l-0.23-3.4l0.19-2.49l1-6.17l0.37-7.22l0.02-4.96l0.04-4.61l-1.05-5.4l-0.44-2.93l-0.41-5.66l-0.02-3.17l-0.07-3.21l0.23-1.87
	l0.84-5.25l0.49-3.57l0.2-3.15l-0.38-4.38l-0.36-2.31l-0.67-3.48l1.51-0.68l1.75-0.92l1.92-1.35l1.59-1.11l0.16-0.91l-0.26-1.29
	l-1.24-2.29l-1.74-2.68l-1.02-1.7l-0.72-2.21l-0.38-2.62l-0.22-4.06l-0.47-3.2l-0.4-4.03l-0.09-2.86l-0.31-3.45l-0.36-2.88
	l-0.2-0.68l11.39-0.54l15.63-16.52l2.18-5.39l-1.41-7.89l-5.54-8.46c-3.94-5.83-7.89-11.67-11.83-17.5
	c-2.94-7.23-8.1-18.87-11.04-26.1c-0.81-4.12-0.9-11.81-1.77-16.28l-7.08-9.53l6.13-33.68l-1.72-15.11l-2.44-14.14l0.92-11.07
	l3.11-7.56l3.86-13.56l-2.58-4.13l3.17-18.47l0.27-6.46l1.61-4.02l1.77-2.65l1.37-2.14l2.65-2.89l1.68-1.14l2.12-2.02l2.3-1.14
	l3.09,0.47h4.18l3.65,1.34l4,0.58l6.48-0.23l7.18,2.92l10.1-0.26l2.65-0.53l2.21,0.7h4.24h2.12l2.03,2.02l2.3,0.44l4.24,0.18
	l3.97-0.61l2.74,1.4l4.5,2.1l6.09,3.77l3.18,1.23l3.89,0.96l3.44,0.44l4.5-0.26l4.24-0.79l3.97-0.96l2.03,3.33l1.5,1.93l2.3,1.84
	l2.83,1.23l3.53,0.7l2.12,0.35l3.62-0.35l-0.62,1.05v1.4l0.44,1.75h3.36l1.41-0.96l1.41-1.23h1.24h1.85h2.3h0.79l0.97-1.31
	l1.68,0.26l2.91,0.44h2.56l0.88-1.14h4.5l10.51-1.23l1.85-2.54h10.33l19.46-1.31l34.85-2.8l25.43-3.27l1.9,0.42l3.31,1.05l4.02,3.2
	l4.72,3.29l7.07,2.59l8.21,1.58l11.7,1.05l4.02,0.61l3.27,0.76l12.42,6.31l4.47,2.45l3,0.88l2.06-0.53l1.06-1.58l0.53-1.93
	l-1.35-2.1l-2.83-1.58l-3.65-1.87l-2.94-2.28l-1.94-1.99l-4-2.1l-2.41-0.53l-0.71-2.22l0.71-0.99l3.53-0.18l4.59,1.69l7.3,3.86
	l2.71,0.35l3.83,1.29l3.24,1.05l3.94,2.45l2.83-0.41l2.36-1.34l0.59-2.51l-0.77-2.57l-1.53-1.05l-2.47-0.06l-2.83-1.23l-3.65-2.28
	l-4.65-2.75l-3.06-0.76l-5.59-1.46l-2.77-1.23l-1.18-1.52l0.41-0.93h3.47l4.95,0.99l5.18,1.99l2.71,1.46l5.48,0.41l4.24,0.88
	l5.65,1.11l3.65,1.75l2.65-0.58l1.94-1.34l0.71-2.22L1091.4,1056.27z M230.75,1059.67c0.41,1.75-3.12,4.02-3.91,3.19
	c-0.44-0.46-5.19,1.63-5.14-2.3c0.01-0.86,1.85-2.79,4.2-3.68C229.35,1055.57,230.46,1058.45,230.75,1059.67z"/>
</svg>
