<?xml version="1.0" encoding="utf-8"?>
<!-- Generator: Adobe Illustrator 26.0.0, SVG Export Plug-In . SVG Version: 6.00 Build 0)  -->
<svg version="1.1" id="Camada_1" xmlns="http://www.w3.org/2000/svg" xmlns:xlink="http://www.w3.org/1999/xlink" x="0px" y="0px"
	 viewBox="0 0 501.3 501.3" style="enable-background:new 0 0 501.3 501.3;" xml:space="preserve">
<style type="text/css">
	.st0{enable-background:new    ;}
	.st1{fill:#FFFFFF;}
	.st2{fill:#B58040;}
</style>
<g id="Camada_2_00000180358285836489363740000001397091543206656923_">
	<g class="st0">
		<path class="st1" d="M170.8,140.3V239H143v-59.2L117.4,239H94.9l-25.7-59.3V239H41.4v-98.7h32.9l32.1,68.3l31.7-68.3H170.8z"/>
		<path class="st1" d="M261.9,221.5h-42.6l-6.8,17.4h-29.1l41.2-98.6h32.2l41.3,98.7h-29.5L261.9,221.5z M254.8,203l-14.2-36.1
			l-14,36.1H254.8z"/>
		<path class="st1" d="M412.9,239h-27.8l-46.5-60.9V239h-27.8v-98.7h27.8l46.5,61.1v-61.1h27.8V239z"/>
		<path class="st1" d="M461,140.3V239h-27.8v-98.7H461z"/>
		<path class="st1" d="M105.6,261.3v19.3H65.4v20.8h30.1v18.7H65.4V360h-24v-98.7H105.6z"/>
		<path class="st1" d="M142.3,280.6v20h32.2v18.6h-32.2v21.6h36.4v19.3h-60.4v-98.8h60.4v19.3H142.3z"/>
		<path class="st1" d="M210.6,357.4c-5.7-2.3-10.3-5.8-13.7-10.4s-5.2-10.1-5.4-16.6h25.6c0.4,3.7,1.6,6.4,3.8,8.4
			c2.2,1.9,5,2.9,8.4,2.9c3.6,0,6.4-0.8,8.4-2.5c2.1-1.6,3.1-3.9,3.1-6.8c0-2.4-0.8-4.4-2.5-6c-1.6-1.6-3.7-2.9-6-3.9
			c-2.4-1-5.8-2.2-10.2-3.5c-6.4-2-11.6-3.9-15.6-5.9s-7.5-4.9-10.4-8.7c-2.9-3.8-4.4-8.9-4.4-15c0-9.2,3.3-16.4,10-21.6
			c6.7-5.2,15.3-7.8,26-7.8c10.9,0,19.6,2.6,26.3,7.8c6.7,5.2,10.2,12.4,10.7,21.7h-26c-0.2-3.2-1.4-5.7-3.5-7.5
			c-2.2-1.8-4.9-2.7-8.3-2.7c-2.9,0-5.2,0.8-7,2.3s-2.7,3.8-2.7,6.7c0,3.2,1.5,5.7,4.5,7.4c3,1.8,7.7,3.7,14.1,5.8
			c6.4,2.2,11.5,4.2,15.5,6.2s7.4,4.8,10.3,8.6c2.9,3.7,4.4,8.6,4.4,14.5c0,5.6-1.4,10.7-4.3,15.3s-7,8.2-12.4,11
			c-5.4,2.7-11.9,4.1-19.3,4.1C222.8,361,216.3,359.8,210.6,357.4z"/>
		<path class="st1" d="M351.7,261.3v19.3h-26.1V360h-24v-79.4h-26.1v-19.3H351.7z"/>
		<path class="st1" d="M385,354.5c-7.7-4.3-13.9-10.3-18.4-18.1c-4.5-7.7-6.8-16.4-6.8-26.1c0-9.6,2.3-18.3,6.8-26
			c4.5-7.7,10.7-13.7,18.4-18c7.7-4.3,16.2-6.5,25.5-6.5s17.8,2.2,25.5,6.5c7.7,4.3,13.8,10.3,18.3,18c4.5,7.7,6.7,16.4,6.7,26
			c0,9.7-2.2,18.3-6.7,26.1c-4.5,7.7-10.6,13.8-18.3,18.1c-7.7,4.3-16.2,6.5-25.4,6.5S392.7,358.8,385,354.5z M429.4,331.2
			c4.7-5.2,7.1-12.2,7.1-20.8c0-8.7-2.4-15.7-7.1-20.9c-4.7-5.2-11-7.8-18.9-7.8c-8,0-14.3,2.6-19,7.7c-4.7,5.2-7.1,12.1-7.1,20.9
			c0,8.7,2.4,15.7,7.1,20.9c4.7,5.2,11.1,7.8,19,7.8C418.4,339,424.7,336.4,429.4,331.2z"/>
	</g>
	<g id="Camada_30">
		<path class="st2" d="M500.6,200H0v-21.5h500.6c0.4,3.4,0.6,6.9,0.7,10.4C501.2,192.7,501,196.3,500.6,200z"/>
	</g>
	<g id="Camada_30_00000127019703769920040300000016377430984411366046_">
		<path class="st2" d="M500.6,321.1H0v-21.4h500.6c0.4,3.4,0.6,6.9,0.7,10.4C501.2,313.8,501,317.4,500.6,321.1z"/>
	</g>
	<g id="Camada_30_00000148658779010405363960000015798457794345834382_">
		<path class="st2" d="M469.1,159.4L41.4,360l-9.7-19.1l427.7-200.6c1.9,2.9,3.7,5.9,5.3,9C466.3,152.6,467.8,156,469.1,159.4z"/>
	</g>
</g>
</svg>
