<?xml version="1.0" encoding="utf-8"?>
<!-- Generator: Adobe Illustrator 24.1.1, SVG Export Plug-In . SVG Version: 6.00 Build 0)  -->
<svg version="1.1" id="Camada_1" xmlns="http://www.w3.org/2000/svg" xmlns:xlink="http://www.w3.org/1999/xlink" x="0px" y="0px"
	 viewBox="0 0 197.4 45.3" style="enable-background:new 0 0 197.4 45.3;" xml:space="preserve">
<style type="text/css">
	.st0{fill:#221F20;}
</style>
<path class="st0" d="M80.7,13.8c0.8,0,1.6,0.3,2.4,1V9.9h1.4c-0.7-1.1-1.2-2.9-1.4-5.4H69.4c-0.2,2.5-0.6,4.3-1.4,5.4h1.4v25.5h-1.4
	c0.7,1,1.2,2.8,1.4,5.3h13.6c0.2-2.5,0.7-4.3,1.4-5.3h-1.4v-4.9c-0.8,0.6-1.6,0.9-2.4,0.9c-0.7,0-1.5-0.3-2.5-0.9v4.9h-3.8V24.1h7.1
	c-0.6-0.7-0.8-1.4-0.8-2.2c0-0.7,0.2-1.4,0.8-2.2h-7.1V9.9h3.8v4.8C79.1,14.1,79.9,13.8,80.7,13.8z M62.8,13.6
	c0.9,0,1.7,0.3,2.3,1.1V10h1.4c-0.7-1.1-1.2-3-1.4-5.4H51.5C51.3,7,50.8,8.8,50.1,10h1.4v13.2c1.4,0,2.6,0.2,3.5,0.6
	c0.9,0.4,1.7,0.8,2.6,1.1c0.8,0.4,1.7,0.6,2.6,0.6v10h-3.8v-4.9c-0.9,0.6-1.7,0.9-2.4,0.9c-0.7,0-1.6-0.3-2.5-0.9v4.9h-1.4
	c0.7,1,1.2,2.8,1.4,5.3h13.6c0.2-2.5,0.7-4.3,1.4-5.3h-1.4V21.3c-1.3,0-2.5-0.2-3.4-0.6c-0.9-0.3-1.7-0.6-2.6-1
	c-0.9-0.4-1.8-0.6-2.7-0.6V10h3.8v4.7C61,13.9,61.9,13.6,62.8,13.6z M102.1,10c-0.7-1.1-1.2-2.9-1.4-5.4h-4.8
	c-0.2,2.5-0.6,4.3-1.4,5.4h1.4v11.6L92.2,10h1.1c-0.6-1.1-1.1-2.9-1.3-5.4h-4.9c-0.2,2.5-0.7,4.3-1.4,5.4h1.4v25.5h-1.4
	c0.7,1,1.2,2.8,1.4,5.3h4.9c0.2-2.5,0.6-4.3,1.3-5.3h-1.3V21.8l3.8,12.5l0.1,1.1h-1.4c0.7,1,1.1,2.8,1.4,5.3h4.8
	c0.2-2.5,0.6-4.3,1.4-5.3h-1.4V10H102.1z M34.5,11.6c1,0,1.9,0.4,3,1.2V6.7h1.7c-0.9-1.3-1.4-3.5-1.7-6.7H20.5
	c-0.2,3.1-0.8,5.4-1.7,6.7h1.7v31.9h-1.7c0.9,1.4,1.4,3.6,1.7,6.7h17.1c0.2-3.1,0.8-5.4,1.7-6.7h-1.7v-6c-1.1,0.7-2.1,1.1-3,1.1
	c-0.9,0-1.9-0.4-3.1-1.1v6h-4.8V24.5h8.8c-0.6-0.9-0.9-1.8-0.9-2.7c0-0.9,0.3-1.8,0.9-2.8h-8.8V6.7h4.8v6.2
	C32.6,12,33.7,11.6,34.5,11.6z M48.3,10c-0.7-1.1-1.1-2.9-1.3-5.4h-4.9c-0.2,2.5-0.7,4.3-1.4,5.4h1.4v25.5h-1.4
	c0.7,1,1.2,2.8,1.4,5.3H47c0.2-2.5,0.6-4.3,1.3-5.3H47V10H48.3z M156.2,10c-0.7-1.1-1.2-2.9-1.4-5.4h-4.9c-0.2,2.5-0.6,4.3-1.4,5.4
	h1.4v9.7h-3.8V10h1.3c-0.6-1.1-1.1-2.9-1.3-5.4h-4.9c-0.2,2.5-0.6,4.3-1.4,5.4h1.4v25.5h-1.4c0.7,1,1.1,2.8,1.4,5.3h4.9
	c0.2-2.5,0.6-4.3,1.3-5.3h-1.3V24.2h3.8v11.3h-1.4c0.7,1,1.1,2.8,1.4,5.3h4.9c0.2-2.5,0.6-4.3,1.4-5.3h-1.4V10H156.2z M112.8,21.8
	c1.4,2.2,3.5,3.2,6.1,3.2v10.4h1.4c-0.7,1-1.2,2.8-1.4,5.3h-13.7c-0.2-2.5-0.6-4.3-1.4-5.3h1.4V10h-1.4c0.7-1.1,1.2-3,1.4-5.4h13.7
	c0.2,2.4,0.6,4.3,1.4,5.4h-1.4v8.8C116.5,18.8,114.4,19.7,112.8,21.8z M110.2,25v10.4h3.9v-7.2C112.7,28.2,111.4,27.1,110.2,25z
	 M114,15.8V9.9h-3.9v8.8C111.4,16.8,112.7,15.8,114,15.8z M176.9,6.7h1.8c-0.9-1.3-1.4-3.5-1.8-6.7h-6.1c-0.2,3.1-0.8,5.4-1.7,6.7
	h1.7v14.7l-4.6-14.7h1.4c-0.9-1.3-1.4-3.5-1.7-6.7h-6.1c-0.3,3.1-0.9,5.4-1.7,6.7h1.7v31.9h-1.7c0.8,1.4,1.4,3.6,1.7,6.7h6.1
	c0.2-3.1,0.8-5.4,1.7-6.7H166V21.7l4.8,15.6v1.4h-1.7c0.9,1.4,1.4,3.6,1.7,6.7h6.1c0.3-3.1,0.9-5.4,1.8-6.7h-1.8V6.7z M136.7,35.5
	h1.6c-0.7,1-1.2,2.8-1.4,5.3h-4.9c-0.2-2.5-0.6-4.3-1.3-5.3h1.8l-0.6-3.7h-3.9l-0.5,3.7h1.8c-0.6,1-1.1,2.8-1.3,5.3h-4.9
	c-0.2-2.5-0.6-4.3-1.4-5.3h1.5l3.3-25.5h-1.5c0.7-1.1,1.2-2.9,1.4-5.4h6.1c0.2,2.4,0.7,4.3,1.4,5.4h-1.6L136.7,35.5z M131.4,27.3
	l-1.5-9l-1.1,9H131.4z"/>
</svg>
