<?xml version="1.0" encoding="utf-8"?>
<!-- Generator: Adobe Illustrator 26.0.0, SVG Export Plug-In . SVG Version: 6.00 Build 0)  -->
<svg version="1.1" id="logo" xmlns="http://www.w3.org/2000/svg" xmlns:xlink="http://www.w3.org/1999/xlink" x="0px" y="0px"
	 viewBox="0 0 128 128" style="enable-background:new 0 0 128 128;" xml:space="preserve">
<style type="text/css">
	.st0{fill:#DDDDDD;}
</style>
<path class="st0" d="M103.46,8.08c-4.23-3.17-8.85-5.49-13.75-6.82c-0.34-0.09-0.67-0.18-1.01-0.25C88.67,1,88.64,0.99,88.6,0.98
	c-0.24-0.06-0.48-0.11-0.72-0.16c-0.25-0.06-0.51-0.11-0.76-0.15c-1.65-0.32-3.32-0.52-5.02-0.61c-0.34-0.02-0.69-0.03-1.03-0.04
	C80.75,0.01,80.44,0,80.12,0c-0.03,0-0.06,0-0.09,0.01V0L40.01,64.01L0,128h40.03c0.19-7.58,2.22-14.67,5.65-20.77
	c6.99-12.44,19.76-20.77,34.35-20.77V42.67l20.01,21.91L80.03,86.5v41.5c0.03,0.01,0.06,0.01,0.09,0.01c0.32,0,0.63-0.01,0.94-0.02
	c0.34-0.01,0.69-0.02,1.03-0.04c0.34-0.02,0.68-0.04,1.02-0.07c0.95-0.08,1.89-0.19,2.83-0.34c0.31-0.05,0.62-0.11,0.93-0.16
	c0.13-0.02,0.26-0.04,0.39-0.08c0.18-0.03,0.36-0.07,0.54-0.11c0.29-0.06,0.58-0.12,0.87-0.19c5.1-1.22,9.92-3.52,14.32-6.72
	c0.09-0.06,0.18-0.13,0.27-0.2C118.01,109.18,128,88.15,128,64C128,39.96,118.1,19.01,103.46,8.08z"/>
</svg>
