<?xml version="1.0" encoding="utf-8"?>
<!-- Generator: Adobe Illustrator 26.0.0, SVG Export Plug-In . SVG Version: 6.00 Build 0)  -->
<svg version="1.1" id="logo_cópia" xmlns="http://www.w3.org/2000/svg" xmlns:xlink="http://www.w3.org/1999/xlink" x="0px"
	 y="0px" viewBox="0 0 160.7 194.3" style="enable-background:new 0 0 160.7 194.3;" xml:space="preserve">
<style type="text/css">
	.st0{fill:#FFFFFF;}
</style>
<path class="st0" d="M157.6,191.1h-11.8c-5.3,0-10.2-2.3-13.7-6.3l-43.4-51.2c-1.6-1.8-2.3-4.2-2.1-6.6c0.2-2.4,1.4-4.6,3.2-6.1
	l38.1-31.6c2.8-2.3,4.4-5.7,4.4-9.4c0-3.6-1.6-7-4.5-9.3L90.7,40.4c-3-2.4-6.6-3.6-10.3-3.6c-3.7,0-7.3,1.2-10.3,3.6L22.4,79.2
	v111.9h-6.9c-6.8,0-12.4-5.5-12.4-12.4V67.4L80.4,4.1l70.8,58c4,3.3,6.3,8.2,6.3,13.4V191.1z M153.2,59.7L80.4,0L0,65.9v112.9
	c0,8.6,7,15.5,15.5,15.5h10.1V80.7l46.5-37.8c4.8-3.9,11.8-3.9,16.5,0l37.2,30.3c2.1,1.7,3.3,4.2,3.3,6.9c0,2.7-1.2,5.2-3.2,6.9
	l-38.1,31.6c-2.5,2.1-4.1,5-4.4,8.3c-0.3,3.3,0.7,6.4,2.8,8.9l43.4,51.2c4,4.7,9.9,7.4,16.1,7.4h15V75.6
	C160.7,69.4,158,63.6,153.2,59.7"/>
</svg>
