<?xml version="1.0" encoding="utf-8"?>
<!-- Generator: Adobe Illustrator 26.0.0, SVG Export Plug-In . SVG Version: 6.00 Build 0)  -->
<svg version="1.1" id="Camada_1" xmlns="http://www.w3.org/2000/svg" xmlns:xlink="http://www.w3.org/1999/xlink" x="0px" y="0px"
	 viewBox="0 0 888.52 869.28" style="enable-background:new 0 0 888.52 869.28;" xml:space="preserve">
<style type="text/css">
	.st0{fill:#EDECEC;}
	.st1{fill:#0592B4;}
</style>
<g>
	<path class="st0" d="M13.99,585.98v-0.44c0-43.2,31.57-79.38,75.43-79.38c28.94,0,44.07,10.74,58.33,24.34l-3.29,3.29
		c-12.28-11.84-27.85-23.24-55.26-23.24c-40.78,0-70.39,34.64-70.39,74.77v0.44c0,40.56,30.04,74.77,70.39,74.77
		c25,0,43.63-11.84,55.91-25l3.51,3.29c-13.38,14.03-32.67,26.09-59.64,26.09C45.78,664.91,13.99,629.39,13.99,585.98z"/>
	<path class="st0" d="M179.98,508.79H287.2v4.39H184.8v69.73h92.97v4.38H184.8v70.6H288.3v4.39H179.98V508.79z M247.73,467.35
		l5.48,2.63l-23.46,24.56h-3.07L247.73,467.35z"/>
	<path class="st0" d="M324.92,508.79h4.82v149.1h94.29v4.39h-99.11V508.79z"/>
	<path class="st0" d="M446.18,594.31v-85.51H451v85.51c0,44.07,23.46,66,57.45,66c34.43,0,57.01-21.93,57.01-65.78v-85.73h4.82
		v85.51c0,46.92-25,70.39-62.05,70.39C471.61,664.69,446.18,641.45,446.18,594.31z"/>
	<path class="st0" d="M613.49,508.79h4.82v149.1h94.29v4.39h-99.11V508.79z"/>
	<path class="st0" d="M800.75,507.7h4.17l73.89,154.58h-5.26l-21.93-46.05h-97.79l-21.93,46.05h-5.04L800.75,507.7z M849.42,611.85
		l-46.71-97.79l-46.7,97.79H849.42z"/>
	<path class="st0" d="M140.21,851.94c-4.6,3.65-9.62,6.77-15.09,9.39c-5.47,2.61-11.45,4.6-17.94,5.94
		c-6.5,1.34-13.78,2.02-21.86,2.02c-12.2,0-23.53-2.22-33.98-6.65c-10.46-4.43-19.49-10.49-27.09-18.18
		c-7.6-7.68-13.55-16.75-17.82-27.21C2.14,806.79,0,795.62,0,783.74v-0.47c0-11.88,2.14-23.01,6.42-33.39
		c4.28-10.37,10.22-19.49,17.82-27.33c7.6-7.84,16.71-14.02,27.33-18.54c10.61-4.52,22.34-6.77,35.17-6.77
		c7.76,0,14.85,0.63,21.27,1.9c6.42,1.27,12.24,3.01,17.47,5.23c5.23,2.22,10.06,4.91,14.5,8.08c4.43,3.17,8.56,6.65,12.36,10.46
		l-23.29,26.85c-6.5-5.86-13.11-10.46-19.84-13.78c-6.74-3.33-14.3-4.99-22.69-4.99c-6.97,0-13.43,1.35-19.37,4.04
		c-5.94,2.7-11.05,6.42-15.33,11.17c-4.28,4.75-7.6,10.26-9.98,16.52c-2.38,6.26-3.56,12.95-3.56,20.08v0.48
		c0,7.13,1.19,13.86,3.56,20.2c2.38,6.34,5.66,11.88,9.86,16.63c4.2,4.75,9.27,8.52,15.21,11.29c5.94,2.77,12.48,4.16,19.6,4.16
		c9.51,0,17.54-1.74,24.12-5.23c6.57-3.48,13.11-8.24,19.6-14.26l23.29,23.53C149.24,844.18,144.8,848.29,140.21,851.94z"/>
	<path class="st0" d="M345.52,816.65c-4.44,10.38-10.58,19.49-18.42,27.33c-7.84,7.84-17.19,14.02-28.04,18.54
		c-10.85,4.51-22.69,6.77-35.53,6.77s-24.64-2.26-35.41-6.77c-10.78-4.52-20.08-10.61-27.92-18.3c-7.84-7.68-13.94-16.71-18.3-27.09
		c-4.36-10.38-6.54-21.51-6.54-33.39v-0.47c0-11.88,2.22-23.01,6.65-33.39c4.43-10.37,10.57-19.49,18.42-27.33
		c7.84-7.84,17.19-14.02,28.04-18.54c10.85-4.52,22.69-6.77,35.53-6.77s24.63,2.26,35.41,6.77c10.77,4.51,20.08,10.62,27.92,18.3
		c7.84,7.69,13.94,16.72,18.3,27.09c4.36,10.38,6.54,21.51,6.54,33.39v0.48C352.18,795.14,349.96,806.27,345.52,816.65z
		 M313.92,783.26c0-7.13-1.23-13.86-3.68-20.2c-2.46-6.33-5.94-11.88-10.46-16.63s-9.86-8.51-16.04-11.29
		c-6.18-2.77-12.91-4.16-20.2-4.16c-7.45,0-14.22,1.35-20.32,4.04c-6.1,2.7-11.33,6.42-15.68,11.17
		c-4.36,4.75-7.76,10.26-10.22,16.52c-2.46,6.26-3.68,12.95-3.68,20.08v0.48c0,7.13,1.23,13.86,3.68,20.2
		c2.45,6.34,5.94,11.88,10.46,16.63c4.52,4.75,9.82,8.52,15.92,11.29c6.1,2.77,12.87,4.16,20.32,4.16c7.29,0,14.02-1.34,20.2-4.04
		c6.18-2.69,11.44-6.42,15.8-11.17c4.36-4.75,7.76-10.26,10.22-16.52c2.45-6.26,3.68-12.95,3.68-20.08V783.26z"/>
	<path class="st0" d="M508.54,866.43l-15.21-37.31h-70.34l-15.21,37.31h-37.31l71.29-167.53h33.74l71.29,167.53H508.54z
		 M458.16,742.86l-22.1,53.94h44.2L458.16,742.86z"/>
	<path class="st0" d="M705.3,851.94c-4.6,3.65-9.62,6.77-15.09,9.39s-11.45,4.6-17.94,5.94c-6.5,1.34-13.78,2.02-21.86,2.02
		c-12.2,0-23.53-2.22-33.98-6.65c-10.46-4.43-19.49-10.49-27.09-18.18c-7.6-7.68-13.55-16.75-17.82-27.21
		c-4.28-10.46-6.42-21.62-6.42-33.51v-0.47c0-11.88,2.14-23.01,6.42-33.39c4.28-10.37,10.22-19.49,17.82-27.33
		c7.6-7.84,16.71-14.02,27.33-18.54c10.61-4.52,22.34-6.77,35.17-6.77c7.76,0,14.85,0.63,21.27,1.9c6.42,1.27,12.24,3.01,17.47,5.23
		c5.23,2.22,10.06,4.91,14.5,8.08c4.43,3.17,8.55,6.65,12.36,10.46l-23.29,26.85c-6.5-5.86-13.11-10.46-19.84-13.78
		c-6.74-3.33-14.3-4.99-22.69-4.99c-6.97,0-13.43,1.35-19.37,4.04c-5.94,2.7-11.05,6.42-15.33,11.17
		c-4.28,4.75-7.6,10.26-9.98,16.52c-2.38,6.26-3.56,12.95-3.56,20.08v0.48c0,7.13,1.19,13.86,3.56,20.2
		c2.38,6.34,5.66,11.88,9.86,16.63c4.2,4.75,9.27,8.52,15.21,11.29c5.94,2.77,12.48,4.16,19.61,4.16c9.51,0,17.54-1.74,24.12-5.23
		c6.57-3.48,13.11-8.24,19.61-14.26l23.29,23.53C714.33,844.18,709.9,848.29,705.3,851.94z"/>
	<path class="st0" d="M851.92,866.43v-66.78h-67.49v66.78h-36.6V700.09h36.6v65.83h67.49v-65.83h36.6v166.35H851.92z"/>
</g>
<polygon class="st0" points="594.96,103.82 465.33,103.82 465.33,0 413.96,0 413.96,103.82 284.78,103.82 284.78,155.18 
	413.96,155.18 413.96,466.28 465.33,466.28 465.33,155.18 594.96,155.18 "/>
<path class="st1" d="M560.78,270.89l-0.33-0.34l-0.55-0.24l-1.03-0.25l-1.15-0.33l-1.19-0.48l-0.92-0.31l-0.54-0.02l-1.43-0.39
	l-1.25-0.28l-1.06-0.36l-0.46-0.61l0.09-0.3l0.33-0.25l0.45-0.01l0.13,0.42l1.3-0.07l0.04-0.12l0.82,0.16l0.77,0.18l0.83-0.09
	l1.06,0.05l0.7,0.12l0.88,0.18l0.64,0.25l0.91,0.13l0.31-0.24l0.31-0.24l0.15-0.34l-0.09-0.46l-0.28-0.4l-0.42-0.28l-0.7-0.24
	l-1.74-0.46l-1.03-0.28l-1.33-0.33l-0.94-0.13l-1.04-0.15l-0.28-0.25l-0.8,0.04l-0.22,0.12l-0.58-0.13l-0.58-0.19l-1.13-0.19
	l-1.26-0.3l-1.2-0.37l-1.18-0.36l-0.67-0.42l-0.27-0.43l-0.02-0.59l0.1-0.42l0.31-0.52l0.8-0.84l1.1-1.19l0.89-1.04l0.54-0.94
	l0.28-0.79v-0.64l-0.18-0.55l-0.42-0.38l-0.51-0.03l-0.67,0.4l-0.46,0.55l-0.7,0.73l-0.91,1.11l-1.31,1.2l-1.1,0.84l-1.21,0.69
	l-0.85,1.21l-1.18,0.99l-2.03,1.72l-0.92,0.45l-0.98-0.02l-2.27-0.01l-3.71-0.13l-1.88-0.06l-2.34-0.12l-2.18-0.19l-1.98-0.45
	l-2.28-0.66l-2.55-0.66l-1.27-0.18l-0.33-0.97l-0.55-0.61l-0.82-0.16l-1.65-0.28l-1.06,0.09l-0.31-0.3l-0.8-0.06l-1.12,0.04
	l-0.54-0.03l-0.88-0.31l-1.01-0.22l-0.67,0.02l-1.13,0.01l-0.31,0.08l-0.04,0.36l-0.92-0.09l-0.85-0.51l-1.42-0.09l-0.91,0.09
	l-0.51-0.34l-1.88-0.51l-1.82-0.19l-1.09,0.01l-0.76-0.7l-1.24-0.87l-1.13-0.36l-1.37,0.12l-1.21,0.15l-0.24-0.09l-1.16-1.21
	l-1.79-1.65l-1.46-1.08l-2-1.23l-1.22-0.61l-1.27-0.09l-0.89,0.09l-0.63,0.16l-0.52-0.43l-1.49-1.12l-1.37-0.78l-1.09-0.58
	l-0.48-0.63l-0.22-0.64l-0.24-0.51l-0.45-0.49l-0.24-0.07l-1.03-0.09l-0.95-0.09l-0.51-0.24l-1.03-0.73l-0.91-0.57l-0.28-0.01
	l-1.15-0.84l-1.09-0.39l-0.72-0.18l-1.15,0.08l-0.34-0.09l-0.6-0.03l-1.71,0.03l-0.45-0.63l-0.55-0.39l-1-0.15l-1.4,0.04l-0.55-0.19
	l-1.27-1l-0.95-0.71l-0.87-0.27l-1.11-0.19l-0.9-0.13l-1.15,0.14l-0.94,0.09l-0.11-0.22l-0.51-0.99l-0.4-0.81l0.07-1.66l0.09-1.17
	l-0.02-1.48l-0.16-1.96l0.09-0.49l0.11,0.18l0.56,0.11l0.94-0.2l0.78-0.52l0.45-0.65l0.27-0.65l0.09-0.67l0.02-0.83l0.13-0.76
	l0.16-0.79l0.18-0.92l-0.18-1.93l-0.25-0.61l-0.34-0.31l-0.65-0.02l0.31-1.48l0.29-1.12l-0.11-1.08l0.56-0.36l-0.31-0.97l-0.36-1.37
	l0.67-0.49l0.18-0.99v-1.48l-1.05,0.47l0.6-0.65l-0.16-0.81l-0.13-0.61l-0.54,0.4l-0.96,0.27l-0.6-0.18l-0.49-0.58l-0.8-1
	l-0.43-0.31l-0.1-0.24l-0.31-0.43l-0.09-0.24l-0.1-0.84l-0.52-0.76l-0.69-0.67l-0.43-0.21l-0.07-0.39l-0.36-0.54l-0.22,0.25
	l-0.09-0.46l-0.79-0.7l-0.06,0.42l-0.54-0.39l-0.57-0.52l-0.46,0.4l-0.7-0.22l-0.52-0.45L440,202.1l-0.63-0.06l-0.36-0.6l-0.92,0.63
	l-1.53,0.33l-0.61,0.61l-0.61,0.28l-1.58,0.7l-1.51,0.96l-0.92,0.7l-0.27-0.06l-0.61,0.75l-0.91,2.08l-0.4,0.27l-1.13,1.32l-0.7,1
	l-0.66,2.37l-0.06,1.23l-0.03,2.97l0.1,1.41l0.42,1.48l0.43,0.93l-0.33-0.19h-0.54l-0.42,0.31l-0.48,0.84l0.03,1.59l0.21,1.44
	l0.2,0.57l0.03,0.75l-0.06,0.82l0.2,1.06l0.28,0.55l0.42,0.66l0.47,0.39l0.47,0.11l0.42-0.08l0.25-0.12l0.25-0.3l0.15,0.45
	l0.12,1.12l-0.04,1.47v2.45l-0.65,0.54l-0.64,0.52l-0.49,0.27l-0.34,0.45l-0.89,0.13l-0.98,0.54l-1.01,0.54l-1.36,0.11l-1.41,0.11
	l-0.63,0.2h-1.74l-0.8,0.25l-0.36,0.43c0,0-0.56,0.2-0.63,0.2c-0.07,0-0.78,0-0.78,0l-0.96,0.4h-0.89h-1.39l-1.59,0.34l-1.07,0.46
	l-0.3,0.31l-0.96,0.25l-0.73,0.2l-0.63-0.2l-1.03,0.07l-0.64,0.43l-0.48,1.12l-0.04,0.57l-0.13,0.31l-0.37,0.12l-1,0.15l-0.85,0.54
	l-0.96,0.52l-1.3,1.05l-0.69,0.97l-0.47,1.05l-0.97,0.17l-1.29,0.37l-0.77,0.19l-0.23,0.22l-0.07,0.41l0.1,0.57h-0.22l-0.61,0.12
	l-0.54,0.31l-0.74,0.61l-0.69,0.67l-0.29-0.15l-0.57-0.3l-0.92-0.43l-0.69-0.27h-0.71l-0.77,0.14l-0.63,0.37l-0.9,0.67l-0.51,0.61
	l-0.69,1.22l-0.57,0.01l-0.51-0.11l-0.71-0.11l-0.82-0.07l-0.79,0.01l-0.71,0.19l-1.44,0.49l-0.68,0.94l-0.63,0.07l-0.31-0.22h-0.39
	l-0.39-0.42l-0.19-0.24l-0.35-0.06l-0.61,0.11h-0.63l-0.96-0.02l-0.98,0.06l-0.61,0.11l-0.55,0.25h-0.8l-0.65,0.27l-0.78,0.31
	l-0.76-0.18l-0.63-0.02l-0.87,0.25l-0.8,0.04l-0.34,0.43l-0.13,0.97l-1.27,0.38l-4.74,1.37l-3.84,1.41l-3.55,0.81l-3.68,0.45
	l-4.11,0.43l-3.4,0.29l-2.17-0.02l-0.03-0.08l-0.18-0.28l-0.16-0.08l-0.19,0.02l-0.26,0.09l-0.17-0.07l-0.22-0.01l-0.23,0.07
	l-0.04,0.13l0.07,0.19l-0.1-0.12l-0.13-0.09l-0.18,0.02l-0.2,0.03l-0.03,0.2l-0.04,0.21l-0.03-0.09l-0.08-0.09l-0.07-0.08l-0.08-0.1
	l-0.25-0.01l-0.16,0.03l-0.15,0.18l-0.09-0.07l-0.13-0.09l-0.29,0.04l-0.17,0.15l-0.02,0.28l-0.42-0.07l-0.7-0.31l-1.13-0.62
	l-0.84-0.58l-1.33-0.83l-1.62-1.19l-1.13-0.73l-1.25-0.24l-0.76-0.36l-0.97-0.58l-1.49-0.87l-1.52-1l-0.77-0.89l-0.78-0.56
	l-0.38-0.21h-0.31l-0.31,0.21l-0.08,0.67l0.29,0.75l0.38,0.76l0.4,0.65l1.33,1.37l1.81,1.23l1.7,1.43l0.23,0.51l-0.12,0.43
	l-0.69,0.31l-1.15,0.61l-1.03,0.43l-1.01,0.14l-1.01,0.29l-1.23,0.63l-1.92,0.37l-1.37,0.25l-1.37,0.35l-1.5,0.6l-1.52,0.35
	l-0.87,0.28l-1.03,0.43l-0.65,0.42l-0.23,0.54l0.13,0.57l0.49,0.25l0.57,0.06l1.83-0.56l1.52-0.4l0.93-0.18l0.91,0.01l0.72-0.11
	l0.57-0.19l0.84-0.18l0.8-0.13l1.02-0.09l0.61,0.08l0.11,0.43l-0.6,0.39l-0.87,0.34l-1.2,0.34l-1.11,0.09l-1.25,0.22l-0.76,0.31
	l-1.06,0.51l-0.94,0.33l-0.83,0.25l-0.97,0.28l-1.24,0.33l-0.7,0.33l-0.29,0.58l0.06,0.74l0.44,0.37l0.56,0.12l0.95-0.17l1.06-0.42
	l0.88-0.37l1.37-0.21l1.77-0.26l1.06-0.31l0.76-0.27l0.73-0.24l1.17-0.29l0.85-0.26l0.49-0.01l0.26,0.2l0.12,0.31l-0.2,0.2
	l-0.79,0.19l-1.57,0.46l-1.45,0.4l-1.14,0.67l-1.59,0.68l-1.56,0.55l-0.67,0.28l-0.4,0.43l0.11,0.76l0.36,0.44l0.69,0.02l0.95-0.3
	l0.63-0.28l0.93-0.42l0.66-0.11l1.1-0.26l1.12-0.39l1.69-0.61l0.99-0.46l0.8-0.12l0.54,0.1l0.17,0.17l0.11,0.54l-0.1,0.4l-0.78,0.45
	l-1.22,0.7l-0.88,0.66l-0.85,0.6l-0.68,0.43l-1.15,0.69l-1.01,0.64l-0.26,0.39v0.45l0.36,0.39l0.5,0.07l0.74-0.11l1.08-0.51
	l0.7-0.46l0.87-0.46l1.42-0.67l0.82-0.55l0.58-0.44l0.61-0.25l1.18-0.69l0.83-0.2l1.14-0.2l1.24-0.24l1.55-0.22l1.93-0.29l1.8-0.52
	l1.32-0.6l1.23-0.72l0.51-0.5l0.08-0.16l0.06,0.16l0.12,0.13l0.14,0.17l0.22-0.02l0.13-0.04l0.04-0.1l0.14,0.13l0.16-0.01l0.16-0.11
	l0.07-0.1v-0.1l0.08,0.1l0.11,0.11l0.2-0.03l0.16-0.13l-0.2,0.54l0.27,0.72l0.63,0.27l0.78,0.02l0.65-0.29l0.47-0.38l0.18-0.43
	l-0.16-0.61l-0.36-0.36l-0.13-0.27l0.49,0.02l2.17,0.25l2.93,0.16l1.79-0.11l2.3,0.25l5.03,0.31l3.17,0.13l4.52-0.11l1.99-0.22
	l2.06-0.16l0.45,0.67l0.76,0.49l0.92,0.11l1.54-0.09l1.03-0.16l0.83-0.13l0.69,0.27l0.42-0.07l0.54-0.52h0.27l0.42,0.31l0.56,0.16
	l0.31-0.18l0.11-0.27l0.38,0.16l0.51,0.18l0.36-0.02l0.29-0.31l0.58-0.92l0.98,0.18l1.05,0.2l0.27,0.2l1.07,0.09l1.7-0.07l1.1-0.29
	l1.23-0.81l2.5-1.69l0.83-0.36l1.5-0.04l1.7-0.27l1.41-0.56l0.96-0.49l1.61-0.56l0.87-0.2l0.92,0.18l1.5-0.13l1.32-0.04l1.22-0.12
	l0.13,0.28l0.3,0.57l0.69,0.66l0.3,1.14l0.98,2.13l0.77,1.2l0.42,1.08l1.37,3.09l0.68,1.6l-0.07,0.7l0.31,1.48l0.36,2.2l0.74,2.34
	l0.27,2.52l0.04,2.45v3.28l0.48,3.31l0.21,1.5l0.33,1.36l0.54,1.29l0.13,1.15l0.06,1.5l0.37,2.91l0.04,1.05l-0.45,1.08l-0.66,1.68
	l-0.89,2.4l-0.69,1.86l-0.86,2.04l-0.54,3.75l-0.36,0.57l-0.43,0.55l-2.66,6.68l0.72,1.96l1.24,1.42l0.91,0.19l0.51,0.36l0.43,0.1
	l0.7,0.43l0.51,0.3l0.43,0.1l0.45,0.01l0.53,0.22l-0.01,1.44l-0.17,0.73l-0.25,2.69l-0.54,1.76l0,1.51l-0.01,3.68l-0.17,3.1
	l-0.25,4.18l-0.29,2.01l0.23,5.05l0.03,2.82l0.27,2.34l0.74,2.04l-0.06,0.83l0.07,2.37l0.41,2.26l0.24,1.24l0.09,1.18l-0.01,1.94
	l-0.19,2.26l0.08,1.27l0.27,1.24l-0.19,0.75l-1.2,0.77l-1.91,0.96l-0.83,0.64l-0.21,1l0.38,1.45l0.64,0.85l0.65,0.34l0.37,0.66
	l0.09,1.06l-0.51,0.28l-0.71,1.21l-0.22,0.95l0.05,1.62l-0.57,1.58l-0.56,1.49l-0.47,0.73l-0.16,0.54l-0.07,1.31l-0.13,5.08
	l-0.04,3.27l0.03,1.86l-0.03,2.76l-0.03,0.65l-0.02,0.56l-0.15,1.41l-0.08,2.25l-0.22,3.19l0.03,3.84l0.13,2.2l-0.75,1.34
	l-0.36,0.27l-1.05,0.8l-1.15,1.29l-0.41,0.69l-0.64,0.72l0.17,1.28l-0.36,3.02l0.48,1.64l0.43,2.31l0.1,3.17l-0.67,1.19l-0.15,0.82
	l-0.35,0.79l-0.32,0.65l-0.5,0.75l-0.2,1.2l-0.01,0.77l0.19,0.23l-0.33,0.98l-0.55,1.13l-0.89,1.51l-0.56,0.03l-1.16,0.18
	l-0.96,0.41l-0.86,0.55l-0.97,0.83l-0.81,0.81l-0.65,0.96l-0.28,1.08l-0.11,0.8L393,458.7l-0.17,0.48l0.11,1.56l0.24,2.14l0.61,0.27
	l0.67,0.32l1.28,0.3l1.53,0.18l1.88,0.35l2.75,0.14l1.14,0.02l0.15,0.69l1.14,0.29l3.4,0.08l4.29,0.17c0,0,4.05,0.13,4.05,0.04
	s2.72-0.24,2.72-0.24l0.47-0.23l0.08-0.47l-0.05-1.39l0.02-1.43l-0.04-1.83l-0.19-0.1l-0.31-0.33l-0.04-0.21l0.01-0.31l0.34-0.07
	l0.26-0.15l0.2-0.38l0-0.96l-0.02-1.87l-0.06-1.58l-0.04-0.91l-0.24-0.72l-0.21-0.49l0.25-0.3l0.46-0.78l0.35-0.94l0.04-0.48
	l0.05-0.63l0.37-0.93l0.35-1.42l0.28-0.88l0.08-1.11l0.06-0.81l0.5-1.95l0.43-1.38l0.71-1.87l0.35-1.09l-0.1-2.2l0.46-0.9l0.84-2.04
	l0.52-2.91l0.36-0.79l0.12-1.59l0.26-1.45l0.05-1.05l0.46-1.8l0.17-1.49l0.03-1.23l0.03-0.42l0.05-0.66l0.65-2.75l0.14-2.61
	l-0.1-1.42l-0.11-1.27l-0.14-0.55l-0.11-1.66l0.31-0.61l0.64-1.27l0.42-1.29l0.24-0.79l0.03-0.84l-0.15-2.36l0.01-2.04l0.33-0.56
	l0.26-0.75l0.27-1.2l0.11-1.21l0.06-1.08l-0.06-1.61l0.09-1.23l0.06-0.85l0.07-0.96l0.25-1.22l0.56-1.24l0.96-1.12l0.88-1.71
	l0.07-0.93l0.47-2.64l0.61-1.82l0.4-1.68l0.16-2.09l0.81-5.96l1.19-5.9l1.96-8.53l0.47-1.03l0.06-0.82l0.3-1.27l0.5-1.68l0.48-1.77
	l0.58-1.57l0.48-1.47l0.26-0.72l0.43-0.19l0.4-0.32l0.26,0.15l0.21,0.38l1.22,2.72l0.93,3.42l0.9,2.77l1.06,3.75l0.8,2.54l0.63,3.25
	l0.73,2.57l0.77,3.22l0.41,2.45l0.98,3.79l0.37,1.92l-0.04,1.83l0.42,1.07l0.77,1.49l1,2.03l0.69,1.53l0.68,1.75l0.31,1.26
	l0.23,1.88c0,0-0.07,2.37-0.06,2.19c0.01-0.18,0.24,1.73,0.24,1.73l0.32,0.96l0.83,1.7l0.69,1.77l-0.53,2.1l0.09,1.24l0.29,2.46
	l0.25,1.88l0.44,2.76l0.17,2.92l0.13,3.45l0.21,2.39l0.05,2.88l0.34,3.08l0.36,3.52l0.11,1.11l0.14,1.73l0.12,2.63l0.22,1.64
	l0.38,1.56l0.54,2.21l0.35,0.87l0.44,1.54l0.58,2.65l0.33,2.37l0.14,1.76l-0.01,1.76l0.02,1.33l0,0.58l0.11,0.35l0.33,0.25
	l0.68,0.31l0.52,0.41l0.15,0.67l0.07,0.76l0.05,1.91l0.14,1.54l0.36,1.11l0.33,0.84l0.31,0.47l0.41,0.36l0.14,0.57l-0.01,0.96
	l-0.1,2.7l0.14,0.73l0.4,0.5l1.13,0.3l1.66,0.05l2.32,0.09l1.76,0l1.49-0.14l3.04-0.04c-0.04,0,1.84-0.28,1.84-0.28l0.67-0.19
	l0.23-0.28l0.06-0.39l0.28,0.02l1.41-0.07l0.82-0.13l0.83-0.3l0.04-0.3l0.04-2.73l-0.12-0.19l-0.26-0.12l-0.03-0.17l0.01-0.48
	l0.26-0.12l0.16-0.36l-0.09-0.58l-0.23-0.53l-0.35-0.72l-0.6-0.96l-1.09-1.18l-0.75-0.6l-0.6-0.75l-0.25-0.43l-0.12-0.66l-0.32-0.54
	l-0.4-0.6l-0.27-0.56l-0.03-0.41l0.35-0.73l0.3-0.82l0.22-1.13l-0.1-0.88l-0.2-0.74l0.28-0.29l-0.01-0.63l-0.21-1.82l-0.27-0.8
	l0.05-0.84l0.45-0.87l0.26-1.02l0.09-0.82l-0.06-2.2l0.02-3.5l0.06-1.85l0.02-2.27l0.21-1.77l0.03-1.85l-0.24-0.95l-0.16-1.25
	l-0.35-1.89l-0.74-2.72l-0.22-1.21l-0.22-1.46l-0.08-1.68l-0.22-1.01l-0.34-1.24l-0.2-1.87l0.06-3l-0.19-2.68l-0.26-2.11l-0.29-2.67
	l-0.26-1.36l-0.29-1.11l-0.27-1.77l-0.17-1.53l-0.1-1.12l-0.02-0.98l-0.2-1.96l-0.3-0.59l-0.71-0.75l-0.33-0.36l-0.05-0.76
	l-0.2-0.59l-0.26-0.58l0.14-0.53l0.35-0.33l0.35-0.35l0.11-1.04l-0.06-1.01l-0.16-0.82l-0.72-1.21l-0.1-0.46l0.21-0.18l0.07-0.33
	l-0.66-1.16l-0.52-0.97l-0.43-1.22l-0.03-1.01l-0.09-1.25l-0.07-1.42l-0.04-2.44l-0.11-1.39l-0.12-1.66l-0.24-1.35l-0.38-1.53
	l-0.32-1.05l-0.41-1.54l-0.24-1.19l-0.25-0.68l-0.06-0.87l0.05-0.64l0.25-1.58l0.09-1.85l0.01-1.27l0.01-1.18l-0.27-1.39l-0.11-0.75
	l-0.1-1.45l-0.01-0.81l-0.02-0.82l0.06-0.48l0.21-1.35l0.12-0.92l0.05-0.81l-0.1-1.12l-0.09-0.59l-0.17-0.89l0.38-0.17l0.44-0.24
	l0.49-0.35l0.4-0.29l0.04-0.23l-0.06-0.33l-0.31-0.59l-0.44-0.69l-0.26-0.44l-0.18-0.57l-0.1-0.67l-0.06-1.04l-0.12-0.82l-0.1-1.03
	l-0.02-0.74l-0.08-0.89l-0.09-0.74l-0.05-0.17l2.88-0.14l3.96-4.24l0.55-1.38l-0.36-2.02l-1.4-2.17c-1-1.5-2-2.99-3-4.49
	c-0.75-1.85-2.05-4.84-2.79-6.7c-0.2-1.06-0.23-3.03-0.45-4.18l-1.79-2.45l1.55-8.65l-0.44-3.88l-0.62-3.63l0.23-2.84l0.79-1.94
	l0.98-3.48l-0.65-1.06l0.8-4.74l0.07-1.66l0.41-1.03l0.45-0.68l0.35-0.55l0.67-0.74l0.42-0.29l0.54-0.52l0.58-0.29l0.78,0.12h1.06
	l0.92,0.34l1.01,0.15l1.64-0.06l1.82,0.75l2.56-0.07l0.67-0.13l0.56,0.18h1.07h0.54l0.51,0.52l0.58,0.11l1.07,0.05l1.01-0.16
	l0.69,0.36l1.14,0.54l1.54,0.97l0.8,0.31l0.98,0.25l0.87,0.11l1.14-0.07l1.07-0.2l1.01-0.25l0.51,0.85l0.38,0.49l0.58,0.47
	l0.72,0.31l0.89,0.18l0.54,0.09l0.92-0.09l-0.16,0.27v0.36l0.11,0.45h0.85l0.36-0.25l0.36-0.31h0.31h0.47h0.58h0.2l0.25-0.34
	l0.42,0.07l0.74,0.11h0.65l0.22-0.29h1.14l2.66-0.31l0.47-0.65h2.62l4.93-0.34l8.82-0.72l6.44-0.84l0.48,0.11l0.84,0.27l1.02,0.82
	l1.2,0.84l1.79,0.66l2.08,0.4l2.96,0.27l1.02,0.16l0.83,0.19l3.14,1.62l1.13,0.63l0.76,0.22l0.52-0.13l0.27-0.4l0.13-0.49
	l-0.34-0.54l-0.72-0.4l-0.92-0.48l-0.75-0.58l-0.49-0.51l-1.01-0.54l-0.61-0.13l-0.18-0.57l0.18-0.25l0.89-0.04l1.16,0.43l1.85,0.99
	l0.69,0.09l0.97,0.33l0.82,0.27l1,0.63l0.72-0.1l0.6-0.34l0.15-0.64l-0.19-0.66l-0.39-0.27l-0.63-0.02l-0.72-0.31l-0.92-0.58
	l-1.18-0.7l-0.77-0.19l-1.42-0.37l-0.7-0.31l-0.3-0.39l0.1-0.24h0.88l1.25,0.26l1.31,0.51l0.69,0.37l1.39,0.11l1.07,0.22l1.43,0.28
	l0.92,0.45l0.67-0.15l0.49-0.34l0.18-0.57L560.78,270.89z M342.94,271.76c0.11,0.45-0.79,1.03-0.99,0.82
	c-0.11-0.12-1.31,0.42-1.3-0.59c0-0.22,0.47-0.72,1.06-0.95C342.59,270.71,342.87,271.44,342.94,271.76z"/>
</svg>
