<?xml version="1.0" encoding="utf-8"?>
<!-- Generator: Adobe Illustrator 24.1.1, SVG Export Plug-In . SVG Version: 6.00 Build 0)  -->
<svg version="1.1" id="CORES_1" xmlns="http://www.w3.org/2000/svg" xmlns:xlink="http://www.w3.org/1999/xlink" x="0px" y="0px"
	 viewBox="0 0 300.9 149.2" style="enable-background:new 0 0 300.9 149.2;" xml:space="preserve">
<style type="text/css">
	.st0{fill:#E5E5E4;}
	.st1{fill:#B99053;}
</style>
<g id="CALDÉLICA">
	<path class="st0" d="M45.9,89c0.5,0.2,0.6,0.4,0.7,1.1l0.6,6.4c0,0.2-0.4,0.3-0.6,0c-1.6-5.2-5-8.2-9.9-8.2
		c-7.1,0-12.2,5.6-12.2,14.6s5.4,15,12.6,15c4.8,0,7.7-2.5,10.1-7.8c0-0.2,0.5-0.1,0.5,0L47,116c-0.1,0.8-0.1,0.8-0.7,1.1
		c-2.9,1.2-6.1,1.8-9.3,1.8c-10.4,0-17.9-6.4-17.9-15.7s7.8-15.8,18.1-15.8C40.2,87.4,43.1,87.9,45.9,89z"/>
	<path class="st0" d="M84.4,118.3c-1.9,0-4-0.2-5.9-0.2c-2.2,0-3.5,0.2-5.4,0.2c-0.3,0-0.3-0.6,0-0.6c2.9,0,3.4-0.8,1.9-3.8
		l-3.7-7.5H59.5l-2.3,5.2c-1.7,3.9,0.1,6.1,4,6.1c0.3,0,0.3,0.6,0,0.6c-1.9,0-3.3-0.2-5.7-0.2s-3.5,0.2-5.6,0.2
		c-0.3,0-0.3-0.6,0-0.6c2.6,0,3.8-1.3,6.2-6.6l10.4-23.5c0.1-0.2,0.7-0.2,0.8,0l11.9,24c2.3,4.7,3.5,6.1,5.3,6.1
		C84.7,117.7,84.7,118.3,84.4,118.3z M70.7,105.2l-5.6-11.3l-5,11.3H70.7z"/>
	<path class="st0" d="M94.3,114.2c0,2.5,0.4,2.9,3.1,2.9h2.9c4.3,0.2,8.2-2.8,9-7.1c0.1-0.2,0.5-0.2,0.5,0c-0.2,2-0.4,5.2-0.4,7.6
		c0,0.5-0.1,0.7-0.7,0.7H85.9c-0.1,0-0.1-0.6,0-0.6c3.2,0,3.7-0.5,3.7-3.3V91.9c0-2.8-0.5-3.3-3.7-3.3c-0.1,0-0.1-0.6,0-0.6
		c1.6,0,3.7,0.2,6,0.2s4.4-0.2,6-0.2c0.2,0,0.2,0.6,0,0.6c-3.2,0-3.6,0.6-3.6,3.4L94.3,114.2z"/>
	<path class="st0" d="M118.2,118.2c-2.2,0-4.4,0.1-6,0.1c-0.1,0-0.1-0.6,0-0.6c3.1,0,3.7-0.5,3.7-3.3V91.9c0-2.8-0.5-3.3-3.7-3.3
		c-0.1,0-0.1-0.6,0-0.6c1.7,0,3.7,0.2,6,0.2s5.3-0.3,7.2-0.3c10.1,0,16.9,6.4,16.9,14.8c0,9.7-7.4,15.9-16.2,15.9
		C124.1,118.5,120.7,118.2,118.2,118.2z M137.1,103.7c0-8.3-4.3-14.9-11.2-14.9c-3.8,0-5.3,0.4-5.3,3.2v21.8c0,2.5,0.9,3.7,5,3.7
		C132.3,117.5,137.1,112.7,137.1,103.7z"/>
	<path class="st0" d="M168.9,110.8c-0.3,2.2-0.4,4.5-0.5,6.8c0,0.5-0.1,0.7-0.7,0.7h-21.1c-0.2,0-0.2-0.6,0-0.6
		c3.2,0,3.7-0.5,3.7-3.3V91.9c0-2.8-0.5-3.3-3.7-3.3c-0.2,0-0.2-0.6,0-0.6h20.2c0.4,0,0.5,0.2,0.5,0.4l0.1,6.3c0,0.1-0.5,0.2-0.6,0
		c-0.8-3.7-3-5.5-6.7-5.5h-1.9c-2.4,0-3.2,0.8-3.2,2.8v9.9h4.7c3.6,0,5.3-1.3,5.3-3.6c0-0.2,0.5-0.2,0.5,0c0,2.1,0,3,0,4.2
		c0,1.6,0.1,3,0.1,4.8c0,0.1-0.6,0.1-0.6,0c0-2.7-1.8-4.2-5.4-4.2H155v11c0,2.1,0.7,2.9,2.8,2.9h2.4c4.4,0,7.1-2.1,8.3-6.3
		C168.4,110.6,168.9,110.7,168.9,110.8z M154,84.8c2.6-1.6,4.6-3.4,6.7-4.9c0.5-0.4,5.4,1.5,4.3,1.7c-3.7,0.9-7.3,2.2-10.8,3.7
		C154,85.5,153.9,85,154,84.8L154,84.8z"/>
	<path class="st0" d="M181.1,114.2c0,2.5,0.4,2.9,3.1,2.9h2.9c4.3,0.2,8.2-2.8,9-7.1c0-0.2,0.5-0.2,0.5,0c-0.2,2-0.4,5.2-0.4,7.6
		c0,0.5-0.1,0.7-0.7,0.7h-22.7c-0.1,0-0.1-0.6,0-0.6c3.1,0,3.7-0.5,3.7-3.3V91.9c0-2.8-0.5-3.3-3.7-3.3c-0.1,0-0.1-0.6,0-0.6
		c1.5,0,3.7,0.2,6,0.2s4.4-0.2,6-0.2c0.2,0,0.2,0.6,0,0.6c-3.2,0-3.6,0.6-3.6,3.4L181.1,114.2z"/>
	<path class="st0" d="M211.7,117.7c0.2,0,0.2,0.6,0,0.6c-1.7,0-3.6-0.1-6.1-0.1s-4.4,0.1-6,0.1c-0.2,0-0.2-0.6,0-0.6
		c3.1,0,3.7-0.5,3.7-3.3V91.9c0-2.8-0.6-3.3-3.7-3.3c-0.2,0-0.2-0.6,0-0.6c1.6,0,3.7,0.2,6,0.2s4.5-0.2,6.1-0.2c0.2,0,0.2,0.6,0,0.6
		c-3.2,0-3.6,0.7-3.6,3.4v22.4C208,117.2,208.5,117.7,211.7,117.7z"/>
	<path class="st0" d="M243.1,89c0.5,0.2,0.6,0.4,0.7,1.1l0.6,6.4c0,0.2-0.4,0.3-0.6,0c-1.6-5.2-5-8.2-10-8.2
		c-7.1,0-12.2,5.6-12.2,14.6s5.4,15,12.6,15c4.8,0,7.7-2.5,10-7.8c0-0.2,0.5-0.1,0.5,0l-0.6,5.8c-0.1,0.8-0.1,0.8-0.7,1.1
		c-2.9,1.2-6.1,1.8-9.3,1.8c-10.4,0-17.9-6.4-17.9-15.7s7.8-15.8,18.1-15.8C237.3,87.3,240.3,87.9,243.1,89z"/>
	<path class="st0" d="M281.5,118.3c-1.9,0-4-0.2-5.9-0.2c-2.2,0-3.5,0.2-5.4,0.2c-0.3,0-0.3-0.6,0-0.6c2.9,0,3.4-0.8,1.9-3.8
		l-3.7-7.5h-11.7l-2.3,5.2c-1.7,3.9,0.1,6.1,4,6.1c0.3,0,0.3,0.6,0,0.6c-1.9,0-3.3-0.2-5.7-0.2s-3.5,0.2-5.6,0.2
		c-0.3,0-0.3-0.6,0-0.6c2.6,0,3.8-1.3,6.2-6.6l10.4-23.5c0.1-0.2,0.7-0.2,0.8,0l11.9,24c2.3,4.7,3.5,6.1,5.3,6.1
		C281.8,117.7,281.8,118.3,281.5,118.3z M267.8,105.2l-5.6-11.3l-5,11.3H267.8z"/>
</g>
<g id="ESCOLA_DE_CANTO">
	<path class="st0" d="M32.8,144.2c-0.2,1.4-0.3,2.7-0.3,4.1c0,0.3-0.1,0.4-0.4,0.4H19.2c-0.1,0-0.1-0.4,0-0.4c1.9,0,2.2-0.3,2.2-2
		v-13.7c0-1.7-0.3-2-2.2-2c-0.1,0-0.1-0.4,0-0.4h12.3c0.2,0,0.3,0.1,0.3,0.3l0.1,3.8c0,0.1-0.3,0.1-0.4,0c-0.2-2-2-3.5-4.1-3.4h-1.2
		c-1.4,0-1.9,0.5-1.9,1.7v6h2.8c2.2,0,3.3-0.8,3.3-2.2c0-0.1,0.3-0.1,0.3,0c0,1.3,0,1.8,0,2.6c0,1,0.1,1.8,0.1,2.9
		c0,0.1-0.4,0.1-0.4,0c0-1.7-1.1-2.5-3.3-2.5h-2.8v6.7c0,1.3,0.4,1.7,1.7,1.7h1.4c2.4,0.2,4.6-1.5,5-3.8
		C32.5,144,32.8,144.1,32.8,144.2z"/>
	<path class="st0" d="M43.1,138.3c2.2,1.4,4.5,2.8,4.5,5.6c0,3-2.5,5.2-6.3,5.2c-1.6,0-3.2-0.4-4.6-1.1c-0.2-0.1-0.3-0.3-0.3-0.6
		l-0.2-4.5c0-0.2,0.3-0.2,0.3-0.1c1,2.4,2.5,5.6,5.4,5.6c1.5,0.2,2.8-0.9,3-2.4c0-0.2,0-0.4,0-0.6c0-2.8-2.2-4.1-4.3-5.5
		s-4.1-2.6-4.1-5.3c0-3.2,3.1-4.7,6-4.7c1.3,0,2.5,0.2,3.7,0.7c0.4,0.1,0.4,0.3,0.4,0.6l0.1,4c0,0.1-0.3,0.2-0.4,0.1
		c-0.4-1.2-1.5-4.7-4.5-4.7c-1.5-0.1-2.8,1-2.9,2.4c0,0.1,0,0.3,0,0.4C39,135.7,41,137,43.1,138.3z"/>
	<path class="st0" d="M66.9,130.9c0.3,0.1,0.4,0.2,0.4,0.7l0.4,3.9c0,0.1-0.3,0.2-0.4,0c-1-3.2-3-4.9-6-4.9c-4.3,0-7.4,3.4-7.4,8.9
		s3.3,9.1,7.7,9.1c2.9,0,4.7-1.5,6.1-4.8c0-0.1,0.3-0.1,0.3,0l-0.4,3.5c-0.1,0.5-0.1,0.5-0.4,0.6c-1.8,0.7-3.7,1.1-5.6,1.1
		c-6.4,0-10.9-3.9-10.9-9.5s4.8-9.6,11-9.6C63.4,129.8,65.2,130.2,66.9,130.9z"/>
	<path class="st0" d="M70.7,139.5c0-6.4,5.6-9.6,10.4-9.6c5.1-0.1,9.2,4,9.3,9c0,0.1,0,0.2,0,0.3c0,5.5-4.8,9.8-10.4,9.8
		S70.7,144.7,70.7,139.5z M87.3,140.1c0-5.5-2.8-9.4-7.4-9.4c-3.8,0-6,2.9-6,7.7c0,5.7,3,9.9,7.2,9.9
		C84.6,148.4,87.3,145.4,87.3,140.1z"/>
	<path class="st0" d="M97.9,146.2c0,1.5,0.3,1.7,1.9,1.7h1.8c2.6,0.1,4.9-1.7,5.5-4.3c0-0.1,0.3-0.1,0.3,0c-0.1,1.2-0.3,3.2-0.3,4.6
		c0,0.3-0.1,0.4-0.4,0.4H92.8c-0.1,0-0.1-0.4,0-0.4c1.9,0,2.3-0.3,2.3-2v-13.7c0-1.7-0.3-2-2.3-2c-0.1,0-0.1-0.4,0-0.4
		c0.9,0,2.3,0.1,3.6,0.1s2.7-0.1,3.7-0.1c0.1,0,0.1,0.4,0,0.4c-1.9,0-2.2,0.4-2.2,2.1V146.2z"/>
	<path class="st0" d="M128.8,148.7c-1.1,0-2.4-0.1-3.6-0.1c-1.3,0-2.1,0.1-3.3,0.1c-0.2,0-0.2-0.4,0-0.4c1.8,0,2.1-0.5,1.2-2.3
		l-2.3-4.5h-7.1l-1.4,3.2c-1,2.4,0.1,3.7,2.4,3.7c0.2,0,0.2,0.4,0,0.4c-1.2,0-2-0.1-3.5-0.1s-2.1,0.1-3.4,0.1c-0.2,0-0.2-0.4,0-0.4
		c1.6,0,2.3-0.8,3.8-4l6.3-14.3c0.1-0.1,0.4-0.1,0.5,0l7.2,14.6c1.4,2.9,2.2,3.7,3.2,3.7C129,148.4,129,148.7,128.8,148.7z
		 M120.5,140.7l-3.4-6.9l-3.1,6.9H120.5z"/>
	<path class="st0" d="M140.3,148.6c-1.4,0-2.6,0.1-3.7,0.1c-0.1,0-0.1-0.4,0-0.4c1.9,0,2.3-0.3,2.3-2v-13.7c0-1.7-0.3-2-2.3-2
		c-0.1,0-0.1-0.4,0-0.4c1,0,2.3,0.1,3.6,0.1s3.2-0.1,4.4-0.1c6.2,0,10.2,3.9,10.2,9c0,5.9-4.5,9.6-9.8,9.6
		C143.9,148.8,141.9,148.6,140.3,148.6z M151.8,139.8c0-5-2.6-9-6.8-9c-2.3,0-3.2,0.3-3.2,1.9V146c0,1.5,0.5,2.2,3,2.2
		C148.9,148.2,151.8,145.3,151.8,139.8L151.8,139.8z"/>
	<path class="st0" d="M171.2,144.2c-0.2,1.4-0.3,2.7-0.3,4.1c0,0.3-0.1,0.4-0.4,0.4h-12.8c-0.1,0-0.1-0.4,0-0.4c1.9,0,2.2-0.3,2.2-2
		v-13.7c0-1.7-0.3-2-2.2-2c-0.1,0-0.1-0.4,0-0.4h12.3c0.2,0,0.3,0.1,0.3,0.3l0.1,3.8c0,0.1-0.3,0.1-0.4,0c-0.2-2-2-3.5-4.1-3.4h-1.2
		c-1.4,0-1.9,0.5-1.9,1.7v6h2.9c2.2,0,3.3-0.8,3.3-2.2c0-0.1,0.3-0.1,0.3,0c0,1.3,0,1.8,0,2.6c0,1,0.1,1.8,0.1,2.9
		c0,0.1-0.4,0.1-0.4,0c0-1.7-1.1-2.5-3.3-2.5h-2.8v6.7c0,1.3,0.4,1.7,1.7,1.7h1.5c2.4,0.2,4.6-1.5,5-3.8
		C170.9,144,171.2,144.1,171.2,144.2z"/>
	<path class="st0" d="M197.2,130.9c0.3,0.1,0.4,0.2,0.4,0.7l0.4,3.9c0,0.1-0.3,0.2-0.4,0c-1-3.2-3-4.9-6-4.9c-4.3,0-7.4,3.4-7.4,8.9
		s3.3,9.1,7.7,9.1c2.9,0,4.7-1.5,6.1-4.8c0-0.1,0.3-0.1,0.3,0l-0.4,3.5c-0.1,0.5-0.1,0.5-0.4,0.6c-1.8,0.7-3.7,1.1-5.6,1.1
		c-6.4,0-10.9-3.9-10.9-9.5s4.8-9.6,11-9.6C193.7,129.8,195.5,130.2,197.2,130.9z"/>
	<path class="st0" d="M220.6,148.7c-1.1,0-2.5-0.1-3.6-0.1c-1.3,0-2.1,0.1-3.3,0.1c-0.2,0-0.2-0.4,0-0.4c1.8,0,2.1-0.5,1.1-2.3
		l-2.2-4.5h-7.1l-1.4,3.2c-1,2.4,0.1,3.7,2.4,3.7c0.2,0,0.2,0.4,0,0.4c-1.2,0-2-0.1-3.5-0.1s-2.2,0.1-3.4,0.1c-0.2,0-0.2-0.4,0-0.4
		c1.6,0,2.3-0.8,3.8-4l6.4-14.3c0.1-0.1,0.4-0.1,0.5,0l7.2,14.6c1.4,2.9,2.1,3.7,3.2,3.7C220.8,148.4,220.8,148.7,220.6,148.7z
		 M212.2,140.7l-3.4-6.9l-3.1,6.9H212.2z"/>
	<path class="st0" d="M241.8,130.6c-1.6,0-2.5,1.2-2.5,3.2v15.3c0,0.1-0.3,0.1-0.4,0.1l-13.9-16.1v12c0,2.1,0.9,3.2,2.4,3.2
		c0.1,0,0.1,0.4,0,0.4c-0.8,0-1.7-0.1-2.8-0.1s-2.2,0.1-3.1,0.1c-0.1,0-0.1-0.4,0-0.4c1.7,0,2.7-1.1,2.7-3.2v-12.9
		c-1.1-1.2-2-1.6-2.9-1.6c-0.1,0-0.1-0.4,0-0.4c0.7,0,1.6,0.1,2.3,0.1c1.2,0,2.2-0.1,2.7-0.1s0.5,0.4,1.4,1.5l10.6,12.5v-10.4
		c0-2.1-0.8-3.2-2.4-3.2c-0.1,0-0.1-0.4,0-0.4c0.8,0,1.7,0.1,2.8,0.1s2.1-0.1,2.9-0.1C241.9,130.3,241.9,130.6,241.8,130.6z"/>
	<path class="st0" d="M243.7,135.3c0,0.1-0.3,0.1-0.3,0c0.1-1.1,0.4-4.3,0.4-5.7c0-0.2,0.3-0.2,0.3,0c0,0.6,1.1,0.6,1.7,0.6
		c1.7,0.1,3.7,0.1,5.9,0.1c2.8,0,4.2-0.1,5.7-0.1s2.1-0.1,2.3-0.7c0-0.1,0.3-0.1,0.3,0c-0.1,1.3-0.3,4.8-0.3,5.8
		c0,0.1-0.3,0.1-0.4,0c-0.4-3.1-1.9-4.4-4.3-4.4c-1.6,0-1.9,0.3-1.9,1.8v13.6c0,1.7,0.3,2,2.6,2c0.1,0,0.1,0.4,0,0.4
		c-1.1,0-2.4-0.1-4-0.1s-2.9,0.1-4,0.1c-0.1,0-0.1-0.4,0-0.4c2.2,0,2.6-0.3,2.6-2v-13.7c0-1.4-0.3-1.8-1.9-1.8
		C246,130.9,244.5,132.4,243.7,135.3z"/>
	<path class="st0" d="M262.1,139.5c0-6.4,5.6-9.6,10.4-9.6c5.1-0.1,9.2,4,9.3,9c0,0.1,0,0.2,0,0.3c0,5.5-4.8,9.8-10.4,9.8
		S262.1,144.7,262.1,139.5z M278.6,140.1c0-5.5-2.8-9.4-7.4-9.4c-3.8,0-6,2.9-6,7.7c0,5.7,3,9.9,7.2,9.9
		C275.9,148.4,278.6,145.4,278.6,140.1z"/>
</g>
<g id="LOGO">
	<path class="st1" d="M200.5,9.8c-0.4,1.3-1,2.5-1.8,3.5c-3.5,5.6-8.1,10.4-13.5,14.1c-4.7,3-10,4.9-15.5,5.6
		c-3.9,0.6-7.9,0.6-11.9,0.1c0,0,0,0,0,0c-1.5-0.2-2.9-0.4-4.3-0.8c-0.9-0.3-2.8-0.9-3.6-1.1l-1.2-0.3c-2-0.5-3.9-1-5.9-1.5
		c-0.7-0.2-1.5-0.4-2.2-0.5c-2.9-0.7-5.8-1.1-8.8-1.3c-2.5-0.1-5.1,0-7.6,0.5l-0.7,0.1c-2.2,0.5-4.3,1.2-6.3,2.2
		c-3.6,1.8-6.6,4.8-8.4,8.4c-4.1,8-2.7,17.6,3.5,24.1c0.2,0.2,0.3,0.4,0.5,0.5c0,0,0,0.1,0.1,0.1c0.9,0.9,1.8,1.7,2.9,2.3l1.1,0.6
		c0.6,0.2,1.1,0.4,1.7,0.6l0.5,0.2c1,0.3,2.1,0.5,3.1,0.5h1.4c0.8,0,1.7-0.1,2.5-0.3c1-0.2,2-0.5,3-0.9c5.1-2.1,8.3-7.2,8.1-12.7
		v-0.4c-0.1-1.5-0.5-3-1.1-4.4c-0.5-1.3-1.3-2.4-2.4-3.2c-0.3-0.3-0.6-0.5-0.8-0.7c-0.3-0.2-0.6-0.4-0.9-0.6
		c-2.2-1.3-4.8-1.8-7.4-1.5c-4.2,0.5-7.3,3-8.3,6.8c-0.3,1.4-0.4,2.9-0.4,4.4c0,0.6-0.1,1.2-0.8,1.2c-0.1,0-0.2,0-0.3,0
		c-0.5-0.1-0.7-0.5-0.8-1c-0.1-0.6-0.1-1.3-0.2-1.9c-0.1-5.1,2.2-9.9,6.2-13c1.2-1,2.6-1.7,4.1-2.2c0.4-0.2,0.9-0.3,1.3-0.4
		c1.3-0.3,2.7-0.5,4-0.6h0.8h0.1c0.1,0,0.2,0,0.4,0c1.5,0.1,3,0.3,4.5,0.8c0.4,0.1,0.7,0.2,1.1,0.4l0.5,0.2c0.2,0.1,0.3,0.1,0.5,0.2
		c2.9,1.4,5.3,3.6,6.9,6.4l0,0c0.1,0.1,0.1,0.3,0.2,0.4s0.1,0.2,0.2,0.3s0.2,0.4,0.3,0.5c0.1,0.2,0.2,0.4,0.3,0.6
		c1.7,3.6,1.9,7.7,0.6,11.4c-0.4,1.2-0.9,2.3-1.6,3.3c-3.5,6.3-10,10.2-17.2,10.3h-0.6c-1.1,0-2.2-0.1-3.4-0.3l-1.4-0.2
		c-4-0.9-7.8-2.8-10.8-5.5l-0.1-0.1c-4.3-4.2-6.8-9.9-6.8-15.9c0-1.7,0.1-3.3,0.3-5c1-6.7,4.4-12.8,9.4-17.3
		c0.8-0.7,1.6-1.4,2.4-2.1c2.5-1.9,5.3-3.4,8.3-4.4c2.4-0.8,4.8-1.2,7.3-1.4c1.9-0.2,3.7-0.2,5.6-0.1c4.4,0.2,8.8,0.8,13.2,1.7
		c2.8,0.5,5.5,1.1,8.2,1.8l2.3,0.6c0.4,0.1,2.5,0.7,2.7,0.7c2.8,0.5,5.6,1.2,8.4,1.5c2.1,0.2,4.2,0.2,6.3,0c2.9-0.3,5.8-1.1,8.4-2.4
		l0.3-0.1C192.7,20,197.6,15.5,200.5,9.8z"/>
	<circle class="st1" cx="172.6" cy="4.9" r="4.9"/>
</g>
</svg>
