<?xml version="1.0" encoding="utf-8"?>
<!-- Generator: Adobe Illustrator 26.0.0, SVG Export Plug-In . SVG Version: 6.00 Build 0)  -->
<svg version="1.1" id="logo" xmlns="http://www.w3.org/2000/svg" xmlns:xlink="http://www.w3.org/1999/xlink" x="0px" y="0px"
	 viewBox="0 0 730.76 196.38" style="enable-background:new 0 0 730.76 196.38;" xml:space="preserve">
<style type="text/css">
	.st0{fill:#FDFAF1;}
</style>
<g>
	<path class="st0" d="M3.01,188.36c-2.39-1.91-2.63-4.55-2.87-7.42C-0.34,163.46,0.61,65.1,0.61,64.14
		C0.37,55.53,0.37,44.76,0.37,35.9c0-6.46,1.2-9.57,7.66-10.53h48.11c24.41,0,21.54,17.71,21.54,43.32
		c-0.24,5.98,0.24,12.21-4.79,16.04c-1.2,1.2-8.62,1.91-9.09,2.15c-0.48,0.48,13.88,0,14.36,12.45c1.2,5.74,1.2,21.06,1.68,27.04
		c0.72,11.73,2.15,51.7-2.63,54.33c-6.22,8.14-11.49,13.88-22.98,14.84c-9.09,0.48-21.54,0.96-31.11,0.72
		C15.69,196.01,9.23,192.18,3.01,188.36z M25.98,182.37h14.36c7.42-0.48,14.84-7.18,14.84-14.12c-0.24-10.77,0-52.65-1.91-63.18
		c-0.48-2.63-0.72-5.74-1.2-8.38c-0.72-3.83-5.03-4.79-8.86-4.79c-3.35,0.24-9.09,0.24-12.45,0.24c-4.31-0.24-5.5,0.48-5.74,4.79
		c-0.48,10.53-0.96,21.78-0.48,32.55C24.79,138.81,25.26,173.28,25.98,182.37z M48.24,76.59c3.11,0,5.74-1.91,6.46-4.31
		c0.72-7.42-0.48-14.36,0.24-22.98c-0.72-9.81-4.07-10.77-8.38-11.73c-6.46-1.91-14.36-1.44-19.86,0c-0.24,6.46,0.24,33.75,0,39.97
		C34.84,77.07,41.54,76.83,48.24,76.59z"/>
	<path class="st0" d="M120.52,195.06c-7.42-0.24-14.36-4.31-20.58-9.09c-3.59-2.87-4.31-7.9-5.27-12.45
		c-3.11-19.86-1.91-126.13,0.48-129c4.55-4.79,4.07-11.01,9.81-14.12c5.74-2.87,12.45-3.35,18.91-4.79
		c5.03-0.72,14.36-0.96,19.15-0.24c5.03,1.2,20.1,8.14,23.45,12.92c7.66,11.01,5.03,129.96,3.59,136.18
		c-2.39,12.21-12.92,20.58-23.45,20.82C137.99,195.54,129.13,195.3,120.52,195.06z M120.52,167.29c0.72,7.42,6.46,12.68,12.68,12.68
		c9.33,0,14.6-2.39,15.08-11.73v-1.68c-0.24-8.86-1.91-51.94-1.68-67.49c0-13.88,0.72-27.52-1.44-41.4
		c-1.44-9.09-4.79-11.73-15.8-13.16c-7.42-0.48-10.77,13.64-10.29,22.02C119.8,83.29,120.04,161.55,120.52,167.29z"/>
	<path class="st0" d="M189.92,195.06c-1.68,0-2.87-0.72-4.79-0.96c0-4.31,0-8.14-0.24-12.21c-0.24-6.7,0.48-122.78,0.24-134.51
		c0-2.15,0-14.84,1.68-16.75c2.63-2.63,7.18-4.31,11.01-5.27c8.62,0.72,19.39-0.24,29.2-0.24c5.03,0.24,10.29,0.72,14.36,0.48
		c6.22-0.24,7.18,2.63,10.53,7.18c5.03,7.42,5.27,17.23,6.22,25.85c0.72,5.27,0,18.43-3.59,20.58c-3.11,1.68-6.46,3.59-10.29,5.5
		c11.97,7.18,9.81,32.07,10.53,46.19c0.48,8.86-0.24,42.6,0.72,47.15c1.44,7.42,1.68,6.7,8.86,7.9c0.96,0.24,1.2,0,2.15,0.24
		c4.79,1.44,5.5-0.24,4.55,5.03c-0.48,0.96-1.2,3.83-1.91,3.59c-4.79,0.72-6.22,0.72-11.49,0.48c-8.86,0.24-18.43,0.96-22.74-3.35
		c-2.15-1.91-1.68-2.87-2.87-5.5c-0.96-2.87-2.63-80.42-2.87-86.16v-1.2c-3.35-11.49-5.27-9.57-18.67-9.33
		c0.96,10.05,0.24,61.51,0,76.83c0,7.42-0.24,14.12,0,21.78c0,6.22-0.96,7.18-7.18,7.18C198.3,195.54,194.71,195.3,189.92,195.06z
		 M209.55,78.26h1.91c0.96,0,0.24-0.24,1.2,0c6.22,0,21.06,0.72,21.06-3.35c-0.48-3.59,0.96-23.93-1.44-29.68
		c-1.91-5.03-1.2-8.14-6.46-7.42c-2.39,0-2.15-0.48-4.79,0c-3.83,0-7.9,0.24-11.97,0.48C209.31,51.46,209.55,66.3,209.55,78.26z"/>
	<path class="st0" d="M305.28,195.06c-7.42-0.24-14.36-4.31-20.58-9.09c-3.59-2.87-4.31-7.9-5.27-12.45
		c-3.11-19.86-1.91-126.13,0.48-129c4.55-4.79,4.07-11.01,9.81-14.12c5.74-2.87,12.45-3.35,18.91-4.79
		c5.03-0.72,14.36-0.96,19.15-0.24c5.03,1.2,20.1,8.14,23.46,12.92c7.66,11.01,5.03,129.96,3.59,136.18
		c-2.39,12.21-12.92,20.58-23.46,20.82C322.75,195.54,313.9,195.3,305.28,195.06z M305.28,167.29c0.72,7.42,6.46,12.68,12.68,12.68
		c9.33,0,14.6-2.39,15.08-11.73v-1.68c-0.24-8.86-1.91-51.94-1.68-67.49c0-13.88,0.72-27.52-1.44-41.4
		c-1.44-9.09-4.79-11.73-15.8-13.16c-7.42-0.48-10.77,13.64-10.29,22.02C304.56,83.29,304.8,161.55,305.28,167.29z"/>
	<path class="st0" d="M376.6,187.4c-3.35-2.15-5.03-5.03-5.27-9.09c-0.48-7.42,0.72-120.38,0-125.65
		c-0.72-7.66-0.24-13.88,3.11-19.63c0.48-1.68,2.87-5.5,4.79-5.74c7.42-1.91,14.84-3.83,22.5-2.87c7.66,0.96,17.95-0.24,25.37,0
		c5.03,0.48,10.05-0.24,15.32,0.24c4.79,0.48,6.7,5.74,7.18,10.05c0,6.22-0.48,12.68-0.96,18.91c-0.96,5.03-18.67,2.87-20.58,1.91
		c-3.35-1.44,0.96-14.84-2.39-17.95c-5.74-0.96-15.08-0.72-23.22-0.48c-1.2,0-5.03,1.91-5.5,3.11c-1.2,3.35-0.24,11.25-0.48,14.6
		l-0.72,55.29c0.72,21.3-0.24,39.25,1.91,60.31c0.72,7.42,2.87,9.57,10.29,10.53c12.45,1.44,22.5-1.2,20.58-15.8
		c1.2-13.4,0-67.25-0.48-74.91c-0.24-3.35-8.38-1.2-12.21-2.39c-3.11-1.2-4.79-9.57-0.48-11.01c11.49,0,11.49-0.48,21.78-0.24
		c2.39,0.24,4.31,0.48,6.46,1.2c5.98,2.39,6.46,3.11,6.22,9.81c0,5.74-0.24,69.41,1.2,79.7c0,10.77,1.44,16.27-6.22,22.74
		c-4.31,3.59-6.22,4.79-11.49,5.27c-7.18,0.48-25.37,0.96-32.79,0C392.4,194.1,384.26,191.95,376.6,187.4z"/>
	<path class="st0" d="M492.92,195.06c-7.42-0.24-14.36-4.31-20.58-9.09c-3.59-2.87-4.31-7.9-5.27-12.45
		c-3.11-19.86-1.91-126.13,0.48-129c4.55-4.79,4.07-11.01,9.81-14.12c5.74-2.87,12.45-3.35,18.91-4.79
		c5.03-0.72,14.36-0.96,19.15-0.24c5.03,1.2,20.1,8.14,23.45,12.92c7.66,11.01,5.03,129.96,3.59,136.18
		c-2.39,12.21-12.92,20.58-23.45,20.82C510.39,195.54,501.53,195.3,492.92,195.06z M492.92,167.29c0.72,7.42,6.46,12.68,12.68,12.68
		c9.33,0,14.6-2.39,15.08-11.73v-1.68c-0.24-8.86-1.91-51.94-1.68-67.49c0-13.88,0.72-27.52-1.44-41.4
		c-1.44-9.09-4.79-11.73-15.8-13.16c-7.42-0.48-10.77,13.64-10.29,22.02C492.2,83.29,492.44,161.55,492.92,167.29z"/>
	<path class="st0" d="M585.06,195.3c-6.46-2.15-12.68-1.44-18.43-4.55c-3.59-1.2-5.03-4.79-5.27-8.62
		c-0.48-6.94-1.2-13.88-1.2-21.06v-39.49l-1.44-37.1c-0.48-11.97,0.24-39.97,0-55.05c0-5.27,8.14-4.07,9.81-4.07
		c10.53-0.24,21.06,1.2,31.59-0.48c5.74-0.96,11.49,0.72,16.99,1.44c10.05,1.91,16.51,7.9,17.71,17.95
		c0.48,3.83,1.44,7.9,1.68,11.49c0.72,14.12,2.63,93.34,2.63,111.53c0,12.45-0.72,15.56-6.94,23.22c-2.87,3.83-7.9,3.59-12.45,4.07
		l-26.57,1.68C590.32,196.49,587.45,196.49,585.06,195.3z M587.21,177.59c0.24,2.63,1.2,5.27,1.68,7.42
		c8.62,0,18.91,0.48,22.74-9.33c1.68-3.35,1.44-22.74,0.72-29.44c-1.68-15.08-2.15-97.41-3.11-102.91
		c-0.72-4.79-5.03-6.22-9.33-6.46h-12.92c-0.24,4.79,0,36.86,0,40.45C586.97,91.19,586.49,166.82,587.21,177.59z"/>
	<path class="st0" d="M679.59,195.06c-7.42-0.24-14.36-4.31-20.58-9.09c-3.59-2.87-4.31-7.9-5.27-12.45
		c-3.11-19.86-1.91-126.13,0.48-129c4.55-4.79,4.07-11.01,9.81-14.12c5.74-2.87,12.45-3.35,18.91-4.79
		c5.03-0.72,14.36-0.96,19.15-0.24c5.03,1.2,20.1,8.14,23.45,12.92c7.66,11.01,5.03,129.96,3.59,136.18
		c-2.39,12.21-12.92,20.58-23.45,20.82C697.06,195.54,688.21,195.3,679.59,195.06z M673.61,5.27c0.48-0.24,1.2-0.48,1.44-0.72
		c6.22-2.63,12.92-4.07,19.63-4.55c1.2,0,2.63,0.72,3.83,1.2c1.44,0.48,2.63,1.44,4.07,2.15v0.24c0.48,0.24,0.96,0.72,1.68,0.96
		c0.24,0.48,0.48,0.96,0,1.44c-2.63,2.39-5.5,3.11-8.38,4.07c-3.59,1.2-7.18,1.2-10.29,3.59c-1.68,1.2-3.83,1.44-5.5,0l-1.44-0.72
		c-3.11,0.72-4.07-1.91-5.74-3.59C671.45,7.9,671.93,6.7,673.61,5.27z M679.59,167.29c0.72,7.42,6.46,12.68,12.68,12.68
		c9.33,0,14.6-2.39,15.08-11.73v-1.68c-0.24-8.86-1.91-51.94-1.68-67.49c0-13.88,0.72-27.52-1.44-41.4
		c-1.44-9.09-4.79-11.73-15.8-13.16c-7.42-0.48-10.77,13.64-10.29,22.02C678.87,83.29,679.11,161.55,679.59,167.29z"/>
</g>
</svg>
