<?xml version="1.0" encoding="utf-8"?>
<!-- Generator: Adobe Illustrator 26.0.0, SVG Export Plug-In . SVG Version: 6.00 Build 0)  -->
<svg version="1.1" id="logo" xmlns="http://www.w3.org/2000/svg" xmlns:xlink="http://www.w3.org/1999/xlink" x="0px" y="0px"
	 viewBox="0 0 373.8 373.8" style="enable-background:new 0 0 373.8 373.8;" xml:space="preserve">
<style type="text/css">
	.st0{fill:#FDFAF1;}
</style>
<g>
	<path class="st0" d="M10.1,163.4c-2.4-1.9-2.7-4.6-2.9-7.4C6.7,138.5,7.7,40.2,7.7,39.2C7.4,30.6,7.4,19.8,7.4,11
		c0-6.5,1.2-9.6,7.7-10.5h48.6c24.6,0,21.7,17.7,21.7,43.3c-0.2,6,0.2,12.2-4.8,16c-1.2,1.2-8.7,1.9-9.2,2.2
		c-0.5,0.5,14,0,14.5,12.4c1.2,5.7,1.2,21.1,1.7,27c0.7,11.7,2.2,51.7-2.7,54.3c-6.3,8.1-11.6,13.9-23.2,14.8
		c-9.2,0.5-21.7,1-31.4,0.7C22.9,171.1,16.4,167.2,10.1,163.4z M33.3,157.4h14.5c7.5-0.5,15-7.2,15-14.1c-0.2-10.8,0-52.7-1.9-63.2
		c-0.5-2.6-0.7-5.7-1.2-8.4c-0.7-3.8-5.1-4.8-8.9-4.8c-3.4,0.2-9.2,0.2-12.6,0.2c-4.3-0.2-5.6,0.5-5.8,4.8
		c-0.5,10.5-1,21.8-0.5,32.5C32.1,113.9,32.5,148.3,33.3,157.4z M55.7,51.7c3.1,0,5.8-1.9,6.5-4.3c0.7-7.4-0.5-14.4,0.2-23
		c-0.7-9.8-4.1-10.8-8.5-11.7c-6.5-1.9-14.5-1.4-20,0c-0.2,6.5,0.2,33.8,0,40C42.2,52.1,49,51.9,55.7,51.7z"/>
	<path class="st0" d="M128.7,170.1c-7.5-0.2-14.5-4.3-20.8-9.1c-3.6-2.9-4.3-7.9-5.3-12.4c-3.1-19.9-1.9-126.1,0.5-129
		c4.6-4.8,4.1-11,9.9-14.1c5.8-2.9,12.6-3.4,19.1-4.8c5.1-0.7,14.5-1,19.3-0.2c5.1,1.2,20.3,8.1,23.7,12.9c7.7,11,5.1,130,3.6,136.2
		c-2.4,12.2-13,20.6-23.7,20.8C146.3,170.6,137.4,170.4,128.7,170.1z M128.7,142.4c0.7,7.4,6.5,12.7,12.8,12.7
		c9.4,0,14.7-2.4,15.2-11.7v-1.7c-0.2-8.9-1.9-51.9-1.7-67.5c0-13.9,0.7-27.5-1.5-41.4c-1.5-9.1-4.8-11.7-15.9-13.2
		c-7.5-0.5-10.9,13.6-10.4,22C127.9,58.4,128.2,136.6,128.7,142.4z"/>
	<path class="st0" d="M198.7,170.1c-1.7,0-2.9-0.7-4.8-1c0-4.3,0-8.1-0.2-12.2c-0.2-6.7,0.5-122.8,0.2-134.5c0-2.2,0-14.8,1.7-16.8
		c2.7-2.6,7.2-4.3,11.1-5.3c8.7,0.7,19.6-0.2,29.5-0.2c5.1,0.2,10.4,0.7,14.5,0.5c6.3-0.2,7.2,2.6,10.6,7.2
		c5.1,7.4,5.3,17.2,6.3,25.9c0.7,5.3,0,18.4-3.6,20.6c-3.1,1.7-6.5,3.6-10.4,5.5c12.1,7.2,9.9,32.1,10.6,46.2
		c0.5,8.9-0.2,42.6,0.7,47.1c1.5,7.4,1.7,6.7,8.9,7.9c1,0.2,1.2,0,2.2,0.2c4.8,1.4,5.6-0.2,4.6,5c-0.5,1-1.2,3.8-1.9,3.6
		c-4.8,0.7-6.3,0.7-11.6,0.5c-8.9,0.2-18.6,1-22.9-3.4c-2.2-1.9-1.7-2.9-2.9-5.5c-1-2.9-2.7-80.4-2.9-86.2v-1.2
		c-3.4-11.5-5.3-9.6-18.8-9.3c1,10.1,0.2,61.5,0,76.8c0,7.4-0.2,14.1,0,21.8c0,6.2-1,7.2-7.2,7.2
		C207.2,170.6,203.5,170.4,198.7,170.1z M218.5,53.3h1.9c1,0,0.2-0.2,1.2,0c6.3,0,21.3,0.7,21.3-3.3c-0.5-3.6,1-23.9-1.5-29.7
		c-1.9-5-1.2-8.1-6.5-7.4c-2.4,0-2.2-0.5-4.8,0c-3.9,0-8,0.2-12.1,0.5C218.3,26.5,218.5,41.4,218.5,53.3z"/>
	<path class="st0" d="M315.1,170.1c-7.5-0.2-14.5-4.3-20.8-9.1c-3.6-2.9-4.3-7.9-5.3-12.4c-3.1-19.9-1.9-126.1,0.5-129
		c4.6-4.8,4.1-11,9.9-14.1c5.8-2.9,12.6-3.4,19.1-4.8c5.1-0.7,14.5-1,19.3-0.2c5.1,1.2,20.3,8.1,23.7,12.9c7.7,11,5.1,130,3.6,136.2
		c-2.4,12.2-13,20.6-23.7,20.8C332.8,170.6,323.8,170.4,315.1,170.1z M315.1,142.4c0.7,7.4,6.5,12.7,12.8,12.7
		c9.4,0,14.7-2.4,15.2-11.7v-1.7c-0.2-8.9-1.9-51.9-1.7-67.5c0-13.9,0.7-27.5-1.5-41.4c-1.5-9.1-4.8-11.7-15.9-13.2
		c-7.5-0.5-10.9,13.6-10.4,22C314.4,58.4,314.6,136.6,315.1,142.4z"/>
	<path class="st0" d="M12.6,365.8c-3.4-2.1-5-5-5.3-9.1c-0.5-7.4,0.7-120.4,0-125.6c-0.7-7.7-0.2-13.9,3.1-19.6
		c0.5-1.7,2.9-5.5,4.8-5.7c7.4-1.9,14.8-3.8,22.5-2.9c7.7,1,18-0.2,25.4,0c5,0.5,10-0.2,15.3,0.2c4.8,0.5,6.7,5.7,7.2,10.1
		c0,6.2-0.5,12.7-1,18.9c-1,5-18.7,2.9-20.6,1.9c-3.4-1.4,1-14.8-2.4-17.9c-5.7-1-15.1-0.7-23.2-0.5c-1.2,0-5,1.9-5.5,3.1
		c-1.2,3.3-0.2,11.2-0.5,14.6l-0.7,55.3c0.7,21.3-0.2,39.2,1.9,60.3c0.7,7.4,2.9,9.6,10.3,10.5c12.5,1.4,22.5-1.2,20.6-15.8
		c1.2-13.4,0-67.2-0.5-74.9c-0.2-3.4-8.4-1.2-12.2-2.4c-3.1-1.2-4.8-9.6-0.5-11c11.5,0,11.5-0.5,21.8-0.2c2.4,0.2,4.3,0.5,6.5,1.2
		c6,2.4,6.5,3.1,6.2,9.8c0,5.7-0.2,69.4,1.2,79.7c0,10.8,1.4,16.3-6.2,22.7c-4.3,3.6-6.2,4.8-11.5,5.3c-7.2,0.5-25.4,1-32.8,0
		C28.4,372.5,20.3,370.4,12.6,365.8z"/>
	<path class="st0" d="M128.9,373.5c-7.4-0.2-14.4-4.3-20.6-9.1c-3.6-2.9-4.3-7.9-5.3-12.4c-3.1-19.9-1.9-126.1,0.5-129
		c4.5-4.8,4.1-11,9.8-14.1c5.7-2.9,12.5-3.4,18.9-4.8c5-0.7,14.4-1,19.1-0.2c5,1.2,20.1,8.1,23.5,12.9c7.7,11,5,130,3.6,136.2
		c-2.4,12.2-12.9,20.6-23.5,20.8C146.4,374,137.5,373.7,128.9,373.5z M128.9,345.7c0.7,7.4,6.5,12.7,12.7,12.7
		c9.3,0,14.6-2.4,15.1-11.7V345c-0.2-8.9-1.9-51.9-1.7-67.5c0-13.9,0.7-27.5-1.4-41.4c-1.4-9.1-4.8-11.7-15.8-13.2
		c-7.4-0.5-10.8,13.6-10.3,22C128.2,261.7,128.5,340,128.9,345.7z"/>
	<path class="st0" d="M221.1,373.7c-6.5-2.1-12.7-1.4-18.4-4.6c-3.6-1.2-5-4.8-5.3-8.6c-0.5-6.9-1.2-13.9-1.2-21.1V300l-1.4-37.1
		c-0.5-12,0.2-40,0-55.1c0-5.3,8.1-4.1,9.8-4.1c10.5-0.2,21.1,1.2,31.6-0.5c5.7-1,11.5,0.7,17,1.4c10,1.9,16.5,7.9,17.7,17.9
		c0.5,3.8,1.4,7.9,1.7,11.5c0.7,14.1,2.6,93.3,2.6,111.5c0,12.5-0.7,15.6-6.9,23.2c-2.9,3.8-7.9,3.6-12.4,4.1l-26.6,1.7
		C226.3,374.9,223.5,374.9,221.1,373.7z M223.2,356c0.2,2.6,1.2,5.3,1.7,7.4c8.6,0,18.9,0.5,22.7-9.3c1.7-3.4,1.4-22.7,0.7-29.4
		c-1.7-15.1-2.2-97.4-3.1-102.9c-0.7-4.8-5-6.2-9.3-6.5H223c-0.2,4.8,0,36.9,0,40.4C223,269.6,222.5,345.3,223.2,356z"/>
	<path class="st0" d="M315.6,373.5c-7.4-0.2-14.4-4.3-20.6-9.1c-3.6-2.9-4.3-7.9-5.3-12.4c-3.1-19.9-1.9-126.1,0.5-129
		c4.5-4.8,4.1-11,9.8-14.1c5.7-2.9,12.5-3.4,18.9-4.8c5-0.7,14.4-1,19.2-0.2c5,1.2,20.1,8.1,23.5,12.9c7.7,11,5,130,3.6,136.2
		c-2.4,12.2-12.9,20.6-23.5,20.8C333.1,374,324.2,373.7,315.6,373.5z M309.6,183.7c0.5-0.2,1.2-0.5,1.4-0.7
		c6.2-2.6,12.9-4.1,19.6-4.6c1.2,0,2.6,0.7,3.8,1.2c1.4,0.5,2.6,1.4,4.1,2.2v0.2c0.5,0.2,1,0.7,1.7,1c0.2,0.5,0.5,1,0,1.4
		c-2.6,2.4-5.5,3.1-8.4,4.1c-3.6,1.2-7.2,1.2-10.3,3.6c-1.7,1.2-3.8,1.4-5.5,0l-1.4-0.7c-3.1,0.7-4.1-1.9-5.7-3.6
		C307.5,186.3,307.9,185.1,309.6,183.7z M315.6,345.7c0.7,7.4,6.5,12.7,12.7,12.7c9.3,0,14.6-2.4,15.1-11.7V345
		c-0.2-8.9-1.9-51.9-1.7-67.5c0-13.9,0.7-27.5-1.4-41.4c-1.4-9.1-4.8-11.7-15.8-13.2c-7.4-0.5-10.8,13.6-10.3,22
		C314.9,261.7,315.1,340,315.6,345.7z"/>
</g>
</svg>
