<?xml version="1.0" encoding="utf-8"?>
<!-- Generator: Adobe Illustrator 24.1.1, SVG Export Plug-In . SVG Version: 6.00 Build 0)  -->
<svg version="1.1" id="Layer_1" xmlns="http://www.w3.org/2000/svg" xmlns:xlink="http://www.w3.org/1999/xlink" x="0px" y="0px"
	 viewBox="0 0 439.9 139.3" style="enable-background:new 0 0 439.9 139.3;" xml:space="preserve">
<style type="text/css">
	.st0{fill:#EAC087;}
</style>
<g id="XMLID_37_">
	<path id="XMLID_43_" class="st0" d="M130.3,44.6c-0.4,2.6-0.6,5.1-0.6,7.8c0,2.8,0.2,5.9,0.7,9.4c-3.7,1.6-7.9,2.8-12.6,3.8
		c-4.7,1-9.2,1.4-13.5,1.4c-6.6,0-12.4-1.4-17.4-4.2c-5-2.8-8.9-6.7-11.5-11.7c-2.7-5-4-10.6-4-16.9c0-6.5,1.4-12.4,4.3-17.4
		c2.9-5.1,6.9-9.1,12.1-11.9s11.7-4.2,19.6-4.2c3.2,0,6.2,0.2,8.9,0.7s6.3,1.4,10.7,2.7l3.6,1c-0.8,3.2-1.4,7.7-1.8,13.5h-2.6v-3
		c0-3-0.2-4.7-0.7-5.2c-0.8-1-3-2.2-6.7-3.6c-3.6-1.4-7.8-2.2-12.4-2.2c-8.2,0-14.6,2.4-18.9,7.2c-4.8,5.2-7.1,12.1-7.1,20.6
		c0,8.2,2.1,15.1,6.4,20.7c5,6.6,11.9,10,20.6,10c4.5,0,9.4-1.1,14.7-3.3c0.2-2.6,0.3-5.3,0.3-8.2c0-3.8-0.1-5.9-0.2-6.5
		c-0.1-0.6-0.3-0.9-0.6-1.1s-1.8-0.4-4.4-0.6l-5-0.5v-2.8c6.5,0.2,11.3,0.3,14.4,0.3c2.7,0,5.1-0.1,7-0.3v2.3L130.3,44.6"/>
	<path id="XMLID_44_" class="st0" d="M169,33.4c2.7,4.3,6.2,9.3,10.2,14.9l8.1,11.3c1.4,1.9,2.4,3,2.9,3.3s1,0.4,1.5,0.4h1.1v2.8
		c-2.4-0.2-4.4-0.3-6.1-0.3c-1.6,0-3.3,0.1-5.1,0.3l-15-21.6c-2.8-4-5.8-7.9-8.9-11.7l0.4-1.5c1.6,0.2,2.9,0.2,3.7,0.2
		c4.7,0,8.4-1.3,11-3.9c2.7-2.6,4-6.1,4-10.5c0-3.9-1.1-7-3.4-9.2c-2.3-2.2-5.5-3.3-9.8-3.3c-3,0-5.9,0.6-8.9,1.8
		c-0.3,4.8-0.5,10-0.5,15.5v22c0,10.7,0.2,16.6,0.7,17.8c0.5,1.2,2,1.7,4.6,1.7h3.2v2.8c-4.6-0.2-8.5-0.3-11.5-0.3
		c-2.4,0-6.7,0.1-13,0.3v-2.8h3.1c2.4,0,3.8-0.6,4.3-1.7c0.4-1.1,0.7-7.1,0.7-18V21.8c0-9.4-0.3-14.7-0.8-15.8
		c-0.5-1.1-2.2-1.7-5-1.7h-2.3V1.5c5.2,0.2,9.2,0.3,12,0.3c1.9,0,4.5-0.1,8-0.2c4-0.2,6.9-0.3,8.7-0.3c4.9,0,8.6,0.6,11.1,1.7
		s4.4,2.7,5.7,4.8c1.3,2.1,2,4.6,2,7.5c0,4.3-1.4,8.1-4.3,11.4C178.5,30,174.4,32.2,169,33.4"/>
	<path id="XMLID_45_" class="st0" d="M212.6,35.3v11.2V53c0,4,0,7,0.1,8.8c4.1,0.3,8.4,0.5,13.1,0.5c3.1,0,5.8-0.2,7.9-0.5
		c1.4-0.2,2.8-0.6,4.4-1.2c0.7-2.7,1.4-6,2.1-10.1h2.8c-0.7,6.6-1.1,11.1-1.1,13.3l0.1,2c-3.2,0.3-6.4,0.5-9.5,0.5l-6.6-0.1
		c-7.3-0.2-12.6-0.3-16-0.3c-3.3,0-7.6,0.1-13.1,0.3v-2.7h1.3c2.4,0,3.9-0.3,4.5-0.8s1-1.7,1.3-3.6c0.2-1.9,0.3-6.1,0.3-12.7v-25
		c0-4.1-0.1-7.5-0.3-10.1s-0.4-4.2-0.6-4.7c-0.2-0.5-0.5-0.9-0.9-1.2c-0.4-0.3-1.6-0.5-3.6-0.7l-3.2-0.4V1.5h4.5l4.4,0.2
		c2.5,0.1,4.4,0.2,5.7,0.2l16.1-0.3l7.6-0.1c2.6,0,5.2,0.1,7.9,0.3c-1.1,3.6-1.7,8.3-1.8,14h-2.8c0-3.4-0.1-6.1-0.5-8.4
		c-3.3-1.3-7.4-2-12.2-2c-3.9,0-7.9,0.2-12.1,0.5c0,2.9,0,5.7-0.1,8.6l-0.1,7v9.2c2.8,0.2,5.3,0.3,7.4,0.3c6.7,0,10.5-0.2,11.4-0.8
		c0.9-0.5,1.3-2.1,1.3-4.7v-3h2.8c-0.2,4.6-0.3,8.2-0.3,10.9c0,2.9,0.1,6.3,0.3,10.2h-2.8V41c0-2.9-0.5-4.7-1.6-5.3
		c-1.1-0.6-4.8-1-11.2-1C217.5,35,215.1,35.1,212.6,35.3"/>
	<path id="XMLID_46_" class="st0" d="M265.2,35.3v11.2V53c0,4,0,7,0.1,8.8c4.1,0.3,8.5,0.5,13.1,0.5c3.1,0,5.8-0.2,7.9-0.5
		c1.4-0.2,2.8-0.6,4.4-1.2c0.7-2.7,1.4-6,2.1-10.1h2.8c-0.7,6.6-1.1,11.1-1.1,13.3l0.1,2c-3.2,0.3-6.4,0.5-9.5,0.5l-6.6-0.1
		c-7.3-0.2-12.6-0.3-16-0.3c-3.3,0-7.6,0.1-13.1,0.3v-2.7h1.3c2.4,0,3.9-0.3,4.5-0.8s1-1.7,1.3-3.6c0.2-1.9,0.3-6.1,0.3-12.7v-25
		c0-4.1-0.1-7.5-0.3-10.1c-0.2-2.6-0.4-4.2-0.6-4.7s-0.5-0.9-0.9-1.2c-0.4-0.3-1.6-0.5-3.6-0.7l-3.2-0.4V1.5h4.5l4.4,0.2
		c2.5,0.1,4.4,0.2,5.7,0.2l16.1-0.3l7.6-0.1c2.6,0,5.2,0.1,7.9,0.3c-1.1,3.6-1.7,8.3-1.8,14H290c0-3.4-0.2-6.1-0.5-8.4
		c-3.3-1.3-7.4-2-12.2-2c-3.8,0-7.9,0.2-12,0.5c0,2.9,0,5.7-0.1,8.6l-0.1,7v9.2c2.8,0.2,5.3,0.3,7.4,0.3c6.7,0,10.5-0.2,11.4-0.8
		c0.9-0.5,1.3-2.1,1.3-4.7v-3h2.8c-0.2,4.6-0.3,8.2-0.3,10.9c0,2.9,0.1,6.3,0.3,10.2h-2.8V41c0-2.9-0.5-4.7-1.6-5.3
		c-1-0.6-4.8-1-11.2-1C270.1,35,267.7,35.1,265.2,35.3"/>
	<path id="XMLID_47_" class="st0" d="M312.5,11.7v31.5c0,7.2,0.1,12.2,0.4,15c0.2,2.2,0.5,3.5,1,3.9c0.5,0.5,1.8,0.8,4,1l2.7,0.2
		v2.8c-3-0.2-5.8-0.3-8.2-0.3c-1.7,0-5.6,0.1-11.7,0.3v-2.8h3c1.8,0,3-0.3,3.6-0.8s0.9-1.6,1-3.2c0.3-3.3,0.5-7.9,0.5-13.6V23
		c0-4.3,0-8.5-0.1-12.6c-0.1-1.8-0.3-3-0.7-3.6c-0.4-0.7-0.9-1.2-1.7-1.8c-0.7-0.5-1.8-0.8-3.1-0.8h-2.6V1.5
		c3.5,0.2,6.3,0.3,8.1,0.3c2,0,4.2-0.1,6.6-0.3c2.8,3.7,5.4,7.2,7.9,10.7s5,7,7.7,10.5l14.4,19.1c5.2,6.9,8.9,11.6,11.2,14.3V26.9
		c0-12.2-0.2-18.9-0.6-20.1c-0.4-1.1-2-1.9-4.8-2.2L348,4.3V1.5c4.5,0.2,7.9,0.3,10.4,0.3c2.6,0,5.9-0.1,10-0.3v2.8h-3.2
		c-2.6,0-4.1,0.9-4.5,2.8c-0.3,1.2-0.4,7.9-0.4,19.9v20.5c0,5.5,0.2,12.1,0.7,19.8c-3.8-0.6-5.9-1.1-6.6-1.4
		c-0.6-0.3-1.2-0.8-1.8-1.4c-3.1-3.7-6.4-7.9-9.8-12.4L312.5,11.7"/>
	<path id="XMLID_48_" class="st0" d="M355.8,81.8l-0.1-2.8c-0.8-0.6-1.6-1.1-2.4-1.4c-0.9-0.3-1.7-0.5-2.7-0.5
		c-2.4,0-4.2,0.9-5.7,2.6c-1.4,1.7-2.1,4-2.1,6.9c0,2,0.4,3.8,1.1,5.4s1.7,2.8,3.1,3.8c1.3,0.9,2.7,1.4,4.2,1.4
		c1.2,0,2.3-0.2,3.5-0.5c0.8-0.2,1.7-0.8,2.6-1.5l0.3,0.3c-0.2,0.5-0.3,1-0.5,1.5c-1,0.6-2.1,1.1-3.1,1.4s-2.1,0.5-3.1,0.5
		c-2.1,0-4-0.5-5.7-1.5c-1.6-1-2.9-2.4-3.8-4.1c-0.9-1.8-1.3-3.7-1.3-5.9c0-2.2,0.4-4.2,1.3-5.9c0.9-1.7,2.1-3.1,3.7-4.1
		s3.6-1.4,5.9-1.4c1.2,0,2.7,0.2,4.3,0.7c0.8,0.2,1.5,0.4,2,0.5c-0.4,1.1-0.6,2.7-0.7,4.8h-0.8"/>
	<path id="XMLID_49_" class="st0" d="M355.8,81.8h0.5l-0.1-3l-0.2-0.2c-0.8-0.7-1.7-1.1-2.6-1.5l0,0c-0.9-0.3-1.9-0.5-2.8-0.5
		c-2.5,0-4.6,0.9-6.1,2.8c-1.5,1.8-2.3,4.3-2.2,7.2c0,2.1,0.4,4,1.1,5.6c0.8,1.7,1.8,3,3.2,4c1.4,1,2.9,1.5,4.5,1.5
		c1.2,0,2.4-0.2,3.6-0.5c0.9-0.3,1.9-0.8,2.8-1.6l-0.3-0.4l-0.4,0.3l0.3,0.3l0.4-0.3l-0.5-0.2c-0.2,0.5-0.4,1-0.5,1.5L357,97
		l-0.3-0.5c-1,0.6-2,1-3,1.3l0,0c-1,0.3-2,0.4-3,0.4c-2.1,0-3.8-0.5-5.4-1.4c-1.5-0.9-2.7-2.2-3.6-3.9l0,0c-0.8-1.7-1.3-3.6-1.3-5.7
		s0.4-4,1.3-5.7c0.8-1.7,2-2.9,3.5-3.8s3.4-1.4,5.7-1.4c1.2,0,2.6,0.2,4.2,0.7l0,0l0,0c0.8,0.2,1.5,0.4,2,0.5l0.1-0.5l-0.5-0.2
		c-0.4,1.2-0.7,2.8-0.7,4.9h0.5v-0.5h-0.8v1.1l0,0h0.5v-0.5L355.8,81.8v-0.5l0,0v1.1h0.8h0.5v-0.5c0.1-2,0.3-3.6,0.7-4.6l0.2-0.6
		l-0.6-0.1c-0.5-0.1-1.2-0.3-2-0.5l-0.1,0.5l0.1-0.5c-1.7-0.5-3.2-0.7-4.5-0.7c-2.4,0-4.5,0.5-6.2,1.5s-3,2.4-3.9,4.3
		c-0.9,1.8-1.4,3.9-1.4,6.2c0,2.3,0.5,4.3,1.4,6.2l0,0l0,0c0.9,1.8,2.2,3.3,4,4.3c1.7,1.1,3.7,1.6,5.9,1.6c1.1,0,2.2-0.2,3.3-0.5
		l0,0c1.1-0.3,2.1-0.8,3.2-1.4l0.2-0.1l0.1-0.2c0.2-0.5,0.3-1,0.5-1.4l0.1-0.3l-0.5-0.5l-0.3-0.4l-0.4,0.4c-0.8,0.7-1.6,1.2-2.4,1.4
		c-1.1,0.3-2.2,0.5-3.3,0.5c-1.4,0-2.7-0.4-3.9-1.3c-1.2-0.9-2.2-2-2.9-3.5c-0.7-1.5-1-3.2-1-5.2c0-2.8,0.7-5,2-6.6s3-2.4,5.3-2.4
		c0.9,0,1.7,0.1,2.5,0.4l0,0c0.8,0.3,1.6,0.7,2.3,1.3l0.3-0.4h-0.5l0.1,2.8L355.8,81.8v-0.5V81.8z"/>
	<path id="XMLID_50_" class="st0" d="M355.8,120.6l-0.1-2.8c-0.8-0.6-1.6-1.1-2.4-1.4c-0.9-0.3-1.7-0.5-2.7-0.5
		c-2.4,0-4.2,0.9-5.7,2.6c-1.4,1.7-2.1,4-2.1,6.9c0,2,0.4,3.8,1.1,5.4s1.7,2.8,3.1,3.8c1.3,0.9,2.7,1.4,4.2,1.4
		c1.2,0,2.3-0.2,3.5-0.5c0.8-0.2,1.7-0.8,2.6-1.5l0.3,0.3c-0.2,0.5-0.3,1-0.5,1.5c-1,0.6-2.1,1.1-3.1,1.4s-2.1,0.5-3.1,0.5
		c-2.1,0-4-0.5-5.7-1.5c-1.6-1-2.9-2.4-3.8-4.1c-0.9-1.8-1.3-3.7-1.3-5.9c0-2.2,0.4-4.2,1.3-5.9c0.9-1.7,2.1-3.1,3.7-4.1
		s3.6-1.4,5.9-1.4c1.2,0,2.7,0.2,4.3,0.7c0.8,0.2,1.5,0.4,2,0.5c-0.4,1.1-0.6,2.7-0.7,4.8h-0.8"/>
	<path id="XMLID_51_" class="st0" d="M355.8,120.6h0.5l-0.1-3l-0.2-0.2c-0.8-0.7-1.7-1.1-2.6-1.5l0,0l0,0c-0.9-0.3-1.9-0.5-2.8-0.5
		c-2.5,0-4.6,0.9-6.1,2.8c-1.5,1.8-2.3,4.3-2.2,7.2c0,2.1,0.4,4,1.1,5.6c0.8,1.7,1.8,3,3.2,4c1.4,1,2.9,1.5,4.5,1.5
		c1.2,0,2.4-0.2,3.6-0.5c0.9-0.3,1.9-0.8,2.8-1.6l-0.4-0.4l-0.4,0.3l0.3,0.3l0.4-0.3l-0.5-0.2c-0.2,0.5-0.4,1-0.5,1.5l0.5,0.2
		l-0.3-0.5c-1,0.6-2,1-3,1.3s-2,0.4-3,0.4c-2.1,0-3.8-0.5-5.4-1.4c-1.5-0.9-2.7-2.2-3.6-3.9c-0.8-1.7-1.3-3.6-1.3-5.7
		c0-2.1,0.4-4,1.3-5.7c0.8-1.7,2-2.9,3.5-3.8s3.4-1.4,5.7-1.4c1.2,0,2.6,0.2,4.2,0.7l0,0c0.8,0.2,1.5,0.4,2,0.5l0.1-0.5l-0.5-0.2
		c-0.4,1.2-0.7,2.8-0.7,4.9h0.5V120h-0.8v1.1l0,0h0.5v-0.5L355.8,120.6v-0.5l0,0v1.1h0.8h0.5v-0.5c0.1-2,0.3-3.6,0.7-4.6l0.2-0.6
		l-0.6-0.1c-0.5-0.1-1.2-0.3-2-0.5l-0.1,0.5l0.1-0.5c-1.7-0.5-3.2-0.7-4.5-0.7c-2.4,0-4.5,0.5-6.2,1.5s-3,2.4-3.9,4.3
		c-0.9,1.8-1.4,3.9-1.4,6.2c0,2.3,0.5,4.3,1.4,6.2c0.9,1.8,2.2,3.3,4,4.3c1.7,1,3.7,1.6,5.9,1.6c1.1,0,2.2-0.2,3.3-0.5
		c1.1-0.3,2.1-0.8,3.2-1.4l0.2-0.1l0.1-0.2c0.2-0.5,0.3-1,0.5-1.4l0.1-0.3l-0.5-0.5l-0.3-0.4l-0.4,0.4c-0.8,0.7-1.6,1.2-2.4,1.4
		c-1.1,0.3-2.2,0.5-3.3,0.5c-1.4,0-2.7-0.4-3.9-1.3c-1.2-0.9-2.2-2-2.9-3.5c-0.7-1.5-1-3.2-1-5.2c0-2.8,0.7-5,2-6.6s3-2.4,5.3-2.4
		c0.9,0,1.7,0.1,2.5,0.4l0,0c0.8,0.3,1.6,0.7,2.3,1.3l0.3-0.4h-0.5l0.1,2.8L355.8,120.6v-0.5V120.6z"/>
	<path id="XMLID_52_" class="st0" d="M92.3,108.3V124c0,6.2,0.3,9.9,0.9,10.9s2.2,1.6,4.7,1.6h2.9v2.8c-5.3-0.2-9.5-0.3-12.7-0.3
		s-7.3,0.1-12.3,0.3v-2.8h3.4c2.4,0,3.9-0.5,4.4-1.5s0.8-4.7,0.8-11V89.6c0-6.2-0.3-9.7-0.9-10.8c-0.6-1-2.2-1.5-4.7-1.5h-3v-2.8
		c4.6,0.2,8.8,0.3,12.5,0.3l24.1-0.5c2.5,0,4.9,0.1,7.2,0.3c-0.9,3.3-1.4,7.9-1.5,13.9h-2.8c-0.2-3.2-0.5-6-1-8.5
		c-3.8-1.1-7.7-1.6-11.6-1.6c-3.4,0-6.7,0.2-10,0.6c-0.3,3.9-0.5,7.5-0.5,10.7v14.4c1.6,0.1,3.3,0.2,4.9,0.2c4.2,0,7.8-0.1,10.9-0.4
		c1-0.1,1.8-0.3,2.1-0.8c0.4-0.4,0.7-1.6,0.9-3.5l0.4-3.4h2.8c-0.3,5.6-0.4,9.1-0.4,10.7v10.7H111v-3.5c0-2.8-0.5-4.5-1.4-5.1
		c-1-0.6-4.7-0.9-11.2-0.9C96.8,108.1,94.7,108.2,92.3,108.3"/>
	<path id="XMLID_54_" class="st0" d="M124.7,136.4h2.6c2.6,0,4.2-0.7,4.7-2.1s0.8-7.9,0.8-19.6V99.2c0-12.2-0.2-18.9-0.7-20.1
		c-0.4-1.2-1.8-1.9-4-1.9h-3.4v-2.7c4.6,0.2,9.2,0.3,13.8,0.3c3.8,0,7.2-0.1,10.3-0.3v2.8h-3.2c-2,0-3.2,0.3-3.7,0.8
		s-0.8,1.8-0.9,3.9c-0.2,3.3-0.2,9-0.2,17.4v15.7c0,11.8,0.2,18.3,0.7,19.5s2,1.8,4.6,1.8h2.8v2.8c-3.4-0.2-7.2-0.3-11.2-0.3
		c-4.7,0-9,0.1-12.8,0.3v-2.8"/>
	<path id="XMLID_55_" class="st0" d="M170.2,108.3v11.2v6.5c0,4,0,7,0.1,8.8c4.1,0.3,8.4,0.5,13.1,0.5c3.1,0,5.8-0.2,7.9-0.5
		c1.4-0.2,2.8-0.6,4.4-1.2c0.7-2.7,1.4-6,2.1-10.1h2.8c-0.7,6.6-1.1,11.1-1.1,13.3l0.1,2c-3.2,0.3-6.4,0.5-9.5,0.5l-6.6-0.1
		c-7.3-0.2-12.6-0.3-16-0.3c-3.3,0-7.6,0.1-13.1,0.3v-2.7h1.3c2.4,0,3.9-0.3,4.5-0.8s1-1.7,1.3-3.6c0.2-1.9,0.3-6.1,0.3-12.7v-25
		c0-4.1-0.1-7.5-0.3-10.1s-0.4-4.2-0.6-4.7c-0.2-0.5-0.5-0.9-0.9-1.2c-0.4-0.3-1.6-0.5-3.6-0.7l-3.2-0.4v-2.8h4.5l4.4,0.2
		c2.5,0.1,4.4,0.2,5.7,0.2l16.1-0.3l7.6-0.1c2.6,0,5.2,0.1,7.9,0.3c-1.1,3.6-1.7,8.3-1.8,14H195c0-3.4-0.2-6.1-0.5-8.4
		c-3.3-1.3-7.4-2-12.2-2c-3.8,0-7.9,0.2-12,0.5c0,2.9,0,5.7-0.1,8.6l-0.1,7v9.2c2.8,0.2,5.3,0.3,7.4,0.3c6.7,0,10.5-0.3,11.4-0.8
		s1.3-2.1,1.3-4.7v-3h2.8c-0.2,4.6-0.3,8.2-0.3,10.9c0,2.9,0.1,6.3,0.3,10.2h-2.8V114c0-2.9-0.5-4.7-1.6-5.3c-1.1-0.6-4.8-1-11.2-1
		C175.2,108,172.7,108.1,170.2,108.3"/>
	<path id="XMLID_56_" class="st0" d="M222.3,134.7c2.7,0.1,5.4,0.2,8,0.2c5.3,0,9.4-0.2,12.4-0.5c2.1-0.2,4.2-0.7,6.5-1.3l2.5-10.7
		h2.6c-0.7,5.8-1.2,11.1-1.6,16.1c-2.5,0.5-6,0.7-10.3,0.7l-20-0.4c-2.7,0-6.9,0.1-12.6,0.3v-2.3c2.3-1.1,3.6-2.2,4-3.4
		c0.4-1.2,0.6-6,0.6-14.4V94c0-9.1-0.2-14.2-0.6-15.2c-0.4-1-1.5-1.6-3.4-1.6h-4.5v-2.7c6.6,0.2,11.1,0.3,13.2,0.3
		c2.9,0,6.8-0.1,11.8-0.3v2.8h-5.2c-1.5,0-2.4,0.5-2.8,1.4c-0.4,0.9-0.6,4.8-0.6,11.5v29l0.1,12.8L222.3,134.7"/>
	<path id="XMLID_62_" class="st0" d="M274.7,134.1c3.8,0.6,7.1,0.9,10,0.9c7.9,0,14-2.2,18.3-6.5c5.3-5.3,7.9-13,7.9-23.1
		c0-8.8-2.2-15.5-6.5-20.1c-4.4-4.6-10.8-6.9-19.2-6.9c-2.9,0-6.4,0.3-10.5,0.9c-0.3,2.9-0.5,6.2-0.5,9.9v29.6
		C274.2,124.3,274.4,129.4,274.7,134.1z M265.7,134.4c0.4-4.7,0.6-12.9,0.6-24.6V96.7c0-5.4-0.2-10-0.5-13.9
		c-0.2-2.3-0.4-3.6-0.8-3.9c-0.3-0.4-1.5-0.7-3.5-1l-3.4-0.5v-2.8c4.6,0.3,7.8,0.4,9.3,0.4l11.3-0.1l9.2-0.3
		c3.7-0.1,7.5,0.3,11.4,1.2c3.9,0.8,7.4,2.6,10.6,5.1c3.2,2.6,5.6,5.8,7.2,9.6c1.7,3.9,2.5,8.3,2.5,13.4c0,10.2-3.2,18.7-9.6,25.4
		c-6.4,6.7-14.7,10-25.1,10l-5.2-0.2c-5.1-0.2-8.3-0.3-9.7-0.3c-2.3,0-5.2,0.2-8.7,0.5V137L265.7,134.4"/>
	<polyline id="XMLID_68_" class="st0" points="340,109.3 359.4,109.3 359.4,105.6 340,105.6 	"/>
</g>
</svg>
