<?xml version="1.0" encoding="utf-8"?>
<!-- Generator: Adobe Illustrator 26.0.0, SVG Export Plug-In . SVG Version: 6.00 Build 0)  -->
<svg version="1.1" id="Camada_2" xmlns="http://www.w3.org/2000/svg" xmlns:xlink="http://www.w3.org/1999/xlink" x="0px" y="0px"
	 viewBox="0 0 170.45 156.98" style="enable-background:new 0 0 170.45 156.98;" xml:space="preserve">
<style type="text/css">
	.st0{fill:#FFFFFF;}
</style>
<path class="st0" d="M170.45,10.86c-2.1-1.64-5.89-3.57-8.94-3.64c-16.83-11.68-31.24-7.31-38.55,0
	c-11.18,13.37-18.41,19.33-39.71,29.14c-30.37,17.76-61.12,42.27-60.47,82.09C84.35,51.99,96.61,103.8,130.27,27.6
	c-25.18,78.98-48.5,34.12-106.77,96.94c-2.76,3.11-4.73,5.54-17.88,18.79c-4.21,4.21-8.1,16.94-3.66,12.85
	c32.43-29.52,22.82-24.55,36.87-24.46c40.75,2.76,90.25-10.96,110.43-67.98c4.77-15.61,1.46-30.92,0.63-36.77
	C148.4,16.58,166.66,11.13,170.45,10.86z"/>
</svg>
