<?xml version="1.0" encoding="utf-8"?>
<!-- Generator: Adobe Illustrator 26.0.0, SVG Export Plug-In . SVG Version: 6.00 Build 0)  -->
<svg version="1.1" xmlns="http://www.w3.org/2000/svg" xmlns:xlink="http://www.w3.org/1999/xlink" x="0px" y="0px"
	 viewBox="0 0 1035 196.4" style="enable-background:new 0 0 1035 196.4;" xml:space="preserve">
<style type="text/css">
	.st0{fill:#FFFFFF;}
</style>
<g id="logo_cópia">
	<path class="st0" d="M246.5,125.6h-22.9V82.9h21.5c18.2,0,26.8,5.3,26.8,20.3C271.9,117.8,265.4,125.6,246.5,125.6 M250.9,136.7
		c20.8,0,35.8-10.9,35.8-30.9v-5.3c0-22.2-17.5-29.8-41.7-29.8h-36.4v116.5c0,8.6,14.8,8.8,14.8,8.8v-58.8
		c27.7,3.5,34.2,22.4,48.2,48.4c4.6,8.5,12.2,10.1,17.1,10.1c3,0,5.1-0.5,5.1-0.5C285.3,182.1,275.3,146.2,250.9,136.7"/>
	<path class="st0" d="M326.6,68.9v118.3c0,8.8,14.8,8.8,14.8,8.8V77.7C341.5,68.9,326.6,68.9,326.6,68.9"/>
	<path class="st0" d="M468.2,154.9c0,18.4-5.5,29.3-34.1,29.3c-28.2,0-33.7-10.9-33.7-29.3v-44.8c0-18.4,5.5-29.3,33.7-29.3
		c28.6,0,34.1,10.9,34.1,29.3V154.9z M434.3,68.6c-33.4,0-48.7,14.6-48.7,39.2v49.4c0,24.5,15.4,39.2,48.7,39.2
		c33.2,0,48.7-14.7,48.7-39.2v-49.4C483,83.2,467.5,68.6,434.3,68.6"/>
	<path class="st0" d="M609.6,70v55.4h-71.3V77.8C538.3,70,528,70,528,70v118.3c0,7.8,10.2,7.8,10.2,7.8v-60.9h71.3v53.1
		c0,7.8,10.2,7.8,10.2,7.8V77.8C619.8,70,609.6,70,609.6,70"/>
	<path class="st0" d="M748.5,156c0,18.4-6,30.9-36.4,30.9c-30.2,0-36.2-12.5-36.2-30.9v-45.9c0-18.2,6-30.9,36.2-30.9
		c30.4,0,36.4,12.7,36.4,30.9V156z M712.3,69.6c-31.9,0-46.6,14.3-46.6,38.1v50.5c0,24,14.7,38.1,46.6,38.1
		c31.6,0,46.4-14.1,46.4-38.1v-50.5C758.8,83.9,743.9,69.6,712.3,69.6"/>
	<path class="st0" d="M898.6,71.7l-39.7,82.4L824.1,80c-3.9-8.3-10.8-8.3-10.8-8.3h-8.7v116.5c0,7.8,10.2,7.8,10.2,7.8V96.5
		c0-7.2-0.9-15.4-0.9-15.4l37.6,79.4c4.8,7.8,10.1,7.8,10.1,7.8l42.7-86.7c0,0-0.9,7.6-0.9,14.8v91.8c0,7.8,10.2,7.8,10.2,7.8V79.5
		C913.8,71.9,898.6,71.7,898.6,71.7"/>
	<path class="st0" d="M971.7,131.6h44.3c10.1,0,11.8-8.5,11.8-12c0,0-2.5,2.5-12.9,2.5h-43.2V81.3h56.7c6.5,0,6.5-9.5,6.5-9.5h-73.4
		v114.7c0,7.8,12.7,7.8,12.7,7.8h54.2c6.5,0,6.5-9,6.5-9.5h-63.2V131.6z"/>
	<path class="st0" d="M157.6,191.1h-11.8c-5.3,0-10.2-2.3-13.7-6.3l-43.4-51.2c-1.6-1.8-2.3-4.2-2.1-6.6c0.2-2.4,1.4-4.6,3.2-6.1
		l38.1-31.6c2.8-2.3,4.4-5.7,4.4-9.4c0-3.6-1.6-7-4.5-9.3L90.7,40.4c-3-2.4-6.6-3.6-10.3-3.6c-3.7,0-7.3,1.2-10.3,3.6L22.4,79.2
		v111.9h-6.9c-6.8,0-12.4-5.5-12.4-12.4V67.4L80.4,4.1l70.8,58c4,3.3,6.3,8.2,6.3,13.4V191.1z M153.2,59.7L80.4,0L0,65.9v112.9
		c0,8.6,7,15.5,15.5,15.5h10.1V80.7l46.5-37.8c4.8-3.9,11.8-3.9,16.5,0l37.2,30.3c2.1,1.7,3.3,4.2,3.3,6.9c0,2.7-1.2,5.2-3.2,6.9
		l-38.1,31.6c-2.5,2.1-4.1,5-4.4,8.3c-0.3,3.3,0.7,6.4,2.8,8.9l43.4,51.2c4,4.7,9.9,7.4,16.1,7.4h15V75.6
		C160.7,69.4,158,63.6,153.2,59.7"/>
</g>
<g id="logo">
</g>
</svg>
