<?xml version="1.0" encoding="utf-8"?>
<!-- Generator: Adobe Illustrator 26.0.0, SVG Export Plug-In . SVG Version: 6.00 Build 0)  -->
<svg version="1.1" xmlns="http://www.w3.org/2000/svg" xmlns:xlink="http://www.w3.org/1999/xlink" x="0px" y="0px"
	 viewBox="0 0 730.8 196.4" style="enable-background:new 0 0 730.8 196.4;" xml:space="preserve">
<style type="text/css">
	.st0{fill:#FFFFFF;}
</style>
<g id="logo_cópia">
</g>
<g id="logo">
	<path class="st0" d="M174.1,102.8h-16.2V72.7h15.2c12.8,0,18.9,3.7,18.9,14.3C192.1,97.3,187.4,102.8,174.1,102.8 M177.2,110.7
		c14.7,0,25.3-7.7,25.3-21.8v-3.7c0-15.7-12.3-21.1-29.4-21.1h-25.7v82.3c0,6.1,10.5,6.2,10.5,6.2V111c19.6,2.5,24.2,15.8,34,34.2
		c3.2,6,8.6,7.1,12.1,7.1c2.1,0,3.6-0.4,3.6-0.4C201.5,142.7,194.4,117.4,177.2,110.7"/>
	<path class="st0" d="M230.7,62.8v83.5c0,6.2,10.5,6.2,10.5,6.2V69C241.2,62.8,230.7,62.8,230.7,62.8"/>
	<path class="st0" d="M330.7,123.5c0,13-3.9,20.7-24.1,20.7c-19.9,0-23.8-7.7-23.8-20.7V91.9c0-13,3.9-20.7,23.8-20.7
		c20.2,0,24.1,7.7,24.1,20.7V123.5z M306.7,62.6c-23.6,0-34.4,10.3-34.4,27.7v34.9c0,17.3,10.8,27.7,34.4,27.7
		c23.4,0,34.4-10.4,34.4-27.7V90.2C341.1,72.9,330.2,62.6,306.7,62.6"/>
	<path class="st0" d="M430.5,63.6v39.1h-50.4V69c0-5.5-7.2-5.5-7.2-5.5v83.5c0,5.5,7.2,5.5,7.2,5.5v-43h50.4v37.5
		c0,5.5,7.2,5.5,7.2,5.5V69C437.7,63.6,430.5,63.6,430.5,63.6"/>
	<path class="st0" d="M528.6,124.3c0,13-4.2,21.8-25.7,21.8c-21.3,0-25.6-8.8-25.6-21.8V91.8c0-12.8,4.2-21.8,25.6-21.8
		c21.4,0,25.7,9,25.7,21.8V124.3z M503,63.3c-22.6,0-32.9,10.1-32.9,26.9v35.6c0,17,10.3,26.9,32.9,26.9c22.3,0,32.8-10,32.8-26.9
		V90.2C535.8,73.4,525.3,63.3,503,63.3"/>
	<path class="st0" d="M634.5,64.8l-28,58.2l-24.6-52.3c-2.7-5.9-7.6-5.9-7.6-5.9h-6.1v82.3c0,5.5,7.2,5.5,7.2,5.5V82.3
		c0-5.1-0.6-10.8-0.6-10.8l26.5,56.1c3.4,5.5,7.1,5.5,7.1,5.5l30.2-61.2c0,0-0.6,5.4-0.6,10.5v64.8c0,5.5,7.2,5.5,7.2,5.5V70.3
		C645.3,64.9,634.5,64.8,634.5,64.8"/>
	<path class="st0" d="M686.1,107.1h31.3c7.1,0,8.4-6,8.4-8.5c0,0-1.7,1.7-9.1,1.7h-30.5V71.5h40c4.6,0,4.6-6.7,4.6-6.7h-51.8v81
		c0,5.5,9,5.5,9,5.5h38.3c4.6,0,4.6-6.4,4.6-6.7h-44.6V107.1z"/>
	<path class="st0" d="M111.3,149.1H103c-3.7,0-7.2-1.6-9.6-4.5l-30.7-36.1c-1.1-1.3-1.6-3-1.5-4.6c0.2-1.7,1-3.2,2.3-4.3l26.9-22.3
		c2-1.6,3.1-4,3.1-6.6c0-2.6-1.2-5-3.1-6.6L64.1,42.6c-2.1-1.7-4.7-2.6-7.3-2.6c-2.6,0-5.2,0.9-7.3,2.6L15.9,70v79H11
		c-4.8,0-8.7-3.9-8.7-8.7V61.7l54.5-44.7l50,41c2.9,2.3,4.5,5.8,4.5,9.5V149.1z M108.3,56.3L56.8,14.1L0.1,60.6v79.7
		c0,6,4.9,11,11,11h7.1V71.1L51,44.4c3.4-2.8,8.3-2.8,11.7,0l26.2,21.4c1.5,1.2,2.3,3,2.3,4.9c0,1.9-0.8,3.7-2.3,4.9L62,97.8
		c-1.8,1.5-2.9,3.6-3.1,5.9c-0.2,2.3,0.5,4.5,2,6.3L91.6,146c2.8,3.3,7,5.3,11.4,5.3h10.6V67.5C113.6,63.1,111.6,59.1,108.3,56.3"/>
</g>
</svg>
