<?xml version="1.0" encoding="utf-8"?>
<!-- Generator: Adobe Illustrator 24.1.1, SVG Export Plug-In . SVG Version: 6.00 Build 0)  -->
<svg version="1.1" id="Layer_1" xmlns="http://www.w3.org/2000/svg" xmlns:xlink="http://www.w3.org/1999/xlink" x="0px" y="0px"
	 viewBox="0 0 332.9 87.4" style="enable-background:new 0 0 332.9 87.4;" xml:space="preserve">
<style type="text/css">
	.st0{fill:#FFAE6C;}
</style>
<g id="XMLID_1_">
	<path id="XMLID_28_" class="st0" d="M148.4,0h-21.8L61.1,87.5h21.8L148.4,0z M39.2,87.5H17.5L83,0h21.7L39.2,87.5z"/>
	<path id="XMLID_31_" class="st0" d="M163.4,43.7h2.3c3.7,0,4.2-2.4,4.2-3.6c0-2.3-1.6-3.4-4.1-3.4h-2.3v7H163.4z M157.3,55.3
		c0,0,0-22.6,0-23.3c0-0.8,0.8-0.8,0.8-0.8h7.1c4.4,0,6,0.5,7.7,1.8c2,1.6,3.1,4.2,3.1,6.8c0,2.9-1.5,7.1-6.2,7.8l6.1,7.7
		c0,0,0.8,0.8-0.1,0.8s-4.9,0-5.7,0c-0.8,0-1.3-0.8-1.3-0.8l-5.2-7.2h-0.1c0,0,0,6.4,0,7.2s-0.8,0.8-0.8,0.8s-3.8,0-4.5,0
		C157.3,56,157.3,55.3,157.3,55.3"/>
	<path id="XMLID_34_" class="st0" d="M187.8,51.5c3.5,0,4.7-3,4.7-4.8c0-2.3-1.5-4.7-4.7-4.7s-4.6,2.7-4.6,4.8
		C183.2,48.5,184.5,51.5,187.8,51.5 M198.1,38.2c0,0,0,16.3,0,17.1c0,0.8-0.8,0.8-0.8,0.8s-3.1,0-3.9,0s-0.8-0.8-0.8-0.8v-1.2h-0.1
		c-0.9,1.8-3.3,2.7-5.4,2.7c-5.9,0-9.4-4.6-9.4-10c0-6.1,4.4-9.9,9.4-9.9c3.1,0,4.8,1.5,5.4,2.6h0.1c0,0,0-0.5,0-1.2
		c0-0.8,0.9-0.8,0.9-0.8h3.9C198.1,37.4,198.1,38.2,198.1,38.2"/>
	<path id="XMLID_37_" class="st0" d="M207.4,38.2c0,0,0,16.3,0,17.1c0,0.8-0.8,0.8-0.8,0.8h-4c-0.8,0-0.8-0.8-0.8-0.8s0-16.3,0-17.1
		s0.8-0.8,0.8-0.8s3.3,0,4,0S207.4,38.2,207.4,38.2 M207.4,32c0,0,0,1.9,0,2.7s-0.8,0.8-0.8,0.8s-3.1,0-4,0c-0.8,0-0.8-0.8-0.8-0.8
		s0-1.9,0-2.7s0.8-0.8,0.8-0.8s3.3,0,4,0S207.4,32,207.4,32"/>
	<path id="XMLID_38_" class="st0" d="M211.1,55.3c0,0,0-22.5,0-23.3s0.8-0.8,0.8-0.8s3.2,0,4,0s0.8,0.8,0.8,0.8s0,22.5,0,23.3
		s-0.8,0.8-0.8,0.8s-3,0-3.9,0C211.1,56,211.1,55.3,211.1,55.3"/>
	<path id="XMLID_39_" class="st0" d="M219.8,37.4c0,0,3.4,0,4.2,0c0.8,0,1,0.8,1,0.8l2.6,10.8h0.1c0,0,2.7-10.1,2.9-10.8
		c0.2-0.8,1-0.8,1-0.8s2.4,0,3.2,0c0.8,0,1,0.8,1,0.8l2.9,10.8h0.1c0,0,2.4-10,2.6-10.8s1-0.8,1-0.8s3.4,0,4.1,0s0.5,0.8,0.5,0.8
		s-5,16.3-5.2,17.1c-0.3,0.8-1,0.8-1,0.8s-2.8,0-3.6,0c-0.8,0-1-0.8-1-0.8L233.3,44h-0.1c0,0-2.7,10.5-2.9,11.3
		c-0.2,0.8-1,0.8-1,0.8s-2.8,0-3.6,0c-0.8,0-1-0.8-1-0.8s-5-16.2-5.2-17.1C219,37.3,219.8,37.4,219.8,37.4"/>
	<path id="XMLID_42_" class="st0" d="M257.8,51.5c3.5,0,4.7-3,4.7-4.8c0-2.2-1.5-4.7-4.7-4.7c-3.2,0-4.6,2.7-4.6,4.8
		C253.1,48.5,254.4,51.5,257.8,51.5 M268,38.2c0,0,0,16.3,0,17.1s-0.8,0.8-0.8,0.8h-4c-0.8,0-0.8-0.8-0.8-0.8v-1.2h-0.1
		c-0.9,1.8-3.3,2.7-5.4,2.7c-5.9,0-9.4-4.6-9.4-10c0-6.1,4.4-9.9,9.4-9.9c3.1,0,4.8,1.5,5.4,2.6h0.1v-1.2c0-0.8,0.8-0.8,0.8-0.8
		s3.2,0,3.9,0C268,37.4,268,38.2,268,38.2"/>
	<path id="XMLID_43_" class="st0" d="M284.4,37.4c0,0,3.6,0,4.3,0c0.8,0,0.5,0.8,0.5,0.8s-8.4,22.5-8.8,23.3
		c-0.3,0.8-1.1,0.8-1.1,0.8s-3.5,0-4.3,0s-0.5-0.8-0.5-0.8l2.6-6.4c0,0-6.3-16.2-6.6-16.9c-0.3-0.8,0.5-0.8,0.5-0.8s3.5,0,4.3,0
		s1.1,0.8,1.1,0.8l3.5,10h0.1c0,0,3.1-9.3,3.3-10C283.6,37.4,284.4,37.4,284.4,37.4"/>
	<path id="XMLID_44_" class="st0" d="M157.3,24.2c0,0,0-22.5,0-23.3s0.8-0.8,0.8-0.8s3.3,0,3.9,0c0.8,0,1.3,0.8,1.3,0.8l9.2,14.9
		v-0.1V0.9c0-0.8,0.8-0.8,0.8-0.8s3.4,0,4.2,0c0.8,0,0.8,0.8,0.8,0.8s0,22.5,0,23.3s-0.8,0.8-0.8,0.8s-3.7,0-4.2,0
		c-0.6,0-1-0.8-1-0.8l-9-14.3l0,0c0,0,0,13.5,0,14.3s-0.8,0.8-0.8,0.8s-3.6,0-4.3,0C157.3,25,157.3,24.2,157.3,24.2"/>
	<path id="XMLID_47_" class="st0" d="M191.4,20.4c3.5,0,4.7-3,4.7-4.8c0-2.3-1.5-4.7-4.7-4.7s-4.6,2.7-4.6,4.8
		C186.7,17.4,188,20.4,191.4,20.4 M201.6,7.1c0,0,0,16.3,0,17.1s-0.8,0.8-0.8,0.8s-3.3,0-4,0c-0.8,0-0.8-0.8-0.8-0.8V23h-0.1
		c-0.9,1.8-3.3,2.7-5.4,2.7c-5.9,0-9.4-4.6-9.4-10c0-6.1,4.4-9.9,9.4-9.9c3.1,0,4.8,1.5,5.4,2.6h0.1c0,0,0-0.4,0-1.2
		s0.8-0.8,0.8-0.8s3.2,0,4,0C201.6,6.3,201.6,7.1,201.6,7.1"/>
	<path id="XMLID_50_" class="st0" d="M208.1,0.1c0,0,3.2,0,4,0s0.8,0.8,0.8,0.8 M212.9,0.9v5.4c0,0,1.1,0,1.9,0s0.8,0.8,0.8,0.8
		s0,1.9,0,2.7s-0.8,0.8-0.8,0.8h-1.9c0,0,0,12.8,0,13.6s-0.8,0.8-0.8,0.8s-3.2,0-4,0s-0.8-0.8-0.8-0.8V10.6c0,0-1.2,0-2,0
		s-0.8-0.8-0.8-0.8s0-1.9,0-2.7s0.8-0.8,0.8-0.8h2c0,0,0-4.7,0-5.4c0-0.8,0.8-0.8,0.8-0.8"/>
	<path id="XMLID_53_" class="st0" d="M224.1,7.1c0,0,0,16.3,0,17.1s-0.8,0.8-0.8,0.8s-3.3,0-4,0c-0.8,0-0.8-0.8-0.8-0.8
		s0-16.3,0-17.1s0.8-0.8,0.8-0.8s3.2,0,4,0C224.1,6.3,224.1,7.1,224.1,7.1 M224.1,0.9c0,0,0,1.9,0,2.7s-0.8,0.8-0.8,0.8h-4
		c-0.8,0-0.8-0.8-0.8-0.8s0-1.9,0-2.7s0.8-0.8,0.8-0.8s3.2,0,4,0S224.1,0.9,224.1,0.9"/>
	<path id="XMLID_56_" class="st0" d="M236.9,20.3c2.4,0,4.5-2,4.5-4.7s-2-4.7-4.5-4.7c-2.4,0-4.5,2-4.5,4.7
		C232.5,18.3,234.5,20.3,236.9,20.3 M236.9,5.7c6.8,0,10,5.3,10,9.9c0,4.6-3.3,9.9-10,9.9s-10-5.3-10-9.9S230.1,5.7,236.9,5.7"/>
	<path id="XMLID_57_" class="st0" d="M249.6,24.2c0,0,0-16.3,0-17.1s0.8-0.8,0.8-0.8s2.8,0,3.6,0c0.8,0,0.8,0.8,0.8,0.8v1.2h0.1
		c0.6-0.9,1.7-2.6,5.1-2.6c1.8,0,3.8,0.7,4.8,1.6c1,0.9,2.1,2.4,2.1,6v10.9c0,0.8-0.8,0.8-0.8,0.8s-3.2,0-4,0s-0.8-0.8-0.8-0.8v-9.4
		c0-1.3,0-3.9-2.9-3.9c-3.2,0-3.2,2.8-3.2,3.9v9.4c0,0.8-0.8,0.8-0.8,0.8s-3.2,0-4,0C249.6,25,249.6,24.2,249.6,24.2"/>
	<path id="XMLID_60_" class="st0" d="M280,20.4c3.5,0,4.7-3,4.7-4.8c0-2.2-1.5-4.7-4.7-4.7s-4.6,2.7-4.6,4.8
		C275.4,17.4,276.6,20.4,280,20.4 M290.2,7.1c0,0,0,16.3,0,17.1s-0.8,0.8-0.8,0.8s-3.2,0-4,0s-0.8-0.8-0.8-0.8V23h-0.1
		c-0.9,1.8-3.3,2.7-5.4,2.7c-5.9,0-9.4-4.6-9.4-10c0-6.1,4.4-9.9,9.4-9.9c3.1,0,4.8,1.5,5.4,2.6h0.1c0,0,0-0.4,0-1.2
		s0.8-0.8,0.8-0.8s3.2,0,4,0C290.2,6.3,290.2,7.1,290.2,7.1"/>
	<path id="XMLID_61_" class="st0" d="M293.5,24.2c0,0,0-22.5,0-23.3s0.8-0.8,0.8-0.8s3.2,0,4,0s0.8,0.8,0.8,0.8s0,22.5,0,23.3
		s-0.8,0.8-0.8,0.8s-3.2,0-4,0S293.5,24.2,293.5,24.2"/>
	<path id="XMLID_62_" class="st0" d="M157.3,86.6c0,0,0-22.6,0-23.3c0-0.7,0.8-0.7,0.8-0.7s5.8,0,6.6,0c0.8,0,1.1,0.8,1.1,0.8
		l4.7,15.6h0.1c0,0,4.4-14.8,4.6-15.6c0.2-0.8,1-0.8,1-0.8h6.7c0.8,0,0.8,0.8,0.8,0.8s0,22.5,0,23.3s-0.8,0.8-0.8,0.8s-3.3,0-4.1,0
		c-0.8,0-0.8-0.8-0.8-0.8V68.9v-0.2c0,0-4.9,17-5.2,17.9c-0.2,0.9-1,0.8-1,0.8s-1.8,0-2.6,0c-0.8,0-1-0.8-1-0.8l-5.1-17.9v0.1
		c0,0,0,17,0,17.8s-0.8,0.8-0.8,0.8s-3.3,0-4.1,0C157.3,87.4,157.3,86.6,157.3,86.6"/>
	<path id="XMLID_63_" class="st0" d="M204,69.6c0,0,0,16.3,0,17.1c0,0.8-0.8,0.8-0.8,0.8s-2.7,0-3.6,0s-0.9-0.8-0.9-0.8v-1.2h-0.1
		c-1.1,2.4-3.4,2.6-4.8,2.6c-1.1,0-3.8-0.3-5.5-2.4c-1.5-1.8-1.7-3.2-1.7-5.7c0,0,0-9.6,0-10.4s0.8-0.8,0.8-0.8s3.2,0,4,0
		s0.8,0.8,0.8,0.8v9.5c0,1.3,0,3.7,3,3.7c1.6,0,3.2-0.8,3.2-3.8c0,0,0-8.7,0-9.5s0.8-0.8,0.8-0.8s3.2,0,4,0
		C204,68.8,204,69.6,204,69.6"/>
	<path id="XMLID_66_" class="st0" d="M241.1,75.7c-0.2-1.1-1.3-3.2-4.2-3.2c-2.9,0-4,2.1-4.2,3.2H241.1z M241.1,81.3
		c0.6,0,3.3,0,4.2,0c0.9,0,0.6,0.5,0.4,0.8c-0.9,1.7-2.1,3.1-3.4,4c-1.5,1.1-3.4,1.7-5.3,1.7c-5.3,0-9.9-4.3-9.9-9.9
		c0-5.2,4.1-10,9.8-10c5.7,0,9.8,4.5,9.8,10.2v0.7c0,0.3,0,0.8-0.8,0.8s-13.3,0-13.3,0c0.3,2.2,2.2,3.5,4.4,3.5c1.2,0,2.1-0.4,2.7-1
		C239.9,81.8,240.3,81.3,241.1,81.3"/>
	<path id="XMLID_67_" class="st0" d="M266.9,69.6c0,0,0,16.3,0,17.1c0,0.8-0.8,0.8-0.8,0.8s-2.9,0-3.7,0c-0.8,0-0.8-0.8-0.8-0.8
		v-1.2h-0.1c-1.1,2.4-3.4,2.6-4.8,2.6c-1.1,0-3.8-0.3-5.5-2.4c-1.5-1.8-1.7-3.2-1.7-5.7c0,0,0-9.5,0-10.3s0.7-0.8,0.7-0.8h4.1
		c0.7,0,0.8,0.8,0.8,0.8v9.5c0,1.3,0,3.7,3,3.7c1.6,0,3.2-0.8,3.2-3.8v-9.5c0-0.8,0.7-0.8,0.7-0.8s3.3,0,4.1,0
		C266.9,68.8,266.9,69.6,266.9,69.6"/>
	<path id="XMLID_68_" class="st0" d="M270.6,86.6V69.5c0-0.8,0.8-0.8,0.8-0.8s2.8,0,3.6,0c0.8,0,0.8,0.8,0.8,0.8v1.2h0.1
		c0.4-0.8,1.6-2.6,5.1-2.6c1.6,0,3.9,0.6,5.4,3.3c1.1-1.8,3.1-3.3,5.9-3.3c1.3,0,3.4,0.3,4.9,1.9c1.7,1.8,2,3.1,2,7.2
		c0,0,0,8.6,0,9.4s-0.8,0.8-0.8,0.8s-3.3,0-4.1,0c-0.8,0-0.7-0.8-0.7-0.8v-9.1c0-1.5,0-4.1-2.9-4.1c-3.1,0-3.1,2.8-3.1,3.9
		c0,0,0,8.6,0,9.4s-0.8,0.8-0.8,0.8s-3.3,0-4,0c-0.8,0-0.8-0.8-0.8-0.8v-9.3c0-1,0-3.9-2.8-3.9c-3.2,0-3.2,3-3.2,4.1
		c0,0,0,8.4,0,9.1c0,0.8-0.8,0.8-0.8,0.8h-4C270.5,87.4,270.6,86.6,270.6,86.6"/>
	<path id="XMLID_69_" class="st0" d="M218.7,75.9c-0.5-0.1-1-0.2-1.4-0.3c-2.3-0.5-4.3-0.9-4.3-2.3c0-1,0.9-1.5,2.7-1.5
		c1.9,0,2.9,0.6,3.2,1.8c0,0.2,0.1,0.8,0.9,0.8s3,0,3.7,0c0.8,0,0.8-0.6,0.7-0.8c-0.6-3.7-3.5-5.7-8.5-5.7c-3.9,0-8.4,1.1-8.4,6.3
		c0,3.4,3,4.6,6.2,5.3c3.6,0.8,5.7,1.3,5.7,2.7c0,1.6-1.7,2.2-3.2,2.2c-0.8,0-3.3-0.2-3.7-2.4c0-0.2-0.1-0.8-0.9-0.8s-2.9,0-3.7,0
		c-0.8,0-0.8,0.6-0.7,0.8c0.4,4,3.7,6.3,9.1,6.3c2.7,0,8.8-0.7,8.8-6.8C224.9,77.8,221.9,76.7,218.7,75.9"/>
</g>
</svg>
