<?xml version="1.0" encoding="utf-8"?>
<!-- Generator: Adobe Illustrator 26.0.0, SVG Export Plug-In . SVG Version: 6.00 Build 0)  -->
<svg version="1.1" id="logo" xmlns="http://www.w3.org/2000/svg" xmlns:xlink="http://www.w3.org/1999/xlink" x="0px" y="0px"
	 viewBox="0 0 730.76 177.7" style="enable-background:new 0 0 730.76 177.7;" xml:space="preserve">
<style type="text/css">
	.st0{fill:#FAFFEE;}
	.st1{fill:#B7B75E;}
	.st2{fill:#E5D889;}
</style>
<g>
	<g>
		<path class="st0" d="M220.36,58.28h15.68v9.44c5.28-6.88,12.96-11.36,23.2-11.36c13.12,0,22.56,6.72,28,16.16
			c6.4-9.6,16.32-16.16,28.96-16.16c22.08,0,33.76,18.88,33.76,38.24v44.8h-15.68V94.6c0-11.84-7.36-22.56-19.52-22.56
			c-15.04,0-21.76,12.8-21.76,27.04v40.32h-15.68V94.6c0-11.84-7.36-22.56-19.52-22.56c-15.04,0-21.76,12.8-21.76,27.04v40.32
			h-15.68V58.28z"/>
		<path class="st0" d="M364.36,98.76c0-23.52,17.92-42.4,41.44-42.4c23.04,0,43.84,17.76,41.28,49.12H381
			c3.04,11.52,13.6,20,26.56,20c9.28,0,17.76-3.68,23.2-10.72l13.76,6.72c-7.52,12.32-21.6,19.68-36.96,19.68
			C383.56,141.16,364.36,122.28,364.36,98.76z M430.6,91.24c-2.72-12.32-12.32-19.2-24.8-19.2c-12.32,0-21.76,8-24.64,19.2H430.6z
			 M407.4,27.56h15.36L408.84,49.8H397L407.4,27.56z"/>
		<path class="st0" d="M461.64,58.28h15.68V71.4c5.92-9.76,15.2-14.88,27.52-14.88V72.2c-17.44,0-27.52,8.48-27.52,34.08v33.12
			h-15.68V58.28z"/>
		<path class="st0" d="M518.44,101.8V58.28h15.68v43.52c0,14.4,9.44,23.84,21.6,23.84c15.52,0,24.64-12.96,24.64-28.48V58.28h15.68
			v81.12h-15.68v-11.04c-5.92,8-14.56,12.96-26.08,12.96C532.36,141.32,518.44,123.72,518.44,101.8z"/>
		<path class="st0" d="M613.64,20.2h15.68v119.2h-15.68V20.2z"/>
		<path class="st0" d="M643.72,98.76c0-23.52,18.24-42.4,41.76-42.4c12.32,0,22.4,5.28,29.6,12.8V58.28h15.68v81.12h-15.68v-11.04
			c-7.2,7.68-17.28,12.8-29.6,12.8C661.96,141.16,643.72,122.28,643.72,98.76z M686.92,125.48c14.88,0,27.52-11.84,27.52-26.72
			c0-14.88-12.64-26.72-27.52-26.72c-14.88,0-27.36,11.84-27.36,26.72C659.56,113.64,672.04,125.48,686.92,125.48z"/>
	</g>
</g>
<path class="st1" d="M177.7,0c-49.07,0-88.85,39.78-88.85,88.85v0v88.85h0c49.07,0,88.85-39.78,88.85-88.85v0L177.7,0L177.7,0z"/>
<path class="st2" d="M0,177.7h88.85V88.85h0C39.78,88.85,0,128.63,0,177.7L0,177.7z"/>
</svg>
