<svg xmlns="http://www.w3.org/2000/svg" viewBox="0 0 623.62 184.25"><defs><style>.cls-1{fill:#0c0c0c;}.cls-2{fill:#c00;}</style></defs><g id="NAMING"><g id="Camada_4" data-name="Camada 4"><path class="cls-1" d="M269.29,30.07h14.28V99h43.06v13H269.29Z"/><path class="cls-1" d="M377.88,112v-7.6a26.3,26.3,0,0,1-8.07,6.31,25.44,25.44,0,0,1-11.94,2.58,28.34,28.34,0,0,1-8.42-1.23,20.69,20.69,0,0,1-7-3.63,17.66,17.66,0,0,1-6.62-14.22V94a19.41,19.41,0,0,1,1.88-8.78A17.07,17.07,0,0,1,343,79a23.46,23.46,0,0,1,8-3.68,38.83,38.83,0,0,1,10-1.23,54.89,54.89,0,0,1,9.53.7A57.84,57.84,0,0,1,378,76.64V75.12q0-6.44-3.92-9.83T362.79,61.9A37.82,37.82,0,0,0,353.43,63a61.19,61.19,0,0,0-8.31,2.81l-3.86-11.35a65.42,65.42,0,0,1,10.53-3.75,52.41,52.41,0,0,1,13-1.4q13.8,0,20.48,6.85t6.67,19.24V112Zm.36-26.21A36.93,36.93,0,0,0,371.86,84a42.24,42.24,0,0,0-7.78-.7q-6.68,0-10.42,2.58a8.38,8.38,0,0,0-3.74,7.37v.23a7.69,7.69,0,0,0,3.45,6.79,14.77,14.77,0,0,0,8.48,2.34,21.45,21.45,0,0,0,6.5-.94,16.63,16.63,0,0,0,5.2-2.63A11.89,11.89,0,0,0,377,95a11.52,11.52,0,0,0,1.23-5.33Z"/><path class="cls-2" d="M463,112,442.77,83.43H424.69V112H410.41V30.07h36.51a41.58,41.58,0,0,1,12.7,1.81,27.74,27.74,0,0,1,9.6,5.15,22.19,22.19,0,0,1,6,8.19,26.86,26.86,0,0,1,2.11,10.83,27,27,0,0,1-1.46,9.18,24,24,0,0,1-4,7.14,24.58,24.58,0,0,1-6.14,5.27,30.67,30.67,0,0,1-7.9,3.33l22.11,31Zm-4.7-65.46q-4.45-3.47-12.56-3.46h-21V70.67h21.13q7.74,0,12.32-3.76a12.39,12.39,0,0,0,4.58-10.1C462.72,52.26,461.23,48.84,458.26,46.52Z"/><path class="cls-2" d="M509.06,97.76a17.52,17.52,0,0,0,11.7,4,20.69,20.69,0,0,0,9.13-1.87,29.65,29.65,0,0,0,7.61-5.5l8.31,7.37a34.4,34.4,0,0,1-10.59,8.43,31.88,31.88,0,0,1-14.69,3.16,32.92,32.92,0,0,1-12.46-2.34,29.93,29.93,0,0,1-16.8-16.68,34.13,34.13,0,0,1-2.45-13.16A35.07,35.07,0,0,1,491,68.68a31.35,31.35,0,0,1,6.26-10.23,30.21,30.21,0,0,1,9.54-7A28.41,28.41,0,0,1,519,48.91a29.43,29.43,0,0,1,12.93,2.69,26.55,26.55,0,0,1,9.24,7.26,31.47,31.47,0,0,1,5.56,10.64,43.1,43.1,0,0,1,1.87,12.76c0,.62,0,1.25-.05,1.87s-.1,1.29-.18,2H503Q504.26,93.73,509.06,97.76Zm25.51-21a24.1,24.1,0,0,0-1.52-6.38,16.33,16.33,0,0,0-3.16-5.15,15.15,15.15,0,0,0-4.74-3.45,14.56,14.56,0,0,0-6.26-1.29A14.27,14.27,0,0,0,508.07,65a20.29,20.29,0,0,0-5.21,11.76Z"/><path class="cls-2" d="M609.35,112v-10.3a32.13,32.13,0,0,1-8.47,8.2,22.12,22.12,0,0,1-12.55,3.39,27.6,27.6,0,0,1-10.62-2.11,26.22,26.22,0,0,1-9.11-6.26,32.33,32.33,0,0,1-6.42-10.12,35.87,35.87,0,0,1-2.45-13.69,36.67,36.67,0,0,1,2.39-13.69,31.35,31.35,0,0,1,6.37-10.12A26.2,26.2,0,0,1,577.65,51a28.23,28.23,0,0,1,10.68-2.1q7.59,0,12.61,3.28a34.66,34.66,0,0,1,8.41,7.6V26.56h14.27V112ZM608.12,72.9a19.83,19.83,0,0,0-3.91-6.26,16.71,16.71,0,0,0-5.71-4,16.9,16.9,0,0,0-6.77-1.4,17.57,17.57,0,0,0-6.82,1.34,16.8,16.8,0,0,0-5.66,3.92,18.63,18.63,0,0,0-3.85,6.26A23.55,23.55,0,0,0,574,81.09a23.18,23.18,0,0,0,1.39,8.25,18.63,18.63,0,0,0,3.85,6.26,17.41,17.41,0,0,0,5.66,4,17.19,17.19,0,0,0,13.59,0,16.71,16.71,0,0,0,5.71-4,19.83,19.83,0,0,0,3.91-6.26,23.7,23.7,0,0,0,0-16.38Z"/><path class="cls-1" d="M284.64,154.91v-3.19a8.68,8.68,0,0,1-7.3,3.64c-3.56,0-7.38-2-7.38-6v-.07c0-4,3.4-6.22,8.35-6.22a23.29,23.29,0,0,1,6.33.82v-.82c0-3.86-2.36-5.85-6.29-5.85a12.79,12.79,0,0,0-6,1.54l-.67-1.61a15.42,15.42,0,0,1,6.78-1.65c4.91,0,8,2.55,8,7.49v11.92Zm0-9.33a25.45,25.45,0,0,0-6.48-.86c-4.05,0-6.3,1.8-6.3,4.46v.07c0,2.77,2.63,4.38,5.55,4.38,3.89,0,7.23-2.39,7.23-5.88Z"/><path class="cls-1" d="M301.43,161a14.42,14.42,0,0,1-8.77-2.93l1.09-1.49a12.45,12.45,0,0,0,7.71,2.69c4.39,0,7.5-2.51,7.5-7.41v-2.78a9.51,9.51,0,0,1-8,4.42,9,9,0,0,1-9.18-9v-.07a9.09,9.09,0,0,1,9.18-9.07,9.5,9.5,0,0,1,8,4.27V135.8h1.83V152C310.79,157.75,306.86,161,301.43,161Zm7.64-16.6c0-4.42-3.93-7.27-7.9-7.27a7.07,7.07,0,0,0-7.39,7.23v.08a7.26,7.26,0,0,0,7.39,7.3c4,0,7.9-2.92,7.9-7.26Z"/><path class="cls-1" d="M325.89,153.63a8.6,8.6,0,0,0,6.56-3l1.27,1.12a10,10,0,0,1-7.9,3.6c-5,0-9.37-4-9.37-10v-.07c0-5.55,3.9-10,9.07-10,5.36,0,8.77,4.35,8.77,10v.08a4,4,0,0,1,0,.67H318.4C318.74,150.86,322.15,153.63,325.89,153.63Zm6.41-9.17c-.26-3.86-2.47-7.42-6.86-7.42-3.78,0-6.7,3.18-7,7.42Zm-9.7-11.84h-1.69l3.75-4.57h1.5l3.74,4.57h-1.76l-2.77-2.55Z"/><path class="cls-1" d="M354.18,154.91V143.56c0-3.94-2.21-6.52-6.07-6.52a6.55,6.55,0,0,0-6.63,6.82v11h-1.83V135.8h1.83v3.56a7.49,7.49,0,0,1,6.9-4c4.83,0,7.64,3.3,7.64,7.87v11.69Z"/><path class="cls-1" d="M371,155.36a9.84,9.84,0,0,1-9.74-9.93v-.08a9.93,9.93,0,0,1,9.74-10,10.05,10.05,0,0,1,7.65,3.52l-1.31,1.35c-1.65-1.68-3.53-3.14-6.37-3.14a7.89,7.89,0,0,0-7.72,8.2v.07a8,8,0,0,0,7.87,8.28,8.53,8.53,0,0,0,6.4-3.18l1.28,1.12A9.85,9.85,0,0,1,371,155.36Z"/><path class="cls-1" d="M384.05,130.82v-2.51h2.28v2.51Zm.22,24.09V135.8h1.84v19.11Z"/><path class="cls-1" d="M406.45,154.91v-3.19a8.68,8.68,0,0,1-7.3,3.64c-3.56,0-7.38-2-7.38-6v-.07c0-4,3.41-6.22,8.35-6.22a23.23,23.23,0,0,1,6.33.82v-.82c0-3.86-2.36-5.85-6.29-5.85a12.85,12.85,0,0,0-6,1.54l-.67-1.61a15.42,15.42,0,0,1,6.78-1.65c4.91,0,8,2.55,8,7.49v11.92Zm0-9.33a25.45,25.45,0,0,0-6.48-.86c-4.05,0-6.3,1.8-6.3,4.46v.07c0,2.77,2.63,4.38,5.55,4.38,3.9,0,7.23-2.39,7.23-5.88Z"/><path class="cls-1" d="M435.79,155.36a9.22,9.22,0,0,1-7.87-4.57V160.9h-1.83V135.8h1.83v4.27c1.65-2.51,4.09-4.72,7.87-4.72,4.61,0,9.29,3.71,9.29,9.93v.07C445.08,151.57,440.4,155.36,435.79,155.36Zm7.31-10c0-5-3.49-8.24-7.5-8.24a8,8,0,0,0-7.79,8.21v.07a8,8,0,0,0,7.79,8.21c4.16,0,7.5-3,7.5-8.17Z"/><path class="cls-1" d="M465,154.91v-3.56a7.49,7.49,0,0,1-6.9,4c-4.83,0-7.64-3.3-7.64-7.87V135.8h1.84v11.35c0,3.94,2.21,6.52,6.07,6.52a6.55,6.55,0,0,0,6.63-6.82v-11h1.83v19.11Z"/><path class="cls-1" d="M483.49,155.36a9.21,9.21,0,0,1-7.87-4.57v4.12h-1.83V127.56h1.83v12.51c1.65-2.51,4.08-4.72,7.87-4.72,4.61,0,9.29,3.71,9.29,9.93v.07C492.78,151.57,488.1,155.36,483.49,155.36Zm7.3-10c0-5-3.48-8.24-7.49-8.24a8,8,0,0,0-7.79,8.21v.07a8,8,0,0,0,7.79,8.21c4.16,0,7.49-3,7.49-8.17Z"/><path class="cls-1" d="M498.78,154.91V127.56h1.83v27.35Z"/><path class="cls-1" d="M507.88,130.82v-2.51h2.29v2.51Zm.23,24.09V135.8h1.83v19.11Z"/><path class="cls-1" d="M525.6,155.36a9.84,9.84,0,0,1-9.74-9.93v-.08a9.92,9.92,0,0,1,9.74-10,10.05,10.05,0,0,1,7.65,3.52l-1.32,1.35c-1.64-1.68-3.52-3.14-6.36-3.14a7.89,7.89,0,0,0-7.72,8.2v.07a8,8,0,0,0,7.87,8.28,8.53,8.53,0,0,0,6.4-3.18l1.28,1.12A9.86,9.86,0,0,1,525.6,155.36Z"/><path class="cls-1" d="M538.61,130.82v-2.51h2.28v2.51Zm.22,24.09V135.8h1.84v19.11Z"/><path class="cls-1" d="M554.27,155.24c-3,0-5.36-1.61-5.36-5.24V137.49h-2.77V135.8h2.77v-6.11h1.84v6.11h6.7v1.69h-6.7v12.32c0,2.74,1.61,3.71,3.82,3.71a6.52,6.52,0,0,0,2.81-.67v1.72A7,7,0,0,1,554.27,155.24Z"/><path class="cls-1" d="M576,154.91v-3.19a8.68,8.68,0,0,1-7.31,3.64c-3.56,0-7.38-2-7.38-6v-.07c0-4,3.41-6.22,8.36-6.22a23.29,23.29,0,0,1,6.33.82v-.82c0-3.86-2.36-5.85-6.3-5.85a12.78,12.78,0,0,0-6,1.54l-.67-1.61a15.35,15.35,0,0,1,6.78-1.65c4.91,0,8,2.55,8,7.49v11.92Zm0-9.33a25.47,25.47,0,0,0-6.49-.86c-4,0-6.29,1.8-6.29,4.46v.07c0,2.77,2.62,4.38,5.55,4.38,3.89,0,7.23-2.39,7.23-5.88Zm-7-13,3.3-5,2.29,1.13-4,3.86Z"/><path class="cls-1" d="M594.51,137.52c-4.42,0-8.28,3.34-8.28,9.56v7.83h-1.84V135.8h1.84v5.43a9,9,0,0,1,8.47-5.73v2Z"/><path class="cls-1" d="M599.42,130.82v-2.51h2.28v2.51Zm.22,24.09V135.8h1.84v19.11Z"/><path class="cls-1" d="M621.82,154.91v-3.19a8.68,8.68,0,0,1-7.3,3.64c-3.56,0-7.38-2-7.38-6v-.07c0-4,3.41-6.22,8.35-6.22a23.23,23.23,0,0,1,6.33.82v-.82c0-3.86-2.36-5.85-6.29-5.85a12.78,12.78,0,0,0-6,1.54l-.68-1.61a15.42,15.42,0,0,1,6.78-1.65c4.91,0,8,2.55,8,7.49v11.92Zm0-9.33a25.38,25.38,0,0,0-6.48-.86c-4,0-6.29,1.8-6.29,4.46v.07c0,2.77,2.62,4.38,5.54,4.38,3.9,0,7.23-2.39,7.23-5.88Z"/></g></g><g id="TENTATIVAS"><g id="simbolo_LR_invertido" data-name="simbolo LR invertido"><g id="simbolo_pt3" data-name="simbolo pt3"><polygon class="cls-2" points="240.94 184.25 218.41 184.25 139.49 118.45 162.03 118.45 240.94 184.25"/><polygon class="cls-2" points="152.18 26.32 139.49 26.32 139.49 92.13 139.49 105.29 152.18 105.29 190.22 105.29 190.22 92.13 152.18 92.13 152.18 26.32"/><path class="cls-2" d="M190.22,0V13.16c21,0,38,17.68,38,39.48s-17,39.49-38,39.49v13.16c28,0,50.72-23.57,50.72-52.65S218.23,0,190.22,0Z"/><path class="cls-2" d="M114.13,0V171.09H50.73c-21,0-38-17.68-38-39.48s17-39.48,38.05-39.48h38v65.8h12.68V79H50.73C22.71,79,0,102.53,0,131.61s22.71,52.64,50.73,52.64h76.08V13.16h63.41V0H114.13Z"/><polygon class="cls-2" points="0 0 22.54 0 101.45 65.8 78.91 65.8 0 0"/></g></g></g></svg>