<?xml version="1.0" encoding="utf-8"?>
<!-- Generator: Adobe Illustrator 24.1.1, SVG Export Plug-In . SVG Version: 6.00 Build 0)  -->
<svg version="1.1" id="_x33_" xmlns="http://www.w3.org/2000/svg" xmlns:xlink="http://www.w3.org/1999/xlink" x="0px" y="0px"
	 viewBox="0 0 425.06 184.25" style="enable-background:new 0 0 425.06 184.25;" xml:space="preserve">
<style type="text/css">
	.st0{fill:#F0F0F0;}
</style>
<polygon class="st0" points="333,184.25 310.47,184.25 231.55,118.45 254.09,118.45 "/>
<path class="st0" d="M282.28,0.29C280.32,0.1,278.33,0,276.32,0H206.2v171.09h-63.41c-10.51,0-20.01-4.42-26.9-11.56
	c-6.88-7.15-11.14-17.01-11.14-27.92c0-21.81,17.03-39.48,38.04-39.48h38.04v65.8h12.69V78.97h-50.73
	c-28.01,0-50.73,23.57-50.73,52.64s22.72,52.64,50.73,52.64h76.09V13.16h57.44c23.48,0,42.52,17.68,42.52,39.48
	c0,21.81-19.04,39.49-42.52,39.49h-32.08V26.32h-12.68v78.97h44.76c2.01,0,4-0.1,5.96-0.29c28.51-2.76,50.73-25.15,50.73-52.36
	C333.01,25.44,310.79,3.05,282.28,0.29z"/>
<polygon class="st0" points="92.06,0 114.6,0 193.51,65.8 170.97,65.8 "/>
</svg>
