<?xml version="1.0" encoding="utf-8"?>
<!-- Generator: Adobe Illustrator 24.1.1, SVG Export Plug-In . SVG Version: 6.00 Build 0)  -->
<svg version="1.1" id="Camada_1" xmlns="http://www.w3.org/2000/svg" xmlns:xlink="http://www.w3.org/1999/xlink" x="0px" y="0px"
	 viewBox="0 0 2500 1499.3" style="enable-background:new 0 0 2500 1499.3;" xml:space="preserve">
<style type="text/css">
	.st0{fill-rule:evenodd;clip-rule:evenodd;fill:#691EC1;}
	.st1{fill-rule:evenodd;clip-rule:evenodd;fill:#8B54E2;}
	.st2{fill-rule:evenodd;clip-rule:evenodd;fill:#C2A9FF;}
</style>
<g>
	<path class="st0" d="M391.4,822.3c-44,208.9,40.4,422.7,230.8,560.3c181.9,128.2,433.3,159.4,648,50.1
		c139.4-74.4,225.7-188.3,228.1-324.8c5.4-69.5-14.4-143.3-76-204.3c-36.4-32.8-84-58.2-137.1-74c-75.4-12.9-159.2,0.5-200.9,61.1
		c-11.1,19.3-13.8,48.1,8.5,57.3c47.6,13.5,95,15,131.5,47.8c22.3,21.2,36.4,44.7,42.1,71c11.4,76.3-27.5,144-102.7,190.9
		c-133.8,76.7-298.6,62.9-424.6-18.4C593.4,1144,528.7,992,547.8,838.5C569.7,692.2,653.1,559.1,784,463.4
		c142.1-103.1,312.4-147,496.6-167c36.3-3.2,75.4,12.9,94.9-9c11.1-7.4-14-11.7-19.6-14c-69.8-10.7-131.3-23.9-203.9-17.7
		c-67,8.4-125.6,14.3-189.8,29.9C669.2,362.6,440.9,567.8,391.4,822.3L391.4,822.3z"/>
	<path class="st1" d="M680,300c-146.7,155.2-186.2,381.6-95.7,598.3c88.2,204.3,286.3,362.2,526.5,381.2
		c157.7,9.4,290.8-42.8,364.1-158c40.9-56.4,62.5-129.7,41.8-213.9c-13.9-47-41.2-93.5-78.2-134.7c-57.6-50.4-136.1-82.6-203.3-52.7
		c-19.6,10.7-37,33.8-22.6,53.3c33.5,36.4,73.3,62.4,87.1,109.4c8.1,29.7,7.7,57.2-1.1,82.5c-30.1,71.1-98.7,108.5-187.3,109.1
		c-154.2-4.4-287.6-102.1-352.5-237.3c-74.4-157.3-50.2-320.7,46.2-441.6c95-113.4,235.6-183.4,397.3-196.6
		c175.1-13.8,343.1,37.7,510.7,116.7c32.6,16.3,57.6,50.5,85.7,41.9c13.3-0.5-5.8-17.2-9.5-22.2c-54-45.5-99.5-88.9-164.6-121.6
		c-61.5-27.8-114.6-53.4-177.5-73.6C1157,53,855.1,108.8,680,300L680,300z"/>
	<path class="st2" d="M1403,0.1C1189.4-4.7,995,117.7,894.7,330c-92.4,202.4-76.9,455.3,70,646.2
		c98.8,123.4,226.7,187.2,361.3,164.4c69.2-7.5,138.2-40.5,186.8-112.3c25.5-41.9,41.8-93.3,47.4-148.4
		c-1.1-76.5-29.8-156.4-97-186.2c-21.1-7.3-49.8-4.7-54.7,19c-4.5,49.2,2.8,96.2-22.8,138c-16.7,25.9-37.3,44-62,54.4
		c-73,25.3-146.6-0.5-206.6-65.9c-99.9-117.4-116.9-281.9-60-420.7c67-160.6,204.4-252.1,358.7-261.7
		c147.9-5.4,294.1,52.1,412.3,163.1c127.6,120.8,201.9,280,255.7,457.4c9.6,35.1,1.1,76.5,26.3,91.6c9.2,9.7,8.9-15.9,10.1-21.8
		c-2.4-70.6-0.7-133.5-20.1-203.7c-20.6-64.3-37.2-120.8-64.2-181C1905.9,188.7,1662.1,1.9,1403,0.1L1403,0.1z"/>
</g>
</svg>
