<?xml version="1.0" encoding="utf-8"?>
<!-- Generator: Adobe Illustrator 24.1.1, SVG Export Plug-In . SVG Version: 6.00 Build 0)  -->
<svg version="1.1" id="logo" xmlns="http://www.w3.org/2000/svg" xmlns:xlink="http://www.w3.org/1999/xlink" x="0px" y="0px"
	 viewBox="0 0 110.1 90.3" style="enable-background:new 0 0 110.1 90.3;" xml:space="preserve">
<style type="text/css">
	.st0{fill:#E8B023;}
</style>
<polygon class="st0" points="42,25.5 42,25.5 33.6,39.3 42,39.3 42,39.3 92.7,39.3 98.8,39.3 110.1,39.3 86.2,0 68.9,0 84.3,25.5 
	"/>
<polygon class="st0" points="92.7,51.1 42,51.1 42,51 33.6,51 42,64.8 42,64.9 84.3,64.9 68.9,90.3 86.2,90.3 110.1,51.1 98.8,51.1 
	"/>
<polygon class="st0" points="36.5,76.5 21,51.1 20.9,51.1 17.5,45.3 17.4,45.3 36.5,13.8 59.2,13.8 67.6,13.8 59.2,0 44.9,0 28.9,0 
	27.5,0 3.7,39.3 3.7,39.3 0,45.4 0.1,45.4 24,84.6 24,84.6 27.5,90.3 28.9,90.3 44.9,90.3 59.2,90.3 67.6,76.5 59.2,76.5 "/>
</svg>
