<?xml version="1.0" encoding="utf-8"?>
<!-- Generator: Adobe Illustrator 24.1.1, SVG Export Plug-In . SVG Version: 6.00 Build 0)  -->
<svg version="1.1" id="logo" xmlns="http://www.w3.org/2000/svg" xmlns:xlink="http://www.w3.org/1999/xlink" x="0px" y="0px"
	 viewBox="0 0 187.1 90.3" style="enable-background:new 0 0 187.1 90.3;" xml:space="preserve">
<style type="text/css">
	.st0{fill:#090909;}
</style>
<polygon class="st0" points="76.7,25.5 76.7,25.5 68.4,39.3 76.7,39.3 76.7,39.3 127.5,39.3 133.6,39.3 144.9,39.3 121,0 103.7,0 
	119.1,25.5 "/>
<polygon class="st0" points="127.5,51.1 76.7,51.1 76.7,51 68.4,51 76.7,64.8 76.7,64.9 119.1,64.9 103.7,90.3 121,90.3 144.9,51.1 
	133.6,51.1 "/>
<polygon class="st0" points="71.3,76.5 55.8,51.1 55.7,51.1 52.2,45.3 52.2,45.3 71.3,13.8 94,13.8 102.4,13.8 94,0 79.7,0 63.7,0 
	62.3,0 38.5,39.3 38.5,39.3 34.8,45.4 34.9,45.4 58.8,84.6 58.8,84.6 62.3,90.3 63.7,90.3 79.7,90.3 94,90.3 102.4,76.5 94,76.5 "/>
</svg>
