<svg id="logo" xmlns="http://www.w3.org/2000/svg" viewBox="0 0 320.12 90.34"><defs><style>.cls-1{fill:#e8b023;}.cls-2{font-size:48px;fill:#d8d8d8;font-family:LEMONMILK-Medium, LEMON MILK;font-weight:500;}</style></defs><polygon class="cls-1" points="41.95 25.46 41.95 25.5 33.56 39.31 41.95 39.31 41.95 39.27 92.72 39.27 98.8 39.27 110.08 39.27 86.21 0 68.86 0 84.33 25.46 41.95 25.46"/><polygon class="cls-1" points="92.72 51.07 41.95 51.07 41.95 50.99 33.56 50.99 41.95 64.81 41.95 64.88 84.33 64.88 68.86 90.34 86.21 90.34 110.08 51.07 98.8 51.07 92.72 51.07"/><polygon class="cls-1" points="36.49 76.53 21.02 51.07 20.93 51.07 17.45 45.34 17.38 45.34 36.54 13.81 59.24 13.81 67.63 13.81 59.24 0 44.89 0 28.87 0 27.53 0 3.67 39.27 3.72 39.27 0 45.38 0.12 45.38 23.96 84.61 24.05 84.61 27.53 90.34 28.87 90.34 44.89 90.34 59.24 90.34 67.63 76.53 59.24 76.53 36.49 76.53"/><text class="cls-2" transform="translate(117.4 63.3)">CAIOSO</text></svg>