<?xml version="1.0" encoding="utf-8"?>
<!-- Generator: Adobe Illustrator 26.0.0, SVG Export Plug-In . SVG Version: 6.00 Build 0)  -->
<svg version="1.1" id="Camada_5_cópia" xmlns="http://www.w3.org/2000/svg" xmlns:xlink="http://www.w3.org/1999/xlink" x="0px"
	 y="0px" viewBox="0 0 197.1 122.3" style="enable-background:new 0 0 197.1 122.3;" xml:space="preserve">
<style type="text/css">
	.st0{fill:none;stroke:#FFFFFF;stroke-width:2;stroke-miterlimit:10;}
	.st1{fill:#FFFFFF;}
</style>
<rect x="62.6" y="1" class="st0" width="35.7" height="35.7"/>
<rect x="98.3" y="1" class="st0" width="35.7" height="35.7"/>
<rect x="98.3" y="36.8" class="st0" width="35.7" height="35.7"/>
<rect x="62.6" y="36.8" class="st0" width="35.7" height="35.7"/>
<line class="st0" x1="134.1" y1="1" x2="62.6" y2="72.5"/>
<line class="st0" x1="62.6" y1="1" x2="134.1" y2="72.5"/>
<path class="st0" d="M124.8,28.5c-4.6,4.6-19.4,11.2-24.4,6.2s1.5-19.8,6.2-24.4s20.5-12.4,25.6-7.3C137.2,8,129.5,23.9,124.8,28.5z
	"/>
<path class="st0" d="M90,10.2c4.6,4.6,11.2,19.4,6.2,24.4c-5.1,5-19.8-1.5-24.4-6.2S59.3,8,64.4,2.9C69.4-2.1,85.3,5.6,90,10.2z"/>
<path class="st0" d="M106.6,63.1c-4.6-4.6-11.2-19.4-6.2-24.4s19.8,1.5,24.4,6.2c4.6,4.6,12.4,20.5,7.3,25.6
	C127.1,75.5,111.2,67.8,106.6,63.1z"/>
<path class="st0" d="M71.7,44.8c4.6-4.6,19.4-11.2,24.4-6.2S94.6,58.5,90,63.1s-20.5,12.4-25.6,7.3C59.3,65.4,67.1,49.5,71.7,44.8z"
	/>
<g>
	<path class="st1" d="M0,96c2.4-0.3,5.2-0.6,8.3-0.6c5.6,0,9.6,1.2,12.3,3.3c2.7,2.2,4.3,5.3,4.3,9.6c0,4.4-1.5,7.9-4.4,10.4
		c-2.8,2.5-7.5,3.8-13.4,3.8c-2.8,0-5.1-0.1-7.1-0.3V96z M3.9,119.6c1,0.2,2.4,0.2,4,0.2c8.4,0,12.9-4.1,12.9-11.3
		c0-6.3-4-10.3-12.3-10.3c-2,0-3.6,0.2-4.6,0.4V119.6z"/>
	<path class="st1" d="M42.9,95.7v15.8c0,6,3,8.5,7.1,8.5c4.5,0,7.4-2.6,7.4-8.5V95.7h4v15.6c0,8.2-4.9,11.6-11.5,11.6
		c-6.2,0-10.9-3.1-10.9-11.4V95.7H42.9z"/>
	<path class="st1" d="M77.1,122.3V95.7h4.3l9.7,13.5c2.2,3.1,4,5.9,5.4,8.7l0.1,0c-0.4-3.6-0.4-6.8-0.4-11V95.7h3.7v26.7h-4
		l-9.6-13.5c-2.1-3-4.1-6-5.7-8.9l-0.1,0c0.2,3.4,0.3,6.6,0.3,11v11.4C80.8,122.4,77.1,122.4,77.1,122.3z"/>
	<path class="st1" d="M115.7,95.7h3.9v12.9h0.1c0.8-1,1.6-2,2.4-2.8l9.3-10h4.9l-11,11.3l11.8,15.4h-4.6l-10-13.1l-2.9,2.9v10.2
		h-3.9L115.7,95.7L115.7,95.7z"/>
	<path class="st1" d="M164.8,109.8H153v9.6h13.1v2.9h-17.1V95.7h16.4v2.9H153v8.4h11.8L164.8,109.8L164.8,109.8z"/>
	<path class="st1" d="M180.2,95.7h3.9v23.8h13v2.9h-16.9L180.2,95.7L180.2,95.7z"/>
</g>
</svg>
