<?xml version="1.0" encoding="utf-8"?>
<!-- Generator: Adobe Illustrator 24.1.1, SVG Export Plug-In . SVG Version: 6.00 Build 0)  -->
<svg version="1.1" id="Camada_5_cópia" xmlns="http://www.w3.org/2000/svg" xmlns:xlink="http://www.w3.org/1999/xlink" x="0px"
	 y="0px" viewBox="0 0 298.44 73.53" style="enable-background:new 0 0 298.44 73.53;" xml:space="preserve">
<style type="text/css">
	.st0{fill:none;stroke:#FFFFFF;stroke-width:2;stroke-miterlimit:10;}
	.st1{fill:#FFFFFF;}
</style>
<rect x="1.01" y="1.02" class="st0" width="35.74" height="35.74"/>
<rect x="36.76" y="1.02" class="st0" width="35.74" height="35.74"/>
<rect x="36.76" y="36.77" class="st0" width="35.74" height="35.74"/>
<rect x="1.01" y="36.77" class="st0" width="35.74" height="35.74"/>
<line class="st0" x1="72.5" y1="1.02" x2="1.01" y2="72.51"/>
<line class="st0" x1="1.01" y1="1.02" x2="72.5" y2="72.51"/>
<path class="st0" d="M63.29,28.51c-4.64,4.64-19.39,11.21-24.43,6.16s1.52-19.79,6.16-24.43S65.55-2.12,70.6,2.92
	C75.65,7.97,67.93,23.86,63.29,28.51z"/>
<path class="st0" d="M28.41,10.23c4.64,4.64,11.21,19.39,6.16,24.43s-19.79-1.52-24.43-6.16S-2.22,7.97,2.83,2.92
	S23.77,5.59,28.41,10.23z"/>
<path class="st0" d="M45.02,63.12c-4.64-4.64-11.21-19.39-6.16-24.43s19.79,1.52,24.43,6.16s12.36,20.54,7.31,25.58
	C65.55,75.47,49.66,67.76,45.02,63.12z"/>
<path class="st0" d="M10.15,44.84c4.64-4.64,19.39-11.21,24.43-6.16s-1.52,19.79-6.16,24.43S7.89,75.47,2.84,70.43
	C-2.21,65.38,5.51,49.49,10.15,44.84z"/>
<rect x="72.5" y="1.02" class="st0" width="224.68" height="71.49"/>
<g>
	<path class="st1" d="M86.53,23.5c2.38-0.32,5.22-0.55,8.32-0.55c5.63,0,9.63,1.15,12.29,3.33c2.7,2.18,4.27,5.27,4.27,9.58
		c0,4.36-1.53,7.92-4.36,10.37c-2.83,2.5-7.51,3.84-13.41,3.84c-2.79,0-5.13-0.12-7.11-0.32V23.5z M90.44,47.1
		c0.99,0.16,2.43,0.2,3.96,0.2c8.37,0,12.91-4.12,12.91-11.32c0.04-6.3-4-10.3-12.28-10.3c-2.03,0-3.55,0.16-4.59,0.36V47.1z"/>
	<path class="st1" d="M129.41,23.15v15.8c0,5.98,3.01,8.51,7.06,8.51c4.5,0,7.38-2.61,7.38-8.51v-15.8h3.96v15.56
		c0,8.2-4.91,11.56-11.47,11.56c-6.21,0-10.89-3.13-10.89-11.4V23.15H129.41z"/>
	<path class="st1" d="M163.61,49.84V23.15h4.27l9.72,13.5c2.25,3.13,4,5.94,5.45,8.67l0.09-0.04c-0.36-3.56-0.45-6.81-0.45-10.97
		V23.15h3.69v26.69h-3.96l-9.63-13.54c-2.12-2.97-4.14-6.02-5.67-8.91l-0.13,0.04c0.22,3.37,0.31,6.57,0.31,11.01v11.4H163.61z"/>
	<path class="st1" d="M202.22,23.15h3.92v12.87h0.13c0.81-1.03,1.62-1.98,2.38-2.85l9.27-10.02h4.86l-10.98,11.33l11.83,15.36h-4.63
		l-9.99-13.11l-2.88,2.93v10.18h-3.92V23.15z"/>
	<path class="st1" d="M251.32,37.32h-11.79v9.62h13.14v2.89h-17.05V23.15h16.38v2.89h-12.46v8.43h11.79V37.32z"/>
	<path class="st1" d="M266.75,23.15h3.92v23.8h12.96v2.89h-16.87V23.15z"/>
</g>
</svg>
