<?xml version="1.0" encoding="utf-8"?>
<!-- Generator: Adobe Illustrator 26.0.0, SVG Export Plug-In . SVG Version: 6.00 Build 0)  -->
<svg version="1.1" id="Camada_1" xmlns="http://www.w3.org/2000/svg" xmlns:xlink="http://www.w3.org/1999/xlink" x="0px" y="0px"
	 viewBox="0 0 212.6 212.6" style="enable-background:new 0 0 212.6 212.6;" xml:space="preserve">
<style type="text/css">
	.st0{fill:#FFFFFF;}
</style>
<path class="st0" d="M171.06,23.53C167.95,0,134.82,0,126.19,0c-5.49,0-6.06,0-6.06,0L25.18,212.6l69.42-49.95
	c0,0,36.36,4.72,37.81,25.05c0.76,10.61,1.46,24.9,1.46,24.9s0.58,0,7.88,0c15.25,0,30.71,0.05,32.52-21.75
	c0.55-7.05,2.35-16.01,2.35-75.35C176.61,36.59,171.71,27.6,171.06,23.53z M117.88,149.56c-13.87-4.34-23.09-10.37-16.12-23.51
	c6.97-13.14,23.69-44.61,23.69-44.61l4.7,71.85L117.88,149.56z"/>
</svg>
