<?xml version="1.0" encoding="utf-8"?>
<!-- Generator: Adobe Illustrator 26.0.0, SVG Export Plug-In . SVG Version: 6.00 Build 0)  -->
<svg version="1.1" xmlns="http://www.w3.org/2000/svg" xmlns:xlink="http://www.w3.org/1999/xlink" x="0px" y="0px"
	 viewBox="0 0 800 800" style="enable-background:new 0 0 800 800;" xml:space="preserve">
<style type="text/css">
	.st0{fill:#B8803C;}
	.st1{fill:#FFFFFF;}
	.st2{fill:#04090C;}
</style>
<g id="Camada_2_cópia">
	<g>
		<path class="st0" d="M519.4,399.4c0,96.5,78.2,174.8,174.7,174.9c0.1,0,0.3-0.1,0.3-0.3V224.5
			C597.7,224.5,519.4,302.8,519.4,399.4z"/>
		<path class="st1" d="M677.4,0H122.6c-9.4,0-16.9,7.6-16.9,16.9v766.1c0,9.4,7.6,16.9,16.9,16.9h554.7c9.4,0,16.9-7.6,16.9-16.9
			V673.5c0-6-3.2-11.6-8.4-14.7L274.1,412.7c-10.2-5.9-10.2-20.6,0-26.5l411.8-246.1c5.2-3.1,8.4-8.7,8.4-14.8V16.9
			C694.3,7.6,686.7,0,677.4,0z"/>
	</g>
</g>
<g id="Camada_1">
</g>
<g id="Camada_2">
</g>
<g id="Camada_1_cópia">
</g>
</svg>
