<?xml version="1.0" encoding="UTF-8" standalone="no"?>
<svg
   xmlns:dc="http://purl.org/dc/elements/1.1/"
   xmlns:cc="http://creativecommons.org/ns#"
   xmlns:rdf="http://www.w3.org/1999/02/22-rdf-syntax-ns#"
   xmlns:svg="http://www.w3.org/2000/svg"
   xmlns="http://www.w3.org/2000/svg"
   xmlns:sodipodi="http://sodipodi.sourceforge.net/DTD/sodipodi-0.dtd"
   xmlns:inkscape="http://www.inkscape.org/namespaces/inkscape"
   version="1.1"
   width="440"
   height="100">
  <defs
     id="defs3451" />
  <path
     d="m 439.94356,79.419541 -0.0166,-0.109782 -1.04875,-7.406105 0.006,0.104564 c -0.24937,-2.097127 -1.09104,-3.782468 -2.46083,-4.879452 -1.1575,-0.924171 -2.59042,-1.333245 -4.03188,-1.143944 l -0.26417,0.03214 -0.275,0.0718 c -1.68896,0.446015 -3.50771,0.826703 -4.96792,1.075904 -0.0538,-1.864414 -0.0479,-4.388772 -0.0188,-7.333474 0.0627,-5.524159 0.25834,-12.438542 0.50209,-18.889586 l 0.0104,-0.139419 -0.0104,-0.151107 0,-0.173647 c 0.6125,-0.171143 1.23312,-0.425771 1.79417,-0.772231 1.05416,-0.656395 1.91625,-1.611248 2.46291,-2.759157 0.5225,-1.028528 0.77146,-2.148888 0.74584,-3.328939 -0.0294,-1.155214 -0.3248,-2.26326 -0.87875,-3.304728 -0.59063,-1.129543 -1.50105,-2.054967 -2.60271,-2.672542 -1.00792,-0.577294 -2.11417,-0.873873 -3.26459,-0.86615 l -0.0104,0 c -1.13,0.009 -2.26667,0.326841 -3.27667,0.941703 -0.58146,0.341451 -1.09104,0.787049 -1.53437,1.287329 -2.85605,-1.889251 -6.46521,-2.983313 -10.45647,-2.947415 l -0.0812,0.0036 -21.43355,1.049189 0.16084,-0.0075 c -4.41834,0.04341 -8.59001,1.759015 -11.87834,4.864424 -0.5925,-2.787542 -2.77834,-4.682636 -5.58271,-4.737945 0.0906,0.0039 0.1752,0.0039 0.1752,0.0039 l -53.63023,-4.17401 -0.17688,-0.0058 c -0.74958,0.0121 -1.50458,0.16071 -2.20437,0.431405 -1.9275,-4.98443 -6.06292,-8.35156 -10.87022,-8.31358 l -21.85459,0.18346 c -2.29458,0.0186 -4.38459,0.70398 -6.15896,1.985465 -0.95792,-1.981085 -3.07521,-3.54391 -6.27292,-3.51928 l -12.55771,0.100805 c -1.98417,0.02045 -3.81355,0.77682 -5.02855,2.083145 -1.04125,1.09156 -1.59146,2.53521 -1.56375,4.01706 l 0.0104,0.144215 0.79146,9.234414 c -2.13771,-1.476838 -4.68375,-2.382852 -7.63354,-2.366364 l -20.59876,0.178656 c -4.22188,0.04133 -8.25376,1.649025 -11.49584,4.583917 -2.27959,-5.975603 -9.04064,-9.958223 -17.64897,-9.950708 -0.35646,-0.03045 -19.12585,-1.70684 -19.12585,-1.70684 l -0.21062,-0.0054 c -0.92875,0.0307 -1.8575,0.100395 -2.76354,0.185545 -0.0888,-0.0075 -28.5321,-1.446785 -28.5321,-1.446785 l -0.13292,0.0035 c -1.42708,0.0232 -2.78583,0.62802 -3.7975,1.70434 -1.20375,1.27856 -1.87187,3.1843 -1.82583,5.222985 l 0.225,9.84552 c 0.0113,0.303048 0.0331,0.606931 0.059,0.887229 -5.56771,0.573329 -11.77793,1.213654 -11.84813,1.227638 -4.29771,0.08474 -8.06772,1.144153 -10.94043,3.055736 -0.0717,-7.200108 -0.13083,-12.305593 -0.13083,-12.305593 l 0,-0.08849 c -0.0829,-2.699677 -2.18042,-5.570492 -6.56709,-5.662747 0.0225,0 0.0686,0.0077 0.0686,0.0077 l -10.43605,-0.76785 -0.184795,0.0058 c -0.605625,0.0035 -1.202085,0.08641 -1.78354,0.22687 -0.07,-5.59032 -0.1125,-9.22377 -0.1125,-9.22377 -0.08313,-2.916315 -2.45688,-5.7735648 -6.839795,-5.7370448 l -0.47646,0.003 c 0,0 -10.936045,2.615565 -11.25938,2.69655 -1.69104,0.1763548 -3.23292,0.8571748 -4.283125,1.9727298 -0.965625,1.02123 -1.493545,2.328795 -1.512295,3.69523 l 0,0.238555 0.458125,9.488 c -3.16625,-1.856905 -7.443755,-2.878335 -12.53501,-2.863725 -0.31396,-0.01985 -19.103965,-1.52192 -19.103965,-1.52192 l -0.188541,0.0075 c -5.313336,0.0417 -9.795422,1.22179 -12.992923,3.349395 1.0225,-10.363545 1.824167,-18.4619398 1.824167,-18.4619398 l 0,-0.290735 C 29.75806,2.3200992 26.996183,-0.02038582 23.290557,6.9182129e-5 L 22.666598,0.00546918 c 0,0 -16.350842,5.03035002 -17.0616755,5.25993002 -1.7039589,0.167805 -3.1106263,0.77077 -4.1152101,1.85106 C 0.54117025,8.1205642 0.01325334,9.4408742 -8e-5,10.859269 c 0,0.07722 0,0.149645 0.00354167,0.232715 L 1.6858492,81.185861 c 0.1510417,6.722577 7.0150033,11.197547 17.0910498,11.132846 0.07021,0.0046 55.718571,1.218037 55.718571,1.218037 l 0.06813,-0.0039 c 1.87917,-0.03194 3.72542,-0.81439 4.929375,-2.094831 0.944795,-1.014335 1.465835,-2.288723 1.50271,-3.618003 0.413545,0.07013 0.82521,0.104564 1.236875,0.104564 0.01855,0 8.698755,-0.08307 8.698755,-0.08307 0.365835,-0.004 0.718545,-0.03444 1.06542,-0.08015 0.19375,3.491106 3.56875,5.594703 6.681045,5.571536 0.01125,0.0016 11.03064,-0.08891 11.03064,-0.08891 2.055,-0.02316 3.95083,-0.786422 5.1877,-2.107353 0.93395,-0.982194 1.45271,-2.223606 1.50479,-3.518866 2.74147,2.303542 6.29167,3.814192 10.26085,3.803547 l 0.10353,-0.01774 20.26292,-1.146031 -0.19937,0.0075 c 3.51854,-0.02212 6.90854,-1.100741 9.68646,-3.012324 -0.0681,4.164826 -0.10499,6.834446 -0.10499,6.834446 l 0.006,0.102477 c 0.0863,3.353149 2.92959,5.864774 6.60313,5.809468 -0.0109,0 9.05188,-0.06554 9.05188,-0.06554 2.58688,-0.0288 4.13334,-1.089679 4.98105,-1.98484 1.01541,-1.05733 1.57645,-2.43503 1.59312,-3.912494 l 0,-0.164047 -0.007,-0.227286 c 0,0 -1.28125,-10.975687 -1.69125,-14.510623 1.77271,0.160916 20.2598,1.760058 20.2598,1.760058 l 0.19563,-0.0058 c 4.69854,-0.03757 9.47041,-0.494853 12.84166,-3.401361 1.58771,5.828669 6.27146,9.285964 12.95397,9.291182 0.33437,0.02776 21.96563,1.905739 21.96563,1.905739 l 0.20667,0 c 4.69104,-0.04341 9.01668,-1.52839 12.1696,-4.143328 1.2,1.999033 3.62958,3.161761 5.90604,3.14736 0.0125,0 8.69876,-0.07764 8.69876,-0.07764 1.28875,-0.01503 2.51812,-0.337276 3.56312,-0.906222 2.4923,3.118557 7.34771,5.462172 15.4798,5.397263 l 22.54314,-0.196606 c 7.94979,-0.08098 12.27688,-2.265974 14.63084,-4.837709 0.97479,0.609645 2.12104,0.953391 3.33208,0.953391 l 40.05021,-0.359198 c 1.78709,-0.0023 3.70355,-0.873873 5.01042,-2.26347 0.31042,-0.344581 0.59438,-0.709199 0.82,-1.091349 2.94084,2.155984 6.73626,3.422859 10.90876,3.388839 l 21.57584,-0.20245 0.35417,0.0092 0.37291,-0.01983 c -0.008,0 23.84271,-0.709199 23.84271,-0.709199 l 0.21585,0 0.1925,-0.02692 c 3.23457,-0.425562 5.34062,-3.565617 4.90687,-7.326587 z"
     style="fill:#ffffff;fill-rule:evenodd"
     id="path3397"/>
  <path
     d="m 76.29922,71.659253 0.3875,16.01856 c 0.0225,0.707112 -1.004165,1.406085 -2.161875,1.433009 L 18.853149,87.901968 C 11.979396,87.959363 6.0943925,85.506594 5.9873095,81.069609 L 4.3179338,10.95611 C 4.2906428,10.10207 5.0602255,9.6291302 6.483351,9.6120152 l 16.826051,-5.197315 c 1.159584,-0.0052 2.213751,0.45791 2.244792,1.30757 L 19.292316,69.004033 c 0.06438,2.476146 3.216044,4.319272 7.360421,4.282748 l 47.419818,-2.943659 c 1.162915,0 2.211665,0.622376 2.226665,1.316131 z"
     style="fill:#ee4a23;fill-rule:evenodd"
     id="path3399"/>
  <path
     d="m 93.32402,81.995867 c 0.01335,0.701686 -0.989165,1.414643 -2.42229,1.422365 l -8.687505,0.0862 c -1.170835,0 -2.34125,-0.684154 -2.374375,-1.389388 L 76.716095,15.735177 c -0.0219,-0.86803 1.131875,-1.410885 2.305835,-1.414645 l 10.947505,-2.61723 c 1.41625,-0.0192 2.46646,0.510925 2.486875,1.36768 l 0.86771,68.924887 z"
     style="fill:#ee4a23;fill-rule:evenodd"
     id="path3401"/>
  <path
     d="m 147.60426,40.071489 c 6.81583,-0.05907 11.555,3.805216 11.66771,8.504968 l -0.77396,27.335906 c 0.12,4.960432 -5.02688,9.887052 -11.70605,9.931507 l -20.16355,1.144153 c -6.32688,0.05093 -11.47354,-5.646255 -11.58438,-10.354355 l -0.14791,-6.037379 c -0.12709,-5.948469 5.02708,-9.456064 12.78646,-9.519721 l 8.2525,-0.06825 c 3.45584,-0.03945 6.38917,-2.277035 6.33021,-5.028262 l -0.0519,-2.401428 c -0.0756,-2.922786 -2.63229,-4.765704 -6.57729,-4.737945 l -3.23688,0.03047 c -4.17979,0.0359 -6.17313,1.743571 -6.09605,4.841466 l 0.0371,1.503136 c 0.0294,0.797693 -1.03,1.615005 -2.10458,1.622518 l -7.63709,0.07764 c -1.07667,0.0033 -2.04917,-0.795814 -2.06958,-1.586411 l -0.0852,-3.651814 c -0.13833,-5.754785 5.03667,-9.448967 12.7973,-9.515964 l 20.36313,-2.090239 z m -4.46063,38.186367 0,0 c 3.81813,-0.0359 6.52104,-2.10464 6.44708,-5.028888 l -0.0188,-0.797902 c -0.0569,-2.749975 -2.3852,-4.945196 -6.56125,-4.922655 l -5.99208,0.01941 c -3.92855,0.03402 -5.54417,2.127598 -5.46855,5.06583 l 0.01,0.788719 c 0.0679,2.931553 2.87063,4.945821 6.80292,4.926411 l 4.78105,-0.05092 z"
     style="fill:#ee4a23;fill-rule:evenodd"
     id="path3403"/>
  <path
     d="m 244.5893,31.458826 c 7.38063,-0.05907 11.08397,8.317337 11.22063,13.427622 l 2.25396,29.622126 c 0.12,5.395594 -5.47187,9.690654 -12.72938,9.754937 l -21.94667,-1.91367 c -6.85626,0.0718 -9.30251,-4.05066 -9.42584,-9.164494 l -0.15542,-6.543295 c -0.15854,-6.465654 2.34813,-10.246034 10.77959,-10.307186 l 8.93355,-0.07931 c 3.76604,-0.03047 6.94854,-2.463623 6.86771,-5.463007 l -0.0521,-2.59845 c -0.0808,-3.180962 -2.85021,-5.174569 -7.12437,-5.131366 l -6.61438,0.04717 c -4.53438,0.05155 -6.68646,1.889251 -6.6073,5.259514 l 0.031,1.64005 c 0.0296,0.872203 -1.12187,1.747536 -2.2852,1.760268 l -5.18417,0.04154 c -1.15896,0 -2.22209,-0.852375 -2.24084,-1.718317 l -0.10354,-3.946513 c -0.14396,-6.27051 5.35938,-14.438411 13.78688,-14.50645 l 20.59584,-0.181161 z m -3.23833,43.511834 0,0 c 4.15042,-0.02671 4.75167,-2.250529 4.67979,-5.436918 l -0.0236,-0.86469 c -0.0798,-2.986652 -0.26958,-5.390375 -4.80208,-5.34592 l -5.30771,0.02964 c -4.27584,0.04174 -7.20542,2.282462 -7.13147,5.46426 l 0.0208,0.879089 c 0.0771,3.164475 3.11605,5.367836 7.39188,5.333398 l 5.17271,-0.05886 z"
     style="fill:#ee4a23;fill-rule:evenodd"
     id="path3405"/>
  <path
     d="m 283.84516,55.767381 c -4.64647,0.03965 -7.67043,-4.274607 -7.82751,-10.686832 l -0.35104,-14.492256 c -0.14563,-6.405548 2.68417,-10.766143 7.33667,-10.814353 l 21.85293,-0.179075 c 4.02979,-0.0417 7.56708,4.166495 7.69625,9.985145 l -1.08875,15.989967 c 0.12521,5.613279 -3.68854,9.987858 -7.7725,10.022713 l -19.84605,0.174691 z m 16.01729,-18.830938 0,0 -0.0627,-3.556851 c -0.0723,-2.848695 -1.60646,-4.877156 -3.57792,-4.867972 l -7.61167,0.08098 c -2.04167,0.01377 -3.3598,1.715812 -3.2823,4.644861 l 0.0831,3.818782 c 0.0719,2.928423 1.35479,4.779897 3.51854,4.763409 l 5.59355,-0.04508 c 2.03458,-0.0215 5.42417,-1.914296 5.33937,-4.838127 z"
     style="fill:#ee4a23;fill-rule:evenodd"
     id="path3407"/>
  <path
     d="m 373.31458,47.547095 c 0.0554,2.021156 -0.5373,4.38898 -3.09938,5.690919 l -24.87147,11.858952 c -2.54751,1.200922 -2.0823,4.075497 1.15958,4.158564 l 24.86189,-0.213511 c 1.04292,-0.02295 2.49021,0.828373 2.51063,1.785313 l 0.23625,10.480416 c 0.0258,0.949217 -1.37188,1.929115 -2.40938,1.938298 l -40.03877,0.352304 c -1.03,0.0032 -2.08625,-0.947965 -2.10667,-1.906574 L 328.3983,65.909895 c -0.0648,-2.887515 0.68875,-4.275442 2.85771,-5.262854 l 27.32648,-11.053745 c 2.45,-1.196957 1.72979,-3.54245 -0.98396,-3.510308 l -41.5494,0.35773 c -1.02084,0.01274 -2.08938,-0.835887 -2.11188,-1.800757 l 1.95854,-15.335032 c -0.006,-0.960696 1.00105,-1.817871 2.0423,-1.828724 l 53.43607,4.175678 c 1.18541,-0.0119 1.57667,0.830252 1.60604,1.790531 l 0.33438,14.104681 z"
     style="fill:#ee4a23;fill-rule:evenodd"
     id="path3409"/>
  <path
     d="m 27.143362,33.762785 c -0.128959,-5.050803 5.498127,-8.28645 13.92209,-8.358455 L 60.149,26.919364 c 8.42563,-0.06804 14.197095,3.077025 14.322305,8.116766 L 74.22047,57.092904 c 0.10521,4.347447 -4.024795,8.689886 -12.996885,9.118578 L 33.313573,68.982119 C 25.910445,68.121604 23.997944,64.791622 23.89461,60.366743 l 3.248752,-26.603958 z m 25.846468,24.296242 0,0 3.625625,-0.04195 C 60.76754,57.983267 63.70296,55.890104 63.6365,53.403314 L 64.90275,41.563981 C 64.84546,39.011656 62.344,37.315463 58.073585,37.345099 l -5.578545,0.0551 c -4.271876,0.0361 -6.954378,1.611457 -6.887919,4.327202 l 0.304375,12.659567 c 0.05188,2.569231 2.79521,3.697105 7.078334,3.67206 z"
     style="fill:#58b5b1;fill-rule:evenodd"
     id="path3411"/>
  <path
     d="m 112.10111,87.392087 c 0.0131,0.698347 -1.00979,1.41673 -2.4275,1.41673 l -11.016045,0.102477 c -1.168125,0.0017 -2.355835,-0.681441 -2.353545,-1.382919 l 0.12542,-59.67503 c -0.0371,-0.858845 1.13708,-1.411094 2.292915,-1.416938 l 10.260425,0.743637 c 1.42167,-0.0077 2.46667,0.527204 2.49438,1.380205 l 0.62395,58.831838 z"
     style="fill:#58b5b1;fill-rule:evenodd"
     id="path3413"/>
  <path
     d="m 274.54078,81.618936 c 0.0188,0.774109 -0.99667,1.550513 -2.43334,1.562827 l -8.68229,0.08307 c -1.16875,0.009 -2.35417,-0.747394 -2.37063,-1.520876 l -5.35167,-61.838739 c -0.0188,-0.937945 1.13167,-1.54112 2.29459,-1.562615 l 12.56667,-0.09747 c 1.43083,-0.014 2.46812,0.575625 2.50146,1.508565 l 1.47521,61.865241 z"
     style="fill:#58b5b1;fill-rule:evenodd"
     id="path3415"/>
  <path
     d="m 279.8464,64.11185 c -0.0996,-3.910824 5.53834,-6.431425 13.96605,-6.501552 l 16.72084,-0.144219 c 8.41792,-0.06533 13.16438,1.977118 14.25584,6.258195 l 1.94584,16.415737 c -0.12,4.975249 -5.39105,7.263347 -13.03043,7.341196 l -22.54459,0.181578 c -7.3775,0.07388 -13.12626,-2.121754 -13.25542,-6.87097 L 279.8464,64.11185 Z m 20.24105,15.163472 0,0 6.7273,-0.0526 c 3.71438,-0.04592 6.10542,-0.301169 6.32146,-2.840554 l -0.19792,-8.13075 c -0.0296,-1.650695 -2.27958,-2.722842 -6.09771,-2.69237 l -4.98792,0.04508 c -3.83854,0.03986 -6.25458,1.055659 -6.21396,2.799021 l -1.89062,8.131585 c 0.0188,2.979139 2.50312,2.765836 6.33937,2.740582 z"
     style="fill:#58b5b1;fill-rule:evenodd"
     id="path3417"/>
  <path
     d="m 194.61803,26.26589 -19.0948,-1.69306 c -1.03584,0.0077 -2.04,0.07409 -2.98896,0.19326 l 0.007,-0.02715 -28.43772,-1.43656 c -0.86959,0.004 -1.39542,1.1333 -1.36584,2.40748 l 0.22667,9.825899 c 0.0352,1.535903 0.62208,2.525819 1.48271,2.521018 l 15.35605,-1.823089 c 0.69604,-0.0054 1.32208,0.530334 1.75771,1.373526 l -0.83438,56.455248 c 0.0256,0.932311 1.07813,1.537364 2.24104,1.517745 l 9.07542,-0.08328 c 1.42167,-0.01273 2.30438,-0.617576 2.28188,-1.559279 l -1.94376,-16.693714 c -0.0354,-1.457846 1.75563,-2.575075 3.95604,-2.595111 l 21.0298,1.813697 c 6.86542,-0.05051 12.47022,-1.128291 12.37043,-8.327981 l -0.75271,-31.978054 c -0.14416,-5.572998 -5.94875,-9.96824 -14.36688,-9.8906 z m 4.47125,35.614215 0,0 c 0.0683,2.659603 -2.21146,4.81663 -6.22125,4.856493 l -5.18792,0.04111 c -4.01917,0.04341 -7.05042,-2.072082 -7.10563,-4.733145 l -0.44313,-18.527682 c -0.0687,-2.65835 2.86688,-4.736902 6.88063,-4.769461 l 5.18771,-0.05051 c 4.00625,-0.02504 6.39126,2.004459 6.45188,4.664897 l 0.43771,18.518289 z"
     style="fill:#58b5b1;fill-rule:evenodd"
     id="path3419"/>
  <path
     d="m 435.65669,79.956136 -1.04646,-7.407566 c -0.16834,-1.445114 -0.82917,-2.277244 -1.67834,-2.173306 0,0 -8.79125,2.306881 -9.91604,1.162728 -1.11292,-1.162728 0.0392,-30.770661 0.0392,-30.770661 -0.12542,-5.673806 -5.29438,-10.347886 -12.67167,-10.280263 l -21.36543,1.044181 c -8.40938,0.06971 -13.92896,7.947918 -13.75584,14.898199 l 0.0852,4.398999 c 0.0294,0.960696 1.09312,1.929323 2.25604,1.910122 l 7.51355,-0.07388 c 1.16708,-0.0018 2.30791,-0.976349 2.28166,-1.942263 l -0.0477,-1.822672 c -0.0777,-3.740934 -0.24917,-5.779622 4.27375,-5.808424 l 6.61688,-0.07368 c 4.27521,-0.02401 7.04292,2.199186 7.13875,5.73788 l 0.0537,2.885636 c 0.0846,3.313494 -3.16646,2.582171 -6.925,2.619948 l -8.945,0.06908 c -8.42021,0.07221 -14.0173,4.302991 -13.83626,11.472418 l 0.15854,7.284636 c 0.13834,5.674014 5.69751,10.231215 12.56105,10.176533 l 21.46334,-0.1893 0.14042,-0.0052 0.28229,0 c 0.11271,0 0.19771,-0.0077 0.32104,-0.0043 l 23.85981,-0.714626 c 0.85458,-0.100181 1.28291,-1.22555 1.1425,-2.394122 z m -34.44877,-4.839796 0,0 c -4.27021,0.03214 -7.32521,-2.39454 -7.39917,-5.932815 l -0.0279,-0.958401 c -0.0869,-3.534936 2.8373,-6.023813 7.11313,-6.063468 l 5.31313,-0.04905 c 4.53625,-0.03798 7.06354,2.623705 7.12834,5.932816 l 0.0423,0.962366 c 0.081,3.547876 -2.84667,6.032996 -6.98938,6.072651 l -5.18042,0.0359 z"
     style="fill:#58b5b1;fill-rule:evenodd"
     id="path3421"/>
  <path
     d="m 425.65627,31.190424 c 0.38937,0 0.77166,0.109781 1.15354,0.32851 0.37687,0.209546 0.68708,0.512385 0.90104,0.931268 0.22021,0.405734 0.33271,0.814181 0.33812,1.26291 0.008,0.436832 -0.0742,0.858845 -0.2825,1.265205 -0.18854,0.402395 -0.46729,0.72214 -0.83812,0.950887 -0.36167,0.219773 -0.74979,0.335607 -1.15583,0.335607 -0.39855,0 -0.80125,-0.104564 -1.17251,-0.319119 -0.37833,-0.227703 -0.6752,-0.53263 -0.89854,-0.935442 -0.19937,-0.407195 -0.33229,-0.828165 -0.33625,-1.255396 0,-0.436832 0.0848,-0.860933 0.29,-1.27898 0.20625,-0.397386 0.47813,-0.718383 0.85104,-0.951096 0.37292,-0.208084 0.76042,-0.334354 1.15001,-0.334354 z m 0.004,0.427231 0,0 c -0.32479,0 -0.64042,0.09037 -0.94688,0.283429 -0.31583,0.181161 -0.54292,0.444345 -0.71271,0.785379 -0.17,0.343121 -0.25875,0.701686 -0.23479,1.060877 0,0.366288 0.0958,0.720053 0.27167,1.05086 0.18062,0.334981 0.42833,0.591695 0.74958,0.771813 0.31,0.190761 0.64209,0.276124 0.98563,0.276124 0.33062,0 0.65541,-0.09601 0.95271,-0.288856 0.32479,-0.183874 0.55041,-0.452485 0.70895,-0.791223 0.15709,-0.33832 0.24021,-0.68478 0.23646,-1.052946 -0.0146,-0.371505 -0.10937,-0.718383 -0.29896,-1.053364 -0.16833,-0.339364 -0.42895,-0.597748 -0.74083,-0.781831 -0.32312,-0.176778 -0.63708,-0.264645 -0.97083,-0.260262 z m -0.94313,3.532014 0,0 0.39479,-0.01649 -0.0187,-1.147702 0.23855,0.0021 c 0.14583,-0.0058 0.25666,0.02567 0.33229,0.09371 0.10875,0.07994 0.26041,0.285308 0.43937,0.624672 l 0.22875,0.420344 0.50417,0 -0.31917,-0.524908 c -0.15,-0.251288 -0.28291,-0.430988 -0.38208,-0.538266 -0.0671,-0.06491 -0.13354,-0.09914 -0.22188,-0.142132 0.21813,-0.02025 0.3948,-0.106651 0.52417,-0.261515 0.12583,-0.143175 0.18479,-0.320997 0.18479,-0.523237 -0.006,-0.137749 -0.0498,-0.267568 -0.12541,-0.397177 -0.0927,-0.126688 -0.19938,-0.215599 -0.32896,-0.259428 -0.12917,-0.04738 -0.35271,-0.07514 -0.65334,-0.07138 l -0.86021,0.0054 0.0629,2.735991 z m 0.36917,-1.542791 0,0 0.49458,-0.0037 c 0.25084,-0.0036 0.40625,-0.04717 0.48709,-0.126479 0.0852,-0.07555 0.13291,-0.164464 0.1277,-0.299082 0,-0.07409 -0.0241,-0.153194 -0.0742,-0.213303 -0.0406,-0.06658 -0.0975,-0.103938 -0.16771,-0.144219 -0.0685,-0.02859 -0.22188,-0.04508 -0.40625,-0.04508 l -0.48375,0 0.0225,0.831921 z"
     style="fill:#58b5b1;fill-rule:evenodd"
     id="path3423"/>
  <path
     d="m 13.563355,12.876255 -2.816876,62.12112 c -0.07958,0.652013 -0.420834,4.330959 0.993334,5.722017 1.410417,1.409633 3.810001,1.129543 4.06896,1.099072 -0.07792,0 53.936902,-1.717482 53.936902,-1.717482 0.448335,-0.01085 0.780625,-0.417839 0.76771,-0.897457 -0.0296,-0.477739 -0.40229,-0.847575 -0.841875,-0.844235 l -54.010654,1.712055 c -0.592708,0.08307 -2.112084,0.09976 -2.842918,-0.627594 -0.594792,-0.579172 -0.631667,-2.880418 -0.4725,-4.267302 0.01291,-0.06011 2.817085,-62.182694 2.817085,-62.182694 0.02562,-0.48629 -0.321667,-0.895365 -0.760834,-0.924795 -0.446459,-0.0269 -0.815625,0.32684 -0.838334,0.807295 z"
     style="fill:#ffffff;fill-rule:evenodd"
     id="path3425"/>
  <path
     d="M 83.225475,18.04435 83.8536,72.810085 c 0.01125,0.485461 0.36,0.875333 0.80646,0.887647 0.448955,0.0075 0.81083,-0.389663 0.797705,-0.86782 l -0.635,-54.772827 c 0.0035,-0.485465 -0.37125,-0.866365 -0.80854,-0.86991 -0.43771,-0.0054 -0.803335,0.37672 -0.78875,0.857175 z"
     style="fill:#ffffff;fill-rule:evenodd"
     id="path3427"/>
  <path
     d="m 101.69798,31.757491 -0.1602,50.207905 c 0,0.47273 0.36541,0.87429 0.79521,0.88556 0.44708,0.01294 0.80708,-0.368374 0.82375,-0.849662 l 0.14041,-50.209992 c 0,-0.483583 -0.35479,-0.877003 -0.80104,-0.882429 -0.43417,-0.01941 -0.80563,0.353347 -0.79813,0.848618 z"
     style="fill:#ffffff;fill-rule:evenodd"
     id="path3429"/>
  <path
     d="m 262.68285,22.22003 c -0.44291,0.02525 -0.78062,0.427855 -0.74041,0.906015 l 3.29771,54.285906 c 0.0364,0.478157 0.42604,0.844862 0.85625,0.826495 0.44708,-0.03214 0.78312,-0.430988 0.74979,-0.914988 L 263.5416,23.046735 c -0.0425,-0.481915 -0.41375,-0.85509 -0.85875,-0.826705 z"
     style="fill:#ffffff;fill-rule:evenodd"
     id="path3431"/>
  <path
     d="m 319.581,36.138332 c 10e-4,0.01065 10e-4,0.03381 10e-4,0.05051 0.0167,0.456033 0.35854,0.830252 0.76792,0.85488 l 40.62606,2.154522 c 0.31417,0.04717 1.42563,0.330807 1.93313,0.857176 0.57604,0.593365 0.66646,1.528807 0.66271,1.530685 0,0 0.17729,4.807446 0.16458,4.874025 0.0273,0.981359 -0.0317,2.471763 -0.26792,3.010446 -0.19562,0.461669 -1.10395,1.002439 -1.66187,1.21428 -0.0552,0.02295 -25.80481,12.657688 -25.80481,12.657688 -0.0279,0.01127 -1.24833,1.027067 -1.24833,1.027067 -0.84709,0.839435 -1.32521,2.412906 -1.37709,2.580709 -0.0188,0.07618 -0.0256,0.159247 -0.0331,0.23647 l -0.16396,6.222297 c 0.002,0.02839 -0.0263,0.180118 -0.0104,0.412621 0.0104,0.48734 0.0998,1.344516 0.53771,2.129478 0.74,1.345976 2.33146,1.372274 2.50125,1.372274 l 31.32148,-0.01127 c 0.45229,0.01127 0.79729,-0.389663 0.79396,-0.866359 l -0.008,-0.0092 c -0.006,-0.47273 -0.35417,-0.856549 -0.80104,-0.856549 l -31.33627,0 c -0.21063,0 -0.88646,-0.09642 -1.09709,-0.491515 -0.25812,-0.465425 -0.31166,-0.99555 -0.30645,-1.289833 -0.004,-0.160916 0,-0.241687 0,-0.241687 0,-0.06491 0.14416,-5.379105 0.15708,-6.135474 0.13292,-0.395089 0.48021,-1.3178 0.92854,-1.758389 l 0.86979,-0.764299 c 0.0125,0 25.71127,-12.602589 25.71127,-12.602589 0.26896,-0.09434 1.94354,-0.794562 2.48646,-2.070411 0.43771,-1.028736 0.44479,-3.026099 0.41917,-3.765771 -0.004,-0.09079 -0.16625,-4.9477 -0.16625,-4.9477 -0.0104,-0.205788 -0.1623,-1.6676 -1.17396,-2.711571 -0.98771,-0.991585 -2.69938,-1.307365 -2.87834,-1.336793 -0.0756,-0.0016 -40.72752,-2.143252 -40.72752,-2.143252 -0.44313,-0.0359 -0.80313,0.33352 -0.82146,0.81752 z"
     style="fill:#ffffff;fill-rule:evenodd"
     id="path3433"/>
  <path
     d="m 283.57953,70.811261 c -0.0166,0.05823 -0.77188,4.606875 -0.77188,4.606875 -0.004,0.0622 -0.0104,0.128148 -0.008,0.187631 0.10333,3.975107 0.21438,8.925729 7.7073,9.334802 l 22.25544,-0.193057 c 6.75313,-0.880134 7.39563,-5.824912 7.30709,-9.473387 l -0.11083,-4.53633 c -0.3248,-7.65155 -3.07584,-9.223351 -7.73147,-9.342734 l -21.37813,0.185961 c -4.0175,0.619663 -5.75646,2.855165 -7.27021,9.230239 z m 1.54896,0.395507 0,0 c 1.35333,-5.611192 2.67313,-7.407984 5.87229,-7.893654 l 21.24897,-0.189301 c 3.48209,0.09434 5.81355,0.680815 6.10355,7.633183 l 0.12,4.542175 c 0.10729,4.854197 -1.63001,7.173184 -5.84459,7.718128 l -22.11897,0.191179 c -5.90042,-0.322667 -6.00333,-3.669972 -6.09396,-7.537176 0.0104,-0.175317 0.71271,-4.464534 0.71271,-4.464534 z"
     style="fill:#ffffff;fill-rule:evenodd"
     id="path3435"/>
  <path
     d="m 285.55099,23.49922 c -4.14459,0.0359 -7.44334,3.72194 -7.32917,8.23406 l 0.24,10.222033 c 0.10354,4.510033 3.57813,8.137637 7.73167,8.108626 l 12.11438,-0.111452 c 4.14813,-0.02796 7.43646,-3.719854 7.32542,-8.227591 l 0,0.08077 0.62208,-10.23685 c -0.10125,-4.585796 -3.55916,-8.230512 -7.7225,-8.188562 l -12.98188,0.118965 z m -5.48104,18.438979 0,0 -0.24751,-10.221407 c -0.0756,-3.546206 2.49771,-6.452712 5.77834,-6.479637 L 298.5737,25.12341 c 3.25646,-0.0292 5.97605,2.833247 6.07584,6.388428 l -0.61479,10.144183 c 0.004,0.03068 0.004,0.04571 0,0.07034 0.081,3.557477 -2.50355,6.467741 -5.77292,6.494457 l -12.11084,0.09455 c -3.26396,0.02839 -6.00917,-2.831581 -6.08104,-6.377161 z"
     style="fill:#ffffff;fill-rule:evenodd"
     id="path3437"/>
  <path
     d="m 31.555864,39.677443 c 0.0054,-0.108322 -1.196042,14.842473 -1.196042,14.842473 0.04771,2.913813 0.358125,6.041345 2.202501,7.986948 1.272083,1.328445 3.085001,1.959795 5.562294,1.897808 0.05521,0 23.298133,-1.877981 23.298133,-1.877981 4.098545,-0.03277 7.391885,-3.726532 7.27938,-8.236357 0.0035,0.03068 -0.004,0.07034 -0.0054,0.105816 l 1.22771,-14.106559 c 0.09396,-2.541472 -0.500415,-4.511494 -1.77417,-5.93365 -1.3425,-1.505431 -3.412085,-2.307924 -5.963335,-2.282879 0.015,0 -23.268552,-0.629681 -23.268552,-0.629681 -4.183127,0.0359 -7.471254,3.719228 -7.362504,8.234062 z m 1.600834,0.08536 0,0 c -0.08687,-3.648683 2.499793,-6.558321 5.78042,-6.592759 l 23.273967,0.646587 c 1.486665,-0.0077 3.48917,0.283429 4.794585,1.739605 0.82729,0.940242 1.27375,2.23738 1.314375,3.901432 0.0035,0.219773 -0.0058,0.447059 -0.015,0.683528 0.0091,-0.03798 -1.20729,14.060851 -1.20729,14.060851 l 0,0.103312 c 0.0852,3.54245 -2.50667,6.458141 -5.778335,6.481725 -0.0498,0.0071 -23.296469,1.894469 -23.296469,1.894469 -1.977085,0.02191 -3.41896,-0.433075 -4.351461,-1.414643 -1.114584,-1.155214 -1.630209,-3.096017 -1.705626,-6.447287 0.0021,-0.06762 0.0038,-0.130236 -0.01438,-0.213302 0.01646,0.01273 1.205209,-14.843518 1.205209,-14.843518 z"
     style="fill:#ffffff;fill-rule:evenodd"
     id="path3439"/>
  <path
     d="m 152.18426,49.674276 c -0.7325,-5.063117 -4.49167,-6.136935 -6.3748,-5.999394 -0.90437,0.07034 -22.27501,1.666765 -24.98876,2.424803 -3.21625,0.907683 -2.94521,6.812531 -2.89479,7.485415 0.0256,0.478574 0.40562,0.841523 0.83812,0.831922 0.44855,-0.02859 0.7898,-0.438711 0.75292,-0.920415 -0.0665,-1.324062 0.0596,-5.23113 1.72979,-5.704068 2.06563,-0.582512 17.06751,-1.817246 24.6996,-2.381809 0.40229,-0.02025 3.99542,-0.120426 4.64479,4.498346 0.24375,1.638797 0.39125,10.489808 0.47479,17.419218 -1.29791,-1.993607 -3.33416,-3.478793 -6.02792,-3.639501 l -15.75854,0.135037 c -6.92876,0.98908 -7.39938,5.066038 -7.31251,9.165955 l 0.0386,1.455967 c 0.1073,4.512747 3.57042,8.149534 7.72417,8.115305 l 15.70376,-0.137332 c 4.14979,-0.03444 7.43959,-3.726324 7.33605,-8.241784 l -0.0368,-1.458054 c -0.0106,-0.191388 -0.0146,-0.397176 -0.0365,-0.609435 -0.007,-0.02797 0.0219,-0.07034 0.0219,-0.105608 -0.0127,-0.805833 -0.15854,-19.64345 -0.53375,-22.334568 z m -1.02438,24.516849 0,0 c 0.089,3.54558 -2.49937,6.460227 -5.75958,6.492369 l -15.70709,0.141715 c -3.27542,0.0192 -6.00022,-2.842434 -6.08688,-6.386344 l -0.0409,-1.461811 c -0.0825,-3.839028 0.27917,-6.626571 5.86188,-7.415081 l 15.60521,-0.132531 c 3.83625,0.232086 6.01688,3.937122 6.09938,7.303629 l 0.0279,1.458054 z"
     style="fill:#ffffff;fill-rule:evenodd"
     id="path3441"/>
  <path
     d="m 203.78574,37.828473 c -0.225,-4.685768 -5.14479,-6.310165 -7.72042,-6.516997 -0.0127,0.0015 -49.8494,-2.921744 -49.8494,-2.921744 -0.44479,-0.0288 -0.80667,0.342077 -0.83833,0.815016 -0.0144,0.487758 0.33979,0.904345 0.77541,0.914989 l 19.74064,1.16398 -1.97313,56.812144 c -0.0188,0.478156 0.31729,0.89203 0.77542,0.915197 0.43938,0.02839 0.81188,-0.33519 0.83438,-0.817521 l 0.57604,-16.740073 c 4.55979,0.124183 28.48918,0.751986 32.38668,0.391333 3.90271,-0.361278 4.96583,-3.956323 4.99375,-5.821364 0.0181,-0.985323 0.48771,-24.495351 0.29896,-28.19496 z m -1.905,28.140278 0,0 c -0.002,0.159247 -0.11834,3.822122 -3.54855,4.138111 -3.74729,0.359191 -27.55147,-0.277795 -32.16688,-0.399056 l 1.33645,-38.32829 28.48981,1.67407 c 0.0446,0 5.99438,0.542021 6.20104,4.845223 0.17521,3.63449 -0.30416,27.822829 -0.31187,28.069942 z"
     style="fill:#ffffff;fill-rule:evenodd"
     id="path3443"/>
  <path
     d="m 250.58139,66.436264 c -0.43188,-5.325467 -1.85521,-21.691113 -2.435,-24.930723 -0.65708,-3.555807 -3.71042,-4.566803 -5.23167,-4.611884 -0.81417,-0.0048 -19.82959,-0.218103 -24.75459,0.222486 -5.58272,0.481913 -5.93001,10.038575 -5.94459,10.442848 -0.0223,0.484 0.33937,0.890987 0.77875,0.914988 0.43938,0.02296 0.81229,-0.348964 0.83271,-0.828373 0.008,-0.08515 0.30125,-8.432754 4.48792,-8.795702 4.86083,-0.436415 24.40188,-0.218938 24.5998,-0.211215 0.11792,0.0073 3.10146,0.14568 3.65333,3.180545 0.46146,2.485746 1.44396,13.423448 2.04396,20.411505 -1.41083,-1.628779 -3.41958,-2.65355 -5.62562,-2.626835 l -16.6523,0.14568 c -4.16105,0.02964 -7.44521,3.729038 -7.33959,8.234271 l 0.0996,4.163782 c 0.1073,4.503563 3.56667,8.13054 7.72772,8.105495 -0.0409,-0.0069 16.64105,0.787049 16.64105,0.787049 2.27041,0.03214 4.03937,-0.656813 5.29875,-2.037227 1.43229,-1.580985 2.1225,-3.973438 2.05229,-7.131442 l -0.0996,-4.158355 c -0.0188,-0.433284 -0.0552,-0.866359 -0.13292,-1.276893 z m -2.97208,11.337592 0,0 c -0.94376,1.038336 -2.32771,1.552391 -4.14646,1.524424 0.0332,0 -16.63585,-0.792267 -16.63585,-0.792267 -3.31,0.03152 -6.04187,-2.833041 -6.13458,-6.375073 l -0.0923,-4.164826 c -0.0904,-3.549337 2.5075,-6.452714 5.77312,-6.487569 l 16.64272,-0.135036 c 2.93917,-0.02463 5.4075,2.251991 5.97438,5.276629 0.0808,0.888691 0.11104,1.45054 0.1275,1.558235 l 0.0937,3.707123 c 0.0409,1.833942 -0.19709,4.350787 -1.60229,5.88836 z"
     style="fill:#ffffff;fill-rule:evenodd"
     id="path3445"/>
  <path
     d="m 429.7621,75.512473 -15.0923,1.874641 c 1.41417,-1.530476 2.28542,-3.682703 2.23396,-6.072651 l -0.11083,-4.474552 c 0,-0.0167 -0.0104,-0.05093 -0.0104,-0.07409 0.0848,-3.350853 0.48187,-21.617229 -0.15917,-26.158777 -0.46292,-3.314538 -4.81479,-3.970725 -4.99917,-3.999109 -1.09625,0.01294 -24.10668,0.408447 -28.47668,0.841105 -5.10792,0.507167 -4.45854,10.374182 -4.42167,10.789725 0.03,0.476487 0.41,0.851332 0.85688,0.816895 0.42062,-0.02672 0.73854,-0.411161 0.73854,-0.875334 l 0,-0.03966 c 0.004,-0.0043 -0.0188,-0.221442 -0.0258,-0.547031 -0.0446,-1.906783 0.046,-8.105495 3.02771,-8.412092 4.30688,-0.429318 27.97251,-0.837347 28.2421,-0.837347 -0.004,0.0144 3.19396,0.557675 3.48542,2.490129 0.12375,0.992837 0.20833,2.727016 0.26958,4.838126 0.11833,4.843345 0.0331,11.698663 -0.0477,16.356046 -1.42542,-2.098797 -3.70334,-3.473576 -6.21251,-3.446861 l -19.41417,0.173648 c -4.14063,0.03422 -7.44542,3.800833 -7.33438,8.385376 l 0.11417,4.475805 c 0.10333,4.596231 3.57416,8.295214 7.72833,8.266621 L 409.56756,79.7132 c 0.20313,0 0.395,-0.0192 0.60563,-0.03945 0.0369,0 0.0792,0.009 0.12208,0 l 19.67793,-2.430856 c 0.43708,-0.04863 0.7475,-0.481913 0.67958,-0.956313 -0.0575,-0.487758 -0.45229,-0.832339 -0.89021,-0.774109 z m -45.72356,-3.910615 0,0 -0.11021,-4.468709 c -0.0998,-3.635117 2.49375,-6.611334 5.77084,-6.638258 l 19.40271,-0.167804 c 3.23084,-0.03277 5.94084,2.845982 6.06834,6.429756 -0.006,0.260889 0,0.423475 0,0.436206 -0.006,0.01774 -0.008,0.03444 -0.0125,0.05322 0.004,0.04612 0.031,0.100182 0.0461,0.149646 l 0.0829,3.935244 c 0.0906,3.630943 -2.49979,6.602359 -5.76708,6.651615 l -19.42168,0.15862 c -3.25105,0.02484 -5.98292,-2.907133 -6.05917,-6.539537 z"
     style="fill:#ffffff;fill-rule:evenodd"
     id="path3447"/>
</svg>
