<?xml version="1.0" encoding="utf-8"?>
<!-- Generator: Adobe Illustrator 26.0.0, SVG Export Plug-In . SVG Version: 6.00 Build 0)  -->
<svg version="1.1" xmlns="http://www.w3.org/2000/svg" xmlns:xlink="http://www.w3.org/1999/xlink" x="0px" y="0px"
	 viewBox="0 0 1258.9 800" style="enable-background:new 0 0 1258.9 800;" xml:space="preserve">
<style type="text/css">
	.st0{fill:#FFFFFF;}
	.st1{fill:#04090C;}
</style>
<g id="Camada_2_cópia">
</g>
<g id="Camada_1">
</g>
<g id="Camada_2">
</g>
<g id="Camada_1_cópia">
	<g>
		<path class="st0" d="M195.2,365.2l-66-146.2c-0.7-1.4-1.8-2.1-3.2-2.1H77c-1.8,0-2.6,0.9-2.6,2.6v144.1c0,1.8-0.6,3.3-1.8,4.5
			c-1.2,1.2-2.7,1.8-4.5,1.8H6.3c-1.8,0-3.3-0.6-4.5-1.8c-1.2-1.2-1.8-2.7-1.8-4.5V6.9c0-1.8,0.6-3.2,1.8-4.5
			c1.2-1.2,2.7-1.8,4.5-1.8h150.9c22.5,0,42.3,4.6,59.4,13.7c17.1,9.2,30.3,22.2,39.6,39c9.3,16.9,14,36.4,14,58.6
			c0,23.9-6,44.4-17.9,61.5c-12,17.1-28.7,29.1-50.1,36.1c-1.8,0.7-2.3,1.9-1.6,3.7l71.8,149.3c0.7,1.4,1.1,2.5,1.1,3.2
			c0,2.8-1.9,4.2-5.8,4.2h-64.9C199.1,369.9,196.6,368.3,195.2,365.2z M74.4,67v90.2c0,1.8,0.9,2.6,2.6,2.6h69.1
			c14.8,0,26.8-4.4,36.1-13.2c9.3-8.8,14-20.2,14-34.3c0-14.1-4.7-25.6-14-34.6c-9.3-9-21.4-13.5-36.1-13.5H77
			C75.3,64.4,74.4,65.3,74.4,67z"/>
		<path class="st0" d="M594.8,432.7v240.6c0,25-5.7,47-17.2,66.2c-11.4,19.2-27.4,34.1-48,44.6C509,794.7,485.2,800,458.1,800
			c-27.1,0-50.9-5.3-71.5-15.8c-20.6-10.6-36.6-25.4-48-44.6c-11.4-19.2-17.1-41.2-17.1-66.2V458.4h-0.1V6.9c0-1.8,0.6-3.3,1.9-4.5
			c1.2-1.2,2.7-1.8,4.5-1.8h61.7c1.8,0,3.3,0.6,4.5,1.8c1.2,1.2,1.8,2.7,1.8,4.5v425c0,0.3,0.1,0.6,0.1,0.8v241.2
			c0,18.6,5.7,33.7,17.1,45.1c11.4,11.5,26.5,17.2,45.1,17.2s33.7-5.7,45.1-17.2c11.4-11.4,17.2-26.5,17.2-45.1V458.4h-0.1V6.9
			c0-1.8,0.6-3.3,1.9-4.5c1.2-1.2,2.7-1.8,4.5-1.8h61.7c1.8,0,3.3,0.6,4.5,1.8c1.2,1.2,1.8,2.7,1.8,4.5v425
			C594.8,432.2,594.8,432.4,594.8,432.7z"/>
		<path class="st0" d="M869.6,14.2c17.6,9.5,31.2,23,40.9,40.4C920.2,72,925,92,925,114.5c0,22.2-5,41.7-15,58.6
			c-10,16.9-24.1,30-42.2,39.3c-18.1,9.3-39,14-62.5,14h-74.9c-1.8,0-2.6,0.9-2.6,2.6v134.6c0,1.8-0.6,3.3-1.8,4.5
			c-1.2,1.2-2.7,1.8-4.5,1.8h-61.7c-1.8,0-3.3-0.6-4.5-1.8c-1.2-1.2-1.8-2.7-1.8-4.5V6.3c0-1.8,0.6-3.3,1.8-4.5
			c1.2-1.2,2.7-1.8,4.5-1.8h148.8C831.6,0,852,4.7,869.6,14.2z M836.4,152.8c9.8-9.3,14.8-21.5,14.8-36.7c0-15.5-4.9-28-14.8-37.5
			c-9.9-9.5-22.9-14.2-39-14.2h-67c-1.8,0-2.6,0.9-2.6,2.6v97.1c0,1.8,0.9,2.6,2.6,2.6h67C813.5,166.7,826.5,162.1,836.4,152.8z"/>
		<path class="st0" d="M271.5,428.2c1.2,1.2,1.8,2.7,1.8,4.5v51.7c0,1.8-0.6,3.3-1.8,4.5c-1.2,1.2-2.7,1.8-4.4,1.8h-92.7
			c-1.7,0-2.6,0.9-2.6,2.6v296c0,1.8-0.6,3.3-1.8,4.5c-1.2,1.2-2.7,1.8-4.4,1.8h-60.6c-1.7,0-3.2-0.6-4.4-1.8
			c-1.2-1.2-1.8-2.7-1.8-4.5v-296c0-1.8-0.9-2.6-2.6-2.6H6.2c-1.7,0-3.2-0.6-4.4-1.8c-1.2-1.2-1.8-2.7-1.8-4.5v-51.7
			c0-1.8,0.6-3.2,1.8-4.5c1.2-1.2,2.7-1.8,4.4-1.8h260.9C268.9,426.4,270.3,427,271.5,428.2z"/>
		<path class="st0" d="M723.6,795.8h-64.5c-3.8,0-5.8-1.4-5.8-4.2c0-0.7,0.4-1.8,1-3.2l71.3-149.3c0.7-1.8,0.2-3-1.6-3.7
			c-21.3-7-37.9-19.1-49.8-36.1c-11.9-17.1-17.8-37.6-17.8-61.5c0-22.2,4.6-41.7,13.9-58.6c9.3-16.9,22.4-29.9,39.3-39.1
			c17-9.1,36.6-13.7,59-13.7h150c1.8,0,3.2,0.6,4.5,1.8c1.2,1.2,1.8,2.7,1.8,4.5v356.7c0,1.8-0.6,3.3-1.8,4.5
			c-1.2,1.2-2.7,1.8-4.5,1.8h-61.4c-1.7,0-3.2-0.6-4.5-1.8c-1.2-1.2-1.8-2.7-1.8-4.5V645.4c0-1.8-0.9-2.6-2.6-2.6h-48.8
			c-1.4,0-2.4,0.7-3.1,2.1L730.9,791C729.5,794.2,727.1,795.8,723.6,795.8z M848.4,490.2h-68.7c-14.7,0-26.7,4.5-35.9,13.5
			c-9.3,9-13.9,20.5-13.9,34.6c0,14.1,4.6,25.5,13.9,34.3c9.3,8.8,21.2,13.2,35.9,13.2h68.7c1.8,0,2.6-0.9,2.6-2.6v-90.2
			C851,491.1,850.1,490.2,848.4,490.2z"/>
		<path class="st0" d="M1185.4,790.5l-14.6-51.7c-0.7-1.4-1.5-2.1-2.4-2.1h-119.8c-1,0-1.8,0.7-2.4,2.1l-14.1,51.7
			c-1,3.5-3.1,5.3-6.3,5.3h-61.8c-1.9,0-3.4-0.6-4.4-1.8c-1-1.2-1.1-3.1-0.5-5.5l105.2-356.7c1-3.5,3.1-5.3,6.3-5.3h76.4
			c3.2,0,5.4,1.8,6.3,5.3l105.2,356.7c0.3,0.7,0.5,1.6,0.5,2.6c0,3.2-1.8,4.8-5.4,4.8h-61.8C1188.5,795.8,1186.4,794,1185.4,790.5z
			 M1065.7,679.2h85.7c1.9,0,2.6-1.1,1.9-3.2l-43.8-156.7c-0.3-1.4-0.8-2-1.5-1.8c-0.7,0.2-1.1,0.8-1.5,1.8L1063.7,676
			C1063.4,678.1,1064,679.2,1065.7,679.2z"/>
		<g>
			<path class="st0" d="M1163.9,184.7c0,44.6,36.1,80.7,80.6,80.8c0.1,0,0.1-0.1,0.1-0.1V103.9
				C1200.1,103.9,1163.9,140.1,1163.9,184.7z"/>
			<path class="st0" d="M1236.9,0.3H980.8c-4.3,0-7.8,3.5-7.8,7.8v353.7c0,4.3,3.5,7.8,7.8,7.8h256.1c4.3,0,7.8-3.5,7.8-7.8v-50.6
				c0-2.8-1.5-5.4-3.9-6.8l-190.1-113.6c-4.7-2.7-4.7-9.5,0-12.2L1240.8,65c2.4-1.4,3.9-4,3.9-6.8v-50
				C1244.7,3.8,1241.2,0.3,1236.9,0.3z"/>
		</g>
	</g>
</g>
</svg>
